<?xml version="1.0" encoding="UTF-8"?>
<svg version="1.1" xmlns="http://www.w3.org/2000/svg" width="512" height="512">
<path d="M0 0 C13.90318491 11.32616437 12.60676959 25.18835731 14.70703125 43.390625 C51.66703125 43.720625 88.62703125 44.050625 126.70703125 44.390625 C127.03703125 42.740625 127.36703125 41.090625 127.70703125 39.390625 C131.64021699 31.56508243 137.44901786 26.12874267 145.39453125 22.515625 C152.99254945 20.00289457 162.15340115 20.36677051 169.58203125 23.2890625 C176.67625209 26.96658139 182.4546331 31.98561136 185.70703125 39.390625 C186.03703125 41.040625 186.36703125 42.690625 186.70703125 44.390625 C209.14703125 44.060625 231.58703125 43.730625 254.70703125 43.390625 C256.19203125 30.520625 256.19203125 30.520625 257.70703125 17.390625 C260.74993802 9.27620693 263.75377874 3.5022235 271.20703125 -1.109375 C277.82715357 -4.00567852 286.31818382 -3.76830503 293.20703125 -1.94921875 C299.49016662 0.88555522 304.75640727 5.75132048 307.37890625 12.1328125 C308.78635707 16.16654707 309.20703472 20.00794796 309.14453125 24.265625 C309.13317139 25.40632446 309.13317139 25.40632446 309.12158203 26.57006836 C307.49665958 86.4490539 279.79344572 149.21008316 242.70703125 195.390625 C241.80314383 196.53236086 240.89948412 197.67427706 239.99609375 198.81640625 C234.17499782 206.07864728 234.17499782 206.07864728 230.70703125 208.390625 C228.69140625 208.3046875 228.69140625 208.3046875 226.45703125 208.015625 C223.4710433 207.95698039 222.07414878 208.14721738 219.5625 209.8125 C216.79856003 212.62710282 214.80089686 214.82455139 214.55859375 218.8671875 C214.66300781 220.11628906 214.66300781 220.11628906 214.76953125 221.390625 C214.98524928 224.4622621 215.03861733 225.88187721 213.33984375 228.48828125 C211.23122932 230.61806651 209.03957315 232.50835226 206.70703125 234.390625 C205.85109375 235.10992187 204.99515625 235.82921875 204.11328125 236.5703125 C202.28785969 238.08625167 200.44899638 239.58613759 198.59765625 241.0703125 C196.58906435 242.68261465 194.60160929 244.30621125 192.62890625 245.9609375 C191.6440625 246.78335938 190.65921875 247.60578125 189.64453125 248.453125 C188.74605469 249.20722656 187.84757813 249.96132812 186.921875 250.73828125 C184.70703125 252.390625 184.70703125 252.390625 182.70703125 252.390625 C182.70703125 253.050625 182.70703125 253.710625 182.70703125 254.390625 C183.56167969 254.78121094 183.56167969 254.78121094 184.43359375 255.1796875 C188.96790447 257.59487019 192.76283697 261.12827282 196.70703125 264.390625 C197.71765625 265.21304687 198.72828125 266.03546875 199.76953125 266.8828125 C214.32726913 278.91181335 228.25323095 292.35110904 239.70703125 307.390625 C240.77616516 308.72334801 241.8480317 310.05388117 242.921875 311.3828125 C279.85719493 357.42477467 308.54902803 421.61815328 308.95703125 481.390625 C308.97765625 482.14601563 308.99828125 482.90140625 309.01953125 483.6796875 C309.06419061 490.17762507 307.81865583 495.53993182 303.91015625 500.81640625 C297.12642408 507.36949153 292.71058653 509.51965488 283.26953125 509.828125 C275.79345693 509.64398524 271.28035966 508.66678005 265.78125 503.625 C255.13783556 492.43068419 256.48548619 478.80390114 254.70703125 463.390625 C194.31703125 462.895625 194.31703125 462.895625 132.70703125 462.390625 C132.37703125 464.370625 132.04703125 466.350625 131.70703125 468.390625 C127.6519575 476.02370501 120.24648023 482.22259852 112.03125 484.91796875 C103.15561155 486.72293052 94.56906275 485.98688957 86.70703125 481.390625 C79.38296789 476.034031 75.23805025 471.24919151 72.70703125 462.390625 C43.99703125 462.885625 43.99703125 462.885625 14.70703125 463.390625 C13.71703125 471.970625 12.72703125 480.550625 11.70703125 489.390625 C8.58740772 497.70962107 5.64997475 503.65683365 -2.35546875 507.890625 C-9.03662826 510.45326152 -16.83789167 510.60108807 -23.72265625 508.73046875 C-30.04725088 505.88809256 -35.32409694 501.07433312 -37.96484375 494.6484375 C-39.37229457 490.61470293 -39.79297222 486.77330204 -39.73046875 482.515625 C-39.72289551 481.75515869 -39.71532227 480.99469238 -39.70751953 480.21118164 C-39.07568447 456.92782922 -33.2668845 433.17173578 -26.16796875 411.078125 C-25.93867676 410.34916016 -25.70938477 409.62019531 -25.47314453 408.86914062 C-24.10442355 404.83194801 -22.72307493 401.99300285 -19.29296875 399.390625 C-16.04296875 399.140625 -16.04296875 399.140625 -13.29296875 399.390625 C-12.78784631 397.78806392 -12.28905248 396.18350708 -11.79296875 394.578125 C-11.51453125 393.68480469 -11.23609375 392.79148437 -10.94921875 391.87109375 C-10.16508524 389.33489105 -10.16508524 389.33489105 -10.29296875 386.390625 C-11.06640625 385.2459375 -11.06640625 385.2459375 -11.85546875 384.078125 C-13.74768443 380.54050438 -13.25225214 379.27258488 -12.29296875 375.390625 C-11.12788842 372.37957323 -9.76140419 369.4833692 -8.35546875 366.578125 C-7.957229 365.74788818 -7.55898926 364.91765137 -7.14868164 364.06225586 C3.84220587 341.53917374 18.29455603 318.935645 35.546875 300.69140625 C37.39254549 298.72558362 39.15467985 296.72189104 40.9140625 294.6796875 C44.9165888 290.08944848 49.14938346 285.75618677 53.45703125 281.453125 C54.25052979 280.66043213 55.04402832 279.86773926 55.86157227 279.05102539 C61.55100676 273.42071696 67.38049998 268.29612001 73.70703125 263.390625 C76.64045875 260.94735891 79.56799492 258.49727673 82.4921875 256.04296875 C84.70703125 254.390625 84.70703125 254.390625 86.70703125 254.390625 C86.70703125 253.730625 86.70703125 253.070625 86.70703125 252.390625 C86.13726562 252.13023437 85.5675 251.86984375 84.98046875 251.6015625 C80.44615803 249.18637981 76.65122553 245.65297718 72.70703125 242.390625 C71.69640625 241.56820312 70.68578125 240.74578125 69.64453125 239.8984375 C55.10883854 227.88765249 41.08002027 214.4640167 29.70703125 199.390625 C28.68774251 198.08603131 27.666762 196.78275847 26.64453125 195.48046875 C12.37801039 177.20788211 0.15182483 157.8314883 -10.10546875 137.015625 C-10.44916504 136.3448291 -10.79286133 135.6740332 -11.14697266 134.98291016 C-13.3190172 130.40829474 -13.64057783 127.27051338 -12.29296875 122.390625 C-10.73046875 120.453125 -10.73046875 120.453125 -9.29296875 119.390625 C-9.72609375 118.34261719 -9.72609375 118.34261719 -10.16796875 117.2734375 C-10.53921875 116.36335938 -10.91046875 115.45328125 -11.29296875 114.515625 C-11.66421875 113.61070313 -12.03546875 112.70578125 -12.41796875 111.7734375 C-13.29296875 109.390625 -13.29296875 109.390625 -13.29296875 107.390625 C-14.20046875 107.473125 -15.10796875 107.555625 -16.04296875 107.640625 C-19.29296875 107.390625 -19.29296875 107.390625 -21.28515625 105.94140625 C-24.10213546 102.36263694 -25.28733642 98.63556929 -26.66796875 94.328125 C-26.96541992 93.41417969 -27.26287109 92.50023438 -27.56933594 91.55859375 C-34.3691336 69.93798312 -39.32489566 46.80804523 -39.73046875 24.078125 C-39.75286621 23.31951172 -39.77526367 22.56089844 -39.79833984 21.77929688 C-39.77051839 15.21343357 -37.5589662 10.37498061 -33.6171875 5.18359375 C-24.95670019 -3.3115382 -11.066 -6.84693682 0 0 Z M17.70703125 60.390625 C20.73374269 72.8075932 20.73374269 72.8075932 24.45703125 84.890625 C25.19953125 87.035625 25.94203125 89.180625 26.70703125 91.390625 C36.60703125 91.390625 46.50703125 91.390625 56.70703125 91.390625 C58.68703125 87.760625 60.66703125 84.130625 62.70703125 80.390625 C66.92192787 75.28838173 73.0315898 70.54074546 79.70703125 69.390625 C90.26438587 68.63297955 98.26516408 69.58406713 107.45703125 75.015625 C111.92963302 79.73670465 114.81673297 85.61002844 117.70703125 91.390625 C158.95703125 91.390625 200.20703125 91.390625 242.70703125 91.390625 C248.69913049 74.3624182 248.69913049 74.3624182 251.70703125 60.390625 C230.25703125 60.390625 208.80703125 60.390625 186.70703125 60.390625 C184.72703125 64.350625 182.74703125 68.310625 180.70703125 72.390625 C173.79926535 79.63263764 167.23632583 82.66937984 157.28515625 83.38671875 C148.31115313 83.40031572 141.28895149 80.68732531 134.76171875 74.56640625 C130.3089726 69.82488367 129.1919617 67.0171062 126.70703125 60.390625 C90.73703125 60.390625 54.76703125 60.390625 17.70703125 60.390625 Z M33.70703125 107.390625 C34.67640625 109.72125 35.64578125 112.051875 36.64453125 114.453125 C36.92804443 115.15187744 37.21155762 115.85062988 37.50366211 116.57055664 C38.07688192 117.91124526 38.69416209 119.23338344 39.33778381 120.54173279 C40.07190989 122.0691748 40.7936576 123.60473063 41.42927456 125.17572117 C44.84334387 133.66418581 44.84334387 133.66418581 51.67067146 139.2315197 C57.51169969 140.52501387 63.46382124 140.11097094 69.3984375 139.85546875 C71.31363077 139.82745785 73.22893224 139.8061219 75.14427185 139.79115295 C80.1630326 139.73412984 85.17518132 139.5870622 90.19134521 139.42059326 C95.31871058 139.26656795 100.44715531 139.19852006 105.57617188 139.12304688 C115.62268244 138.96262825 125.66430523 138.70697238 135.70703125 138.390625 C136.1659375 137.49424316 136.62484375 136.59786133 137.09765625 135.67431641 C137.71701688 134.48838156 138.3368327 133.30268436 138.95703125 132.1171875 C139.5603125 130.95268066 140.16359375 129.78817383 140.78515625 128.58837891 C145.11331138 121.38688298 152.24964043 117.92988908 160.14453125 115.703125 C169.17249736 114.60215352 177.33462506 115.77885739 184.95703125 121.015625 C190.67318456 125.65566038 194.05950836 131.62481095 196.70703125 138.390625 C209.69174791 140.58483601 209.69174791 140.58483601 221.68115234 136.94775391 C225.56208436 132.37108058 227.56538807 126.93420237 229.70703125 121.390625 C231.68703125 116.770625 233.66703125 112.150625 235.70703125 107.390625 C196.76703125 107.390625 157.82703125 107.390625 117.70703125 107.390625 C115.72703125 111.020625 113.74703125 114.650625 111.70703125 118.390625 C107.24501058 123.72664972 101.68876108 128.23262472 94.70703125 129.390625 C83.4035142 130.38172139 75.46371722 129.32207493 66.51953125 122.328125 C61.89669387 118.08511995 59.46296866 112.97139826 56.70703125 107.390625 C49.11703125 107.390625 41.52703125 107.390625 33.70703125 107.390625 Z M60.70703125 154.390625 C64.69626602 160.37447716 68.49535192 165.75650143 73.20703125 171.078125 C73.74972656 171.70267578 74.29242188 172.32722656 74.8515625 172.97070312 C76.45166682 174.7980299 78.05378323 176.61102418 79.70703125 178.390625 C80.53740906 179.40280594 81.36778687 180.41498688 82.22332764 181.45783997 C85.49600326 184.69647514 88.05157986 185.12313299 92.56167603 185.24822998 C93.4407663 185.24236877 94.31985657 185.23650757 95.22558594 185.23046875 C96.63658066 185.25587738 96.63658066 185.25587738 98.07608032 185.28179932 C101.17757667 185.32849442 104.27708535 185.3305849 107.37890625 185.328125 C109.54356676 185.34233418 111.70821977 185.35773306 113.87286377 185.37426758 C118.40894499 185.40114861 122.94433022 185.40430074 127.48046875 185.39257812 C133.27623278 185.38080266 139.06863596 185.44188253 144.86375046 185.52281189 C149.33536569 185.57468237 153.8061787 185.58031044 158.27805328 185.57302856 C160.41342852 185.57640218 162.54884258 185.59560366 164.68392181 185.63131714 C176.52117662 186.29081229 176.52117662 186.29081229 187.20623779 182.192276 C189.71155757 179.71772059 191.72234116 177.28974083 193.70703125 174.390625 C194.60634981 173.35779237 195.5154208 172.33321234 196.44140625 171.32421875 C200.85744904 165.8555146 204.91981924 160.31421302 208.70703125 154.390625 C204.74703125 154.390625 200.78703125 154.390625 196.70703125 154.390625 C195.88203125 156.06125 195.05703125 157.731875 194.20703125 159.453125 C189.50097255 167.9876557 183.8855005 172.7599679 174.5625 175.73046875 C164.95794616 177.950947 156.02049816 176.30973937 147.63671875 171.10546875 C142.13570641 166.83087258 138.88685058 160.93008298 136.70703125 154.390625 C111.62703125 154.390625 86.54703125 154.390625 60.70703125 154.390625 Z M103.70703125 200.390625 C109.31976489 206.00335864 115.3503881 210.68774267 121.70703125 215.390625 C122.26503418 215.80940918 122.82303711 216.22819336 123.39794922 216.65966797 C124.98551303 217.84105614 126.59592884 218.99154454 128.20703125 220.140625 C129.6146875 221.15382812 129.6146875 221.15382812 131.05078125 222.1875 C133.5900981 223.6450428 133.5900981 223.6450428 136.0390625 222.9453125 C139.80777125 220.74919818 143.35360435 218.31006689 146.89453125 215.765625 C148.01976196 214.96354614 148.01976196 214.96354614 149.16772461 214.14526367 C157.67110142 208.064507 157.67110142 208.064507 165.70703125 201.390625 C165.70703125 201.060625 165.70703125 200.730625 165.70703125 200.390625 C145.24703125 200.390625 124.78703125 200.390625 103.70703125 200.390625 Z M126.45703125 288.203125 C125.750625 288.69216309 125.04421875 289.18120117 124.31640625 289.68505859 C119.3423638 293.16355748 114.48553319 296.77346223 109.70703125 300.515625 C109.10213867 300.98846924 108.49724609 301.46131348 107.87402344 301.94848633 C106.46364362 303.06947802 105.08186554 304.22631221 103.70703125 305.390625 C103.70703125 305.720625 103.70703125 306.050625 103.70703125 306.390625 C124.16703125 306.390625 144.62703125 306.390625 165.70703125 306.390625 C156.8899518 297.57354555 146.46176459 289.75458291 135.70703125 283.390625 C132.12556554 283.390625 129.31983984 286.20890643 126.45703125 288.203125 Z M75.70703125 332.390625 C74.80771269 333.42345763 73.8986417 334.44803766 72.97265625 335.45703125 C72.3075 336.28074219 71.64234375 337.10445313 70.95703125 337.953125 C70.2815625 338.77941406 69.60609375 339.60570312 68.91015625 340.45703125 C66.01147221 344.3168038 63.38458543 348.37429373 60.70703125 352.390625 C67.96703125 352.390625 75.22703125 352.390625 82.70703125 352.390625 C83.78984375 350.0703125 83.78984375 350.0703125 84.89453125 347.703125 C89.08271527 339.39695 95.22166114 335.00864255 103.45703125 331.078125 C113.61241195 328.92987139 122.77059753 330.36215772 131.73828125 335.5703125 C137.85866412 340.10691208 139.02498553 345.02653356 142.70703125 352.390625 C164.48703125 352.390625 186.26703125 352.390625 208.70703125 352.390625 C204.71779648 346.40677284 200.91871058 341.02474857 196.20703125 335.703125 C195.39298828 334.76629883 195.39298828 334.76629883 194.5625 333.81054688 C192.96239568 331.9832201 191.36027927 330.17022582 189.70703125 328.390625 C188.87665344 327.37844406 188.04627563 326.36626312 187.19073486 325.32341003 C183.91805924 322.08477486 181.36248264 321.65811701 176.85238647 321.53302002 C175.9732962 321.53888123 175.09420593 321.54474243 174.18847656 321.55078125 C172.77748184 321.52537262 172.77748184 321.52537262 171.33798218 321.49945068 C168.23648583 321.45275558 165.13697715 321.4506651 162.03515625 321.453125 C159.87049574 321.43891582 157.70584273 321.42351694 155.54119873 321.40698242 C151.00511751 321.38010139 146.46973228 321.37694926 141.93359375 321.38867188 C136.13782972 321.40044734 130.34542654 321.33936747 124.55031204 321.25843811 C120.07869681 321.20656763 115.6078838 321.20093956 111.13600922 321.20822144 C109.00063398 321.20484782 106.86521992 321.18564634 104.73014069 321.14993286 C91.6585857 320.95538822 83.58426513 320.88403589 75.70703125 332.390625 Z M45.5 371.71875 C43.1538536 375.26232263 41.69196471 379.06353231 40.44091797 383.11083984 C39.33124001 386.5580031 37.69934224 389.65240099 36.08203125 392.890625 C34.45839658 396.01060812 34.45839658 396.01060812 33.70703125 399.390625 C72.64703125 399.390625 111.58703125 399.390625 151.70703125 399.390625 C153.68703125 395.760625 155.66703125 392.130625 157.70703125 388.390625 C162.16905192 383.05460028 167.72530142 378.54862528 174.70703125 377.390625 C186.0105483 376.39952861 193.95034528 377.45917507 202.89453125 384.453125 C207.51736863 388.69613005 209.95109384 393.80985174 212.70703125 399.390625 C220.29703125 399.390625 227.88703125 399.390625 235.70703125 399.390625 C234.73765625 397.06 233.76828125 394.729375 232.76953125 392.328125 C232.48601807 391.62937256 232.20250488 390.93062012 231.91040039 390.21069336 C231.33764919 388.87110075 230.72365837 387.5488844 230.08482361 386.23951721 C229.34434522 384.70841341 228.61390398 383.17116218 227.94954014 381.60552883 C225.86705296 376.771668 223.61788857 372.01181085 219.70703125 368.390625 C213.8375403 366.31975876 208.35235236 366.62518329 202.203125 366.92578125 C200.51214557 366.9537994 198.82104339 366.97513196 197.12989807 366.99009705 C192.70255493 367.04707045 188.28273086 367.19407039 183.8583374 367.36065674 C179.33432784 367.51480456 174.80908812 367.58275443 170.28320312 367.65820312 C161.42119504 367.81852927 152.56474081 368.07410563 143.70703125 368.390625 C143.30145996 369.15133301 142.89588867 369.91204102 142.47802734 370.69580078 C141.94258301 371.6907959 141.40713867 372.68579102 140.85546875 373.7109375 C140.32614746 374.69852051 139.79682617 375.68610352 139.25146484 376.70361328 C135.28578265 383.60312296 128.36351858 388.5671305 120.70703125 390.703125 C112.18507339 392.42741219 103.97893803 391.54289916 96.43359375 387.03125 C90.91529391 383.0515096 87.32939592 378.98195231 84.59765625 372.72265625 C84.24219727 371.91159424 83.88673828 371.10053223 83.52050781 370.26489258 C83.25206055 369.64638428 82.98361328 369.02787598 82.70703125 368.390625 C62.83250567 365.42792746 62.83250567 365.42792746 45.5 371.71875 Z M26.70703125 415.390625 C20.71493201 432.4188318 20.71493201 432.4188318 17.70703125 446.390625 C35.85703125 446.390625 54.00703125 446.390625 72.70703125 446.390625 C74.68703125 442.430625 76.66703125 438.470625 78.70703125 434.390625 C85.46173563 427.25357886 93.20507396 423.89542519 103.015625 423.36328125 C111.30997677 423.44754897 118.21871649 426.19335246 124.70703125 431.390625 C128.60228332 435.96509119 131.02312881 441.02282012 133.70703125 446.390625 C172.64703125 446.390625 211.58703125 446.390625 251.70703125 446.390625 C248.68031981 433.9736568 248.68031981 433.9736568 244.95703125 421.890625 C244.21453125 419.745625 243.47203125 417.600625 242.70703125 415.390625 C232.80703125 415.390625 222.90703125 415.390625 212.70703125 415.390625 C210.72703125 419.020625 208.74703125 422.650625 206.70703125 426.390625 C202.49213463 431.49286827 196.3824727 436.24050454 189.70703125 437.390625 C179.14967663 438.14827045 171.14889842 437.19718287 161.95703125 431.765625 C157.48442948 427.04454535 154.59732953 421.17122156 151.70703125 415.390625 C110.45703125 415.390625 69.20703125 415.390625 26.70703125 415.390625 Z " fill="#010000" transform="translate(121.29296875,2.609375)"/>
<path d="M0 0 C4.00053503 2.15413425 6.29728063 3.79876196 8 8 C8.33129883 9.96923828 8.33129883 9.96923828 8.45703125 12.0703125 C8.5142334 12.86961182 8.57143555 13.66891113 8.63037109 14.49243164 C8.69047363 15.3611792 8.75057617 16.22992676 8.8125 17.125 C13.92818289 75.89408752 40.40418336 133.16131107 80.44140625 176.21875 C82.54111266 178.50117896 84.56397023 180.81747882 86.5625 183.1875 C104.46204364 203.69214154 129.05551704 218.93918068 152.34570312 232.45800781 C184.45187675 251.10982832 214.94527309 274.62509795 238 304 C238.8579534 305.05714491 239.71738864 306.11308852 240.578125 307.16796875 C267.63749448 340.57960089 286.19597278 379.50684497 297 421 C297.22671387 421.84594727 297.45342773 422.69189453 297.68701172 423.56347656 C308.75058657 465.1170318 308.75058657 465.1170318 303.8125 476.8125 C300.93076619 480.2904546 298.48373164 481.78362247 294 482.4375 C290.06217943 481.8632345 288.63389006 480.99970813 286 478 C283.95867067 470.45019803 283.11692108 462.74451804 282.125 455 C274.58446769 399.39760842 249.7832926 346.88943678 211.55859375 305.78125 C209.45888734 303.49882104 207.43602977 301.18252118 205.4375 298.8125 C201.34546526 294.10956907 196.71302248 290.06693715 192 286 C191.11699219 285.22914063 190.23398437 284.45828125 189.32421875 283.6640625 C175.41382714 271.77385224 160.44520584 261.80601139 144.67871094 252.56982422 C110.73043553 232.67487245 78.57028181 209.10318283 54 178 C53.05694773 176.85620561 52.11150584 175.71437852 51.1640625 174.57421875 C12 127.13865539 12 127.13865539 12 109 C11.39671875 109.020625 10.7934375 109.04125 10.171875 109.0625 C7.58321806 108.99569595 5.46968164 108.79625943 3 108 C0.86732068 105.59786926 -0.06035767 103.04265136 -1 100 C-1.33 98.948125 -1.66 97.89625 -2 96.8125 C-2 94 -2 94 0 91.625 C2.36615111 89.06944245 2.36615111 89.06944245 2 85.375 C1.3970652 82.07116339 0.32530798 79.06853593 -0.875 75.9375 C-2.97109589 70.24228639 -4.58512649 64.52335629 -6 58.625 C-6.25346191 57.56861328 -6.50692383 56.51222656 -6.76806641 55.42382812 C-16.48523874 13.15812859 -16.48523874 13.15812859 -11.9609375 5.1640625 C-8.28355194 0.58345944 -5.78558369 -0.55630612 0 0 Z " fill="#FCCC4B" transform="translate(110,15)"/>
<path d="M0 0 C2.97361628 1.78152067 5.42653612 3.85307225 7 7 C7.53035348 15.11036671 6.6705753 22.95499278 5.3125 30.9375 C5.03696289 32.57561646 5.03696289 32.57561646 4.75585938 34.24682617 C-3.77766852 83.59834421 -23.0517698 133.79532402 -55.640625 172.359375 C-56.24261719 173.07496582 -56.84460938 173.79055664 -57.46484375 174.52783203 C-58.62212657 175.88738611 -59.79581194 177.23321235 -60.98828125 178.56201172 C-63.76312969 181.79450562 -64.92754695 183.36268152 -65.421875 187.7109375 C-65.11993698 190.85778977 -65.11993698 190.85778977 -64.2890625 193.2109375 C-64.19367188 193.80132812 -64.09828125 194.39171875 -64 195 C-65.3984375 196.8515625 -65.3984375 196.8515625 -67.375 198.625 C-70.07364855 201.01777659 -70.07364855 201.01777659 -72 204 C-72.59425781 203.82339844 -73.18851562 203.64679688 -73.80078125 203.46484375 C-78.15899845 202.54982148 -80.87727364 202.33514529 -84.796875 204.65625 C-87.64338655 207.00421998 -90.33628001 209.446939 -93 212 C-94.38961427 213.27763071 -95.78518781 214.54881943 -97.1875 215.8125 C-97.89132812 216.44800781 -98.59515625 217.08351562 -99.3203125 217.73828125 C-105.30662813 222.79087127 -111.69392932 227.35749398 -118 232 C-120.63044301 230.71524695 -123.1657438 229.34825805 -125.671875 227.8359375 C-126.33574219 227.43632812 -126.99960937 227.03671875 -127.68359375 226.625 C-128.36550781 226.2125 -129.04742187 225.8 -129.75 225.375 C-130.79607422 224.74464844 -130.79607422 224.74464844 -131.86328125 224.1015625 C-133.57632572 223.06904254 -135.28827213 222.03470118 -137 221 C-133.15252137 216.93055145 -129.02180101 213.6643726 -124.5 210.375 C-109.62695185 199.37278631 -94.82656548 187.29043328 -83 173 C-82.2059375 172.09378906 -81.411875 171.18757812 -80.59375 170.25390625 C-63.44136305 150.62286884 -49.9668074 128.61503785 -39 105 C-38.68643555 104.32984863 -38.37287109 103.65969727 -38.04980469 102.96923828 C-25.51166904 75.77787117 -16.16358472 45.4769622 -14.80664062 15.48242188 C-14.48820057 9.89158188 -13.78903102 6.40779021 -10 2 C-6.23124125 -0.51250583 -4.46849866 -0.53016086 0 0 Z " fill="#FC9316" transform="translate(408,15)"/>
<path d="M0 0 C6.47713607 3.46479154 12.81642857 7.03318059 19 11 C15.15250509 15.06946577 11.02173891 18.33552455 6.5 21.625 C-8.72157927 32.8891077 -23.96370062 45.3045182 -36 60 C-36.71929687 60.83144531 -37.43859375 61.66289062 -38.1796875 62.51953125 C-74.98427815 105.49741586 -99.35183099 161.30625841 -103.74902344 217.89208984 C-104.44673189 225.2952835 -104.44673189 225.2952835 -107.46875 229.14453125 C-111.23467369 231.9050463 -113.29910858 232.54241055 -118 232 C-121.43229611 229.94696376 -123.70955241 227.87134276 -125 224 C-125.561461 216.47372754 -124.54878796 209.05455064 -123.4375 201.625 C-123.26476562 200.46540771 -123.09203125 199.30581543 -122.9140625 198.11108398 C-120.3190652 181.66837788 -116.42370394 165.31459621 -110.75195312 149.65405273 C-109.97759811 146.9209315 -109.70229001 144.82249644 -110 142 C-110.680625 141.360625 -111.36125 140.72125 -112.0625 140.0625 C-114 138 -114 138 -114 135.25 C-111.35443038 126.65189873 -111.35443038 126.65189873 -109 124 C-105.976041 123.02503391 -103.16152279 122.89191375 -100 123 C-99.78085938 122.23042969 -99.56171875 121.46085937 -99.3359375 120.66796875 C-91.20284075 98.33762415 -76.59426874 77.57213847 -62 59 C-61.23042969 58.01644531 -60.46085937 57.03289062 -59.66796875 56.01953125 C-47.33850441 40.62436227 -33.49902828 26.20221811 -18 14 C-16.69289552 12.95060593 -15.38697996 11.89972987 -14.08203125 10.84765625 C-8.56843307 6.40890403 -8.56843307 6.40890403 -6.1875 4.50390625 C-5.64480469 4.06892822 -5.10210937 3.6339502 -4.54296875 3.18579102 C-3.07645481 2.05875649 -1.53892644 1.02595096 0 0 Z " fill="#FC9316" transform="translate(222,265)"/>
<path d="M0 0 C2.43083666 3.646255 2.44306779 6.64181934 2.75 10.875 C4.49594568 30.22526256 8.84706332 49.55407726 15.26318359 67.88525391 C15.99757952 69.99305294 16.69870973 72.10965968 17.39453125 74.23046875 C28.45753568 107.42333271 45.93540447 138.8930901 68 166 C68.62672607 166.77102051 68.62672607 166.77102051 69.26611328 167.55761719 C78.96752223 179.42663346 89.16729536 191.21484898 101 201 C101.96550781 201.85335937 102.93101562 202.70671875 103.92578125 203.5859375 C121.85588778 219.41866018 141.55504354 232.47480747 162.375 244.1875 C183.50303508 256.10331126 202.4383657 271.35073583 220 288 C221.13115234 289.06734375 221.13115234 289.06734375 222.28515625 290.15625 C226.80743993 294.54367433 230.7997723 299.26534038 234.734375 304.18359375 C236.15428156 305.94868449 237.59884205 307.6945217 239.078125 309.41015625 C258.16717367 331.71606313 271.23551541 357.90303775 282 385 C282.31839844 385.78971191 282.63679688 386.57942383 282.96484375 387.39306641 C287.83378399 399.60748735 290.60852104 412.31609598 293.37451172 425.14526367 C293.7532007 426.8736049 294.14650461 428.59895274 294.56689453 430.31762695 C296.42859518 437.99123126 296.99273257 445.81837929 297.6796875 453.66992188 C298.47745777 461.49804261 299.45757717 465.90038003 305.5 471.1875 C306.325 471.785625 307.15 472.38375 308 473 C308.763125 473.5775 309.52625 474.155 310.3125 474.75 C310.869375 475.1625 311.42625 475.575 312 476 C304.20253779 477.56289003 304.20253779 477.56289003 300.0625 475.625 C294.90568686 469.06178328 295.15480405 458.04029287 294.125 450 C286.58446769 394.39760842 261.7832926 341.88943678 223.55859375 300.78125 C221.45888734 298.49882104 219.43602977 296.18252118 217.4375 293.8125 C213.34546526 289.10956907 208.71302248 285.06693715 204 281 C203.11699219 280.22914063 202.23398437 279.45828125 201.32421875 278.6640625 C187.41382714 266.77385224 172.44520584 256.80601139 156.67871094 247.56982422 C122.73043553 227.67487245 90.57028181 204.10318283 66 173 C65.05694773 171.85620561 64.11150584 170.71437852 63.1640625 169.57421875 C24 122.13865539 24 122.13865539 24 104 C23.39671875 104.020625 22.7934375 104.04125 22.171875 104.0625 C19.58321806 103.99569595 17.46968164 103.79625943 15 103 C12.86732068 100.59786926 11.93964233 98.04265136 11 95 C10.67 93.948125 10.34 92.89625 10 91.8125 C10 89 10 89 12 86.625 C14.36615111 84.06944245 14.36615111 84.06944245 14 80.375 C13.3970652 77.07116339 12.32530798 74.06853593 11.125 70.9375 C9.02890411 65.24228639 7.41487351 59.52335629 6 53.625 C5.74653809 52.56861328 5.49307617 51.51222656 5.23193359 50.42382812 C-4.35730148 8.71460297 -4.35730148 8.71460297 0 0 Z " fill="#F8B128" transform="translate(98,20)"/>
<path d="M0 0 C2 2 2 2 2.25463867 4.40063477 C2.19524243 11.71957162 1.53954236 18.7251794 0.3125 25.9375 C0.03696289 27.57561646 0.03696289 27.57561646 -0.24414062 29.24682617 C-8.77766852 78.59834421 -28.0517698 128.79532402 -60.640625 167.359375 C-61.24261719 168.07496582 -61.84460938 168.79055664 -62.46484375 169.52783203 C-63.62212657 170.88738611 -64.79581194 172.23321235 -65.98828125 173.56201172 C-68.76312969 176.79450562 -69.92754695 178.36268152 -70.421875 182.7109375 C-70.11993698 185.85778977 -70.11993698 185.85778977 -69.2890625 188.2109375 C-69.19367188 188.80132812 -69.09828125 189.39171875 -69 190 C-70.3984375 191.8515625 -70.3984375 191.8515625 -72.375 193.625 C-75.07364855 196.01777659 -75.07364855 196.01777659 -77 199 C-77.89138672 198.73509766 -77.89138672 198.73509766 -78.80078125 198.46484375 C-83.15899845 197.54982148 -85.87727364 197.33514529 -89.796875 199.65625 C-92.64338655 202.00421998 -95.33628001 204.446939 -98 207 C-99.38961427 208.27763071 -100.78518781 209.54881943 -102.1875 210.8125 C-102.89132812 211.44800781 -103.59515625 212.08351562 -104.3203125 212.73828125 C-110.30662813 217.79087127 -116.69392932 222.35749398 -123 227 C-125.46800047 225.84826645 -127.04783565 224.95216435 -129 223 C-127.98292969 222.44441406 -126.96585937 221.88882813 -125.91796875 221.31640625 C-122.12656807 219.14594603 -118.72389038 216.65781502 -115.3125 213.9375 C-114.71018555 213.46070801 -114.10787109 212.98391602 -113.48730469 212.49267578 C-108.38925178 208.40860765 -103.55814367 204.07808283 -98.796875 199.609375 C-96.24140638 197.22522271 -93.63299192 194.92257894 -91 192.625 C-80.46462646 183.13473551 -71.53541215 172.28036144 -63 161 C-62.5477002 160.40993164 -62.09540039 159.81986328 -61.62939453 159.21191406 C-44.12777283 136.33616997 -30.60867221 110.73286017 -20 84 C-19.64953613 83.12021484 -19.29907227 82.24042969 -18.93798828 81.33398438 C-8.6470241 55.16295698 -3.34320889 27.84541087 0 0 Z " fill="#EA7C0E" transform="translate(413,20)"/>
<path d="M0 0 C1.98 0.99 3.96 1.98 6 3 C2.15250509 7.06946577 -1.97826109 10.33552455 -6.5 13.625 C-21.72157927 24.8891077 -36.96370062 37.3045182 -49 52 C-49.71929687 52.83144531 -50.43859375 53.66289062 -51.1796875 54.51953125 C-87.98427815 97.49741586 -112.35183099 153.30625841 -116.74902344 209.89208984 C-117.44673189 217.2952835 -117.44673189 217.2952835 -120.46875 221.14453125 C-124.24602386 223.91336626 -126.30848177 224.29321989 -131 224 C-131.66 223.34 -132.32 222.68 -133 222 C-132.46890625 221.69707031 -131.9378125 221.39414062 -131.390625 221.08203125 C-124.29250584 216.99256547 -124.29250584 216.99256547 -120.47192383 210.00366211 C-118.89767859 201.82149488 -117.73625075 193.59102392 -116.58789062 185.33984375 C-114.70660006 172.22327603 -111.82092179 159.58631891 -107.875 146.9375 C-107.48320557 145.68106689 -107.09141113 144.42463379 -106.68774414 143.13012695 C-103.18623026 132.07639023 -98.9411654 121.48255427 -94 111 C-93.49968262 109.92903076 -93.49968262 109.92903076 -92.98925781 108.83642578 C-83.65380989 89.02762708 -72.01318252 70.82586431 -58 54 C-57.56461914 53.47438477 -57.12923828 52.94876953 -56.68066406 52.40722656 C-47.1456141 40.93506282 -37.2117679 30.30082359 -25.50390625 21.0078125 C-23.32164769 19.2579203 -21.2521502 17.44742481 -19.1875 15.5625 C-14.95285466 11.78852737 -10.32294596 8.5904623 -5.65893555 5.37524414 C-2.30433039 3.17773198 -2.30433039 3.17773198 0 0 Z " fill="#E87C0E" transform="translate(235,273)"/>
<path d="M0 0 C5.67507225 2.00296668 9.30675089 5.61350179 12 11 C12.54360446 15.95482094 12.56437074 19.87125852 10.3125 24.375 C6.00789151 29.26131234 2.77632792 31.77243214 -3.8125 32.3125 C-8.20360994 32.24804334 -10.61154946 30.84937886 -14 28 C-18.39893104 23.00661882 -19.35676337 20.08984773 -19.28125 13.5390625 C-18.73016315 8.56397287 -15.99302299 5.87480597 -12.375 2.6875 C-8.28551432 -0.2181872 -4.9348306 -0.49809505 0 0 Z " fill="#FA5673" transform="translate(307,394)"/>
<path d="M0 0 C4.1317657 1.30116378 7.0298713 3.5927766 9.4375 7.1875 C11.51194651 11.37231416 11.82615664 15.42693092 11 20 C8.29820537 25.3035228 4.70503105 29.09832298 -1 31 C-5.63522786 31.53856933 -9.07906346 31.45178019 -13.3125 29.375 C-18.36097571 24.91355635 -20.65355996 20.84646684 -21.08984375 14.16796875 C-20.88505602 9.22635177 -18.31303348 6.04156578 -15 2.625 C-10.39693986 -1.08085351 -5.6447818 -0.95603815 0 0 Z " fill="#9EE256" transform="translate(239,348)"/>
<path d="M0 0 C3.74435066 2.52336675 6.69727477 4.92629476 8.875 8.9375 C9.80128205 13.69693296 9.29987484 17.68647963 7.75 22.25 C4.87144284 26.37593192 1.74137047 29.31537651 -3.125 30.9375 C-8.38265945 31.33430449 -11.68602842 30.83248146 -16.125 27.9375 C-21.21456516 22.79306082 -22.64693064 18.98480421 -22.609375 11.83984375 C-21.79410742 6.95481299 -18.88629553 3.98781894 -15.125 0.9375 C-10.197788 -2.0188272 -5.29035316 -1.79872008 0 0 Z " fill="#FB5674" transform="translate(215.125,87.0625)"/>
<path d="M0 0 C4.39063739 2.15540381 7.47901962 4.79836603 10 9 C11.42475275 13.79819959 11.47704163 17.73244181 9.375 22.3125 C7.10391149 26.24383252 4.44824931 28.98693132 0.1875 30.75 C-8.55680833 31.74934952 -8.55680833 31.74934952 -13.25 29.3125 C-16.8217166 26.30901104 -20.57316206 22.93908413 -21.2734375 18.1171875 C-21.55990971 11.79276251 -20.07891668 7.84016297 -16 3 C-11.59486966 -1.14600503 -5.70977345 -0.75570531 0 0 Z " fill="#9EE356" transform="translate(283,40)"/>
<path d="M0 0 C5.67476113 1.96434039 9.31400331 5.62800662 12 11 C12.82134287 16.59344894 12.63659165 20.84237018 9.25 25.5 C6.33569596 29.09136457 3.83576743 30.73071959 -0.76953125 31.40625 C-9.99805476 31.69056908 -9.99805476 31.69056908 -14.125 28.25 C-17.98437297 24.44822961 -19.29933824 21.02724935 -19.375 15.625 C-19.26813398 10.6089761 -18.50223743 7.77872986 -15 4 C-10.20662513 -0.2360057 -6.14861504 -0.89575147 0 0 Z " fill="#83D8FB" transform="translate(228,441)"/>
<path d="M0 0 C4.39691043 2.24082373 6.98895786 4.85461354 9.01171875 9.3046875 C9.77815819 14.6065521 9.69127102 18.86717308 7.38671875 23.7421875 C3.09418367 28.37360693 -0.05872689 30.54447379 -6.42578125 30.8671875 C-11.0441269 30.6786836 -14.08698666 29.86535506 -17.6171875 26.8515625 C-21.34592421 22.64478262 -22.58732583 17.77789604 -22.33203125 12.2890625 C-21.59264465 8.0207853 -19.72848631 4.8330023 -16.48046875 1.98046875 C-11.39926513 -1.38730574 -5.76465456 -2.01593028 0 0 Z " fill="#84D9FC" transform="translate(293.98828125,133.6953125)"/>
<path d="M0 0 C0.33 0 0.66 0 1 0 C1.37497746 4.68721819 1.48459497 8.04875802 -0.6875 12.3125 C-4.2448667 16.44673697 -7.45323143 19.58789927 -13.05078125 20.23828125 C-18.57364901 20.41951525 -21.70071475 19.79936836 -26 16 C-30.09093541 11.24566965 -30.73103369 7.05174197 -31 1 C-30.2575 1.78375 -29.515 2.5675 -28.75 3.375 C-24.24698557 7.67333196 -21.35761342 8.2923948 -15.125 8.3125 C-13.33449219 8.33763672 -13.33449219 8.33763672 -11.5078125 8.36328125 C-7.70301773 7.96924348 -5.31995617 6.83420319 -2 5 C-1.34 5 -0.68 5 0 5 C0 3.35 0 1.7 0 0 Z " fill="#83D051" transform="translate(249,359)"/>
<path d="M0 0 C0.33 0 0.66 0 1 0 C1.50657287 5.31901517 0.32610043 7.86484812 -3 12 C-7.48593936 16.04828674 -10.82357764 17.37105299 -16.94140625 17.28125 C-21.43350507 16.66752872 -24.22823625 13.77176375 -27.3125 10.6875 C-29.35132482 7.4404827 -29.70279205 4.78940134 -30 1 C-28.948125 1.433125 -28.948125 1.433125 -27.875 1.875 C-26.92625 2.24625 -25.9775 2.6175 -25 3 C-24.113125 3.37125 -23.22625 3.7425 -22.3125 4.125 C-15.03221139 6.0480951 -9.08299219 5.67033163 -2.49609375 1.97265625 C-1.01269132 1.08182946 -1.01269132 1.08182946 0 0 Z " fill="#E1465B" transform="translate(318,409)"/>
<path d="M0 0 C0.54269531 0.27714844 1.08539063 0.55429687 1.64453125 0.83984375 C2.71767578 1.38318359 2.71767578 1.38318359 3.8125 1.9375 C4.87404297 2.47697266 4.87404297 2.47697266 5.95703125 3.02734375 C11.22126707 5.53364341 16.16041601 5.91198318 21.67578125 4.140625 C24.84635026 2.87423275 27.94639881 1.5268006 31 0 C31.66344497 4.42296645 30.79993531 6.7390338 28.25 10.25 C25.34328006 14.03754417 22.99208451 15.70779014 18.23046875 16.40625 C9.00194524 16.69056908 9.00194524 16.69056908 4.875 13.25 C1.64966034 10.07279974 0.05041609 7.31081842 -0.125 2.75 C-0.08375 1.8425 -0.0425 0.935 0 0 Z " fill="#54C6E8" transform="translate(209,456)"/>
<path d="M0 0 C0.33 0 0.66 0 1 0 C1 0.7425 1 1.485 1 2.25 C2.12459102 5.34262529 2.61703873 5.74215063 5.375 7.3125 C11.13841684 9.84303248 17.46962587 10.32746645 23.41015625 8.09375 C25.3087063 7.12896957 27.15926401 6.07097367 29 5 C29.66 5 30.32 5 31 5 C31.33 3.68 31.66 2.36 32 1 C31.72986927 7.07794143 31.02699406 11.16760713 27 16 C22.73940993 19.86115975 18.73472445 20.3661762 13.0234375 20.28125 C8.4345143 19.64340739 5.62893282 16.71392374 2.6875 13.375 C0.3268598 10.0526175 -0.11997591 8.39831373 -0.0625 4.375 C-0.05347656 3.55773438 -0.04445313 2.74046875 -0.03515625 1.8984375 C-0.02355469 1.27195313 -0.01195312 0.64546875 0 0 Z " fill="#82CE51" transform="translate(262,51)"/>
<path d="M0 0 C1.010625 0.66 2.02125 1.32 3.0625 2 C9.83178382 5.37860868 18.61656746 5.44659509 25.74609375 3.09375 C28.14118187 1.9509574 28.14118187 1.9509574 31 0 C30.6446631 5.92228163 29.24411091 8.85020267 25 13 C20.5772872 15.88437792 17.24602726 16.56207435 12 16 C6.87535184 14.15512666 4.03151829 11.50397003 1 7 C0.1875 3.125 0.1875 3.125 0 0 Z " fill="#E1465B" transform="translate(193,102)"/>
<path d="M0 0 C1.051875 0.433125 1.051875 0.433125 2.125 0.875 C3.07375 1.24625 4.0225 1.6175 5 2 C5.86625 2.37125 6.7325 2.7425 7.625 3.125 C16.23634852 5.35757184 23.27540633 4.27236786 31 0 C30.6298852 6.16857998 29.24224897 8.75775103 25 13 C20.31770237 15.90900193 15.33324723 15.72417501 10 15 C5.63347159 13.2376534 3.02304778 10.63038251 1.0625 6.375 C0 3 0 3 0 0 Z " fill="#55C7E9" transform="translate(272,149)"/>
<path d="M0 0 C2.49118953 3.7367843 2.2065226 5.74451819 2.125 10.1875 C2.10695313 11.45980469 2.08890625 12.73210938 2.0703125 14.04296875 C2.03550781 15.50669922 2.03550781 15.50669922 2 17 C1.34 17 0.68 17 0 17 C-1.05609621 11.85153098 -2.44433951 4.88867901 0 0 Z " fill="#E5A526" transform="translate(98,20)"/>
<path d="M0 0 C2.69101234 2.69101234 2.29887549 4.19075946 2.3125 7.9375 C2.32925781 8.99839844 2.34601563 10.05929688 2.36328125 11.15234375 C2 14 2 14 0.48046875 15.87890625 C-0.00808594 16.24886719 -0.49664062 16.61882813 -1 17 C-2.56902561 13.86194878 -1.56136446 10.73381412 -1.0625 7.375 C-0.96259766 6.66859375 -0.86269531 5.9621875 -0.75976562 5.234375 C-0.51208041 3.48878393 -0.25676129 1.74427916 0 0 Z " fill="#CA6B0C" transform="translate(413,20)"/>
</svg>
