<?xml version="1.0" encoding="UTF-8"?>
<svg version="1.1" xmlns="http://www.w3.org/2000/svg" width="225" height="225">
<path d="M0 0 C74.25 0 148.5 0 225 0 C225 74.25 225 148.5 225 225 C150.75 225 76.5 225 0 225 C0 150.75 0 76.5 0 0 Z " fill="#FEFEFE" transform="translate(0,0)"/>
<path d="M0 0 C0.91330078 -0.00478363 1.82660156 -0.00956726 2.76757812 -0.01449585 C4.69402799 -0.01789067 6.62053579 -0.00871744 8.546875 0.01220703 C11.49089348 0.03897969 14.4310997 0.01244628 17.375 -0.01953125 C19.25000839 -0.01622708 21.12501442 -0.00982068 23 0 C23.87720703 -0.01012115 24.75441406 -0.02024231 25.65820312 -0.03067017 C30.1223884 0.05468033 31.93935397 0.22090908 35.55224609 3.07666016 C37.98196936 6.3043121 38.24302771 7.83116157 37.9921875 11.7265625 C37.13397012 15.10494202 35.24223432 16.66971027 32.5 18.6640625 C31.18 18.6640625 29.86 18.6640625 28.5 18.6640625 C27.08998646 40.76347652 29.30902654 54.48912404 43.12841797 72.5 C46.93804289 77.58263733 50.36976463 82.90673071 53.84622192 88.22006226 C55.65979896 90.98103385 57.50223627 93.72245469 59.34375 96.46484375 C60.02695313 97.48529785 60.71015625 98.50575195 61.4140625 99.55712891 C62.86218079 101.71405228 64.31492819 103.86723653 65.7734375 106.01708984 C66.86011719 107.62704834 66.86011719 107.62704834 67.96875 109.26953125 C68.62294922 110.2339917 69.27714844 111.19845215 69.95117188 112.19213867 C73.19792517 117.37394465 73.11319248 122.71950206 72.5 128.6640625 C70.31473658 133.11552501 67.5605479 135.85291395 63.5 138.6640625 C60.79085893 139.56710952 59.20489117 139.79469971 56.42118835 139.81123352 C55.17850693 139.82196648 55.17850693 139.82196648 53.91072083 139.83291626 C53.00520981 139.83560516 52.09969879 139.83829407 51.16674805 139.84106445 C50.21034424 139.84763565 49.25394043 139.85420685 48.26855469 139.86097717 C45.0996086 139.88070804 41.93070987 139.89237173 38.76171875 139.90234375 C37.6797352 139.90641928 36.59775166 139.9104948 35.48298073 139.91469383 C29.75729183 139.93555268 24.03162688 139.94985578 18.3059082 139.95922852 C12.39088371 139.97029849 6.47623482 140.00470601 0.56134319 140.04440022 C-3.9862895 140.070537 -8.53383224 140.07891771 -13.08153343 140.08250999 C-15.26202115 140.08738275 -17.44250467 140.09901626 -19.62291908 140.11754799 C-22.67510448 140.1418786 -25.7263119 140.1409854 -28.77856445 140.1340332 C-30.12772194 140.15324829 -30.12772194 140.15324829 -31.50413513 140.17285156 C-38.21837349 140.11714398 -41.59026175 138.08884437 -46.75 133.7890625 C-49.60489194 130.322408 -50.27944581 126.88936355 -51.0625 122.5390625 C-49.8484605 114.17567927 -43.71961018 106.91733871 -39.12109375 99.97265625 C-38.48476768 99.01153175 -38.48476768 99.01153175 -37.83558655 98.0309906 C-34.81697292 93.51861132 -31.66073978 89.12900613 -28.43034363 84.76628113 C-12.43327888 63.07566001 -1.43740872 46.25963356 -5.5 18.6640625 C-6.45132813 18.53128906 -7.40265625 18.39851563 -8.3828125 18.26171875 C-11.5 17.6640625 -11.5 17.6640625 -13.375 16.1015625 C-14.95499386 12.67824247 -15.52622541 9.28960884 -14.5 5.6640625 C-10.24464805 -0.00635435 -6.60405667 -0.07619715 0 0 Z " fill="#262223" transform="translate(86.5,81.3359375)"/>
<path d="M0 0 C5.01715135 0.10832636 10.01819036 0.05946283 15.03508854 -0.03710461 C18.9218981 -0.09494991 22.80496283 -0.0706262 26.69177055 -0.02205849 C28.53873475 -0.00830931 30.38606469 -0.01905149 32.2327137 -0.05583763 C46.19772918 -0.26566184 46.19772918 -0.26566184 50.83805466 4.03704453 C54.64298985 8.69732177 57.42709269 13.85423224 59.95581055 19.29174805 C60.45081055 20.28174805 60.45081055 20.28174805 60.95581055 21.29174805 C61.45277072 25.5987362 61.29612864 27.72682045 59.03662109 31.4776001 C56.71439607 34.08594721 55.05232466 34.74654871 51.59179688 35.0536499 C49.82416288 35.08920789 48.05567569 35.09172943 46.2878418 35.06811523 C45.31978607 35.07862915 44.35173035 35.08914307 43.3543396 35.09997559 C40.15833761 35.12635719 36.96433233 35.10891019 33.76831055 35.08862305 C31.54540627 35.09266516 29.32250458 35.09848856 27.09960938 35.10601807 C22.44236992 35.11486211 17.78582123 35.10201217 13.12866211 35.07397461 C7.15939859 35.03978895 1.19175357 35.05947291 -4.77745056 35.09540939 C-9.36718945 35.11709285 -13.95654471 35.11018927 -18.54629517 35.09464264 C-20.74712312 35.09064067 -22.94798593 35.09555019 -25.14877319 35.10951996 C-28.22552705 35.12476408 -31.29966193 35.1015293 -34.3762207 35.06811523 C-35.28546295 35.08026062 -36.1947052 35.09240601 -37.13150024 35.10491943 C-43.1115734 34.9846234 -43.1115734 34.9846234 -45.73232365 33.03757 C-48.25398166 30.19912464 -49.04616959 28.2772969 -49.56347656 24.50195312 C-48.94513716 16.45899516 -46.09362022 9.53313314 -40.07281494 4.04266357 C-28.91445916 -2.40822924 -12.42137132 -0.27057253 0 0 Z " fill="#FE9EDD" transform="translate(92.044189453125,179.708251953125)"/>
<path d="M0 0 C4.71237559 2.68052134 7.95035893 6.16357679 9.6875 11.375 C10.63666973 24.02451198 10.63666973 24.02451198 6.6875 29.375 C0.72567941 35.22842386 -6.09094612 38.53276364 -13.5625 42.125 C-16.06979845 43.34861115 -18.57381121 44.57888823 -21.078125 45.80859375 C-22.00570618 46.26216499 -22.00570618 46.26216499 -22.95202637 46.72489929 C-29.25631277 49.81570964 -35.454853 53.09502368 -41.62597656 56.44238281 C-44.83502397 58.16420273 -47.75492012 59.59848978 -51.3125 60.375 C-50.9825 63.015 -50.6525 65.655 -50.3125 68.375 C-52.7875 68.87 -52.7875 68.87 -55.3125 69.375 C-61.8265752 57.12299474 -68.16609376 44.797384 -74.32617188 32.36352539 C-75.01121277 30.9824219 -75.72152899 29.6136834 -76.45117188 28.25561523 C-77.3125 26.375 -77.3125 26.375 -77.125 24.1875 C-76.7228125 23.2903125 -76.7228125 23.2903125 -76.3125 22.375 C-75.3225 22.045 -74.3325 21.715 -73.3125 21.375 C-71.8125 22.75 -71.8125 22.75 -70.3125 24.375 C-70.3125 25.035 -70.3125 25.695 -70.3125 26.375 C-60.68182353 21.91016231 -51.12514594 17.35762237 -41.75 12.375 C-40.97172852 11.96411133 -40.19345703 11.55322266 -39.39160156 11.12988281 C-36.21708339 9.45265496 -33.04460572 7.77323009 -29.890625 6.05761719 C-27.51980252 4.76991643 -25.13645489 3.50843594 -22.75 2.25 C-22.04866943 1.85941406 -21.34733887 1.46882812 -20.62475586 1.06640625 C-13.91663848 -2.42121238 -7.02717909 -3.0501353 0 0 Z " fill="#211E1F" transform="translate(179.3125,6.625)"/>
<path d="M0 0 C1.60279192 0.00015914 3.20558896 0.00585476 4.80834961 0.01586914 C5.65038437 0.01728409 6.49241913 0.01869904 7.35997009 0.02015686 C10.06024671 0.02577276 12.76044163 0.03832791 15.46069336 0.05102539 C17.28686404 0.05603834 19.11303602 0.06060161 20.93920898 0.06469727 C25.42556878 0.07574735 29.9118672 0.0930226 34.39819336 0.11352539 C35.02319336 1.98852539 35.02319336 1.98852539 35.39819336 4.11352539 C32.63596058 6.87575817 30.19112719 6.6920883 26.39819336 7.11352539 C26.22381255 12.4844543 26.0975069 17.85370011 26.01367188 23.22680664 C25.97869071 25.05034117 25.93108704 26.87368254 25.87011719 28.6965332 C25.49726148 40.13913029 25.5806804 47.24035323 33.39819336 56.11352539 C35.08208429 58.48449703 36.65771131 60.92269364 38.23803711 63.36352539 C39.08042851 64.64393909 39.92353252 65.92388424 40.76733398 67.20336914 C41.18861572 67.84516113 41.60989746 68.48695313 42.04394531 69.14819336 C43.35364609 71.1408396 44.66985136 73.12909575 45.98608398 75.11743164 C46.82046957 76.38669924 47.65446887 77.65622087 48.48803711 78.92602539 C48.88167953 79.51867187 49.27532196 80.11131836 49.68089294 80.72192383 C52.39819336 84.88500688 52.39819336 84.88500688 52.39819336 87.11352539 C27.64819336 87.11352539 2.89819336 87.11352539 -22.60180664 87.11352539 C-14.86416764 73.84900139 -14.86416764 73.84900139 -10.54321289 68.67993164 C4.30153962 49.94174401 7.16358038 34.80664088 4.82910156 11.14746094 C4.72619039 8.24130616 4.72619039 8.24130616 3.39819336 7.11352539 C1.07001372 6.74591808 -1.26364514 6.41110958 -3.60180664 6.11352539 C-3.98399431 4.45737882 -4.31575766 2.78895515 -4.60180664 1.11352539 C-3.60180664 0.11352539 -3.60180664 0.11352539 0 0 Z " fill="#CBF0F9" transform="translate(82.601806640625,87.886474609375)"/>
<path d="M0 0 C3.5509777 2.23865985 5.38731323 4.17162185 7 8 C7.40625 10.11328125 7.40625 10.11328125 7.5 12.3125 C7.5515625 13.03050781 7.603125 13.74851562 7.65625 14.48828125 C6.43922885 19.14628483 2.93221726 22.68258049 -0.99511719 25.36030579 C-3.24058085 26.61204112 -5.5122503 27.75898093 -7.828125 28.875 C-8.65834167 29.28919189 -9.48855835 29.70338379 -10.34393311 30.13012695 C-12.08489704 30.99460673 -13.8297117 31.85137114 -15.578125 32.70068359 C-18.26477903 34.00718695 -20.93749969 35.33935424 -23.609375 36.67578125 C-25.30654009 37.5145433 -27.00443189 38.35183689 -28.703125 39.1875 C-29.50518372 39.58630371 -30.30724243 39.98510742 -31.13360596 40.39599609 C-33.0602746 41.32616615 -35.02728208 42.1719587 -37 43 C-37.66 42.67 -38.32 42.34 -39 42 C-38.19209048 37.80935191 -37.34052699 33.63067194 -36.44873047 29.45727539 C-36.15196135 28.03882236 -35.86691747 26.61786044 -35.59423828 25.19458008 C-33.33342348 13.45889595 -33.33342348 13.45889595 -30.24609375 10.08105469 C-28.21199599 8.79232836 -26.23492907 7.88882273 -24 7 C-22.65910301 6.25565275 -21.32560214 5.49781896 -20 4.7265625 C-18.6688139 4.02196986 -17.33547497 3.32142933 -16 2.625 C-15.34 2.25761719 -14.68 1.89023438 -14 1.51171875 C-8.86500018 -1.14604483 -5.64983271 -1.28950534 0 0 Z " fill="#F88E73" transform="translate(176,12)"/>
<path d="M0 0 C4.48874389 0.98533402 6.59749023 4.32177316 9.3125 7.8125 C11.63408224 12.91998093 12.21968595 17.59094216 10.4375 22.9375 C8.3126439 25.91229854 6.94448107 27.17896229 3.5625 28.5625 C-1.43789033 29.09825611 -4.43310116 28.65160768 -8.4375 25.5625 C-11.55358679 20.88836982 -11.03190465 16.03537212 -10.4375 10.5625 C-8.6875 7.0625 -8.6875 7.0625 -6.4375 4.5625 C-5.4784375 3.386875 -5.4784375 3.386875 -4.5 2.1875 C-2.4375 0.5625 -2.4375 0.5625 0 0 Z " fill="#242021" transform="translate(99.4375,49.4375)"/>
<path d="M0 0 C1.75127505 5.25382515 -0.50622712 10.59752333 -1.75 15.875 C-2.01554687 17.05964844 -2.28109375 18.24429688 -2.5546875 19.46484375 C-2.82023437 20.60824219 -3.08578125 21.75164063 -3.359375 22.9296875 C-3.60139648 23.97366699 -3.84341797 25.01764648 -4.09277344 26.09326172 C-5.04726857 29.15144769 -6.06902093 31.4411952 -8 34 C-10.1875 34.8125 -10.1875 34.8125 -12 35 C-13.87048933 31.57114059 -15.71850596 28.13067035 -17.5625 24.6875 C-18.09552734 23.71103516 -18.62855469 22.73457031 -19.17773438 21.72851562 C-19.67724609 20.79072266 -20.17675781 19.85292969 -20.69140625 18.88671875 C-21.15748291 18.02264404 -21.62355957 17.15856934 -22.10375977 16.26831055 C-23 14 -23 14 -22 11 C-19.86694336 9.6496582 -19.86694336 9.6496582 -17.08984375 8.30078125 C-16.10048828 7.81416016 -15.11113281 7.32753906 -14.09179688 6.82617188 C-13.05087891 6.32666016 -12.00996094 5.82714844 -10.9375 5.3125 C-9.89271484 4.80138672 -8.84792969 4.29027344 -7.77148438 3.76367188 C-5.18522781 2.50006707 -2.59476862 1.24600745 0 0 Z " fill="#C8EDF5" transform="translate(136,27)"/>
<path d="M0 0 C0.80566406 0.18369141 1.61132812 0.36738281 2.44140625 0.55664062 C3.70404297 0.85538086 3.70404297 0.85538086 4.9921875 1.16015625 C5.84167969 1.35544922 6.69117187 1.55074219 7.56640625 1.75195312 C9.66809008 2.23604884 11.76783101 2.72856528 13.8671875 3.22265625 C14.24937517 4.87880282 14.58113852 6.54722649 14.8671875 8.22265625 C14.5371875 8.55265625 14.2071875 8.88265625 13.8671875 9.22265625 C7.1488932 9.17542747 0.85345014 8.32664428 -5.1328125 5.22265625 C-6.1328125 2.53515625 -6.1328125 2.53515625 -6.1328125 0.22265625 C-3.60604097 -1.04072951 -2.71567636 -0.63110789 0 0 Z " fill="#211D1E" transform="translate(65.1328125,50.77734375)"/>
<path d="M0 0 C2.2578125 0.140625 2.2578125 0.140625 5 1 C7.0546875 3.546875 7.0546875 3.546875 8.875 6.75 C9.49117187 7.79671875 10.10734375 8.8434375 10.7421875 9.921875 C12.10168337 13.24884005 12.10637702 14.64357534 11 18 C8.7421875 17.859375 8.7421875 17.859375 6 17 C3.9453125 14.453125 3.9453125 14.453125 2.125 11.25 C1.50882812 10.20328125 0.89265625 9.1565625 0.2578125 8.078125 C-1.10168337 4.75115995 -1.10637702 3.35642466 0 0 Z " fill="#201C1D" transform="translate(74,33)"/>
<path d="M0 0 C0.33 1.32 0.66 2.64 1 4 C-1.22109528 5.2052222 -3.4497865 6.38887404 -5.6875 7.5625 C-6.31333984 7.90474609 -6.93917969 8.24699219 -7.58398438 8.59960938 C-10.5952899 10.16044313 -12.53847632 11.04450625 -15.95703125 10.71484375 C-16.63121094 10.47894531 -17.30539063 10.24304688 -18 10 C-17.89453125 7.7109375 -17.89453125 7.7109375 -17 5 C-14.19921875 3.1640625 -14.19921875 3.1640625 -10.6875 1.625 C-8.96080078 0.83996094 -8.96080078 0.83996094 -7.19921875 0.0390625 C-4.11142738 -0.96380991 -2.92841112 -1.22920961 0 0 Z " fill="#201C1D" transform="translate(80,68)"/>
<path d="M0 0 C1.33359073 6.42548263 1.33359073 6.42548263 -0.125 8.9375 C-2.63647631 10.36066991 -4.15503228 10.42674516 -7 10 C-8.875 8.9375 -8.875 8.9375 -10 7 C-9.8125 3.375 -9.8125 3.375 -9 0 C-5.93109813 -1.53445094 -3.29905734 -0.54984289 0 0 Z " fill="#201C1C" transform="translate(97,151)"/>
<path d="M0 0 C3.45743005 2.85237979 4.89859263 4.14528078 5.4375 8.6875 C5 12 5 12 3 14 C0.5 14.25 0.5 14.25 -2 14 C-4 12 -4 12 -4.375 8.6875 C-3.94805086 4.48916683 -2.88994071 2.98025136 0 0 Z " fill="#F68D72" transform="translate(99,57)"/>
<path d="M0 0 C2.5 0.25 2.5 0.25 4.5 2.25 C4.8125 5.25 4.8125 5.25 4.5 8.25 C1.5 10.25 1.5 10.25 -1.125 9.9375 C-3.5 9.25 -3.5 9.25 -4.5 8.25 C-4.6875 5.3125 -4.6875 5.3125 -4.5 2.25 C-2.5 0.25 -2.5 0.25 0 0 Z " fill="#211D1E" transform="translate(112.5,158.75)"/>
<path d="M0 0 C3 0.125 3 0.125 4 1.125 C4.1875 4.0625 4.1875 4.0625 4 7.125 C3.34 7.785 2.68 8.445 2 9.125 C-2.55555556 8.56944444 -2.55555556 8.56944444 -4 7.125 C-4.125 4.125 -4.125 4.125 -4 1.125 C-3 0.125 -3 0.125 0 0 Z " fill="#221E1F" transform="translate(79,162.875)"/>
<path d="M0 0 C1.65 0 3.3 0 5 0 C5 1.65 5 3.3 5 5 C3.125 5.625 3.125 5.625 1 6 C0.34 5.34 -0.32 4.68 -1 4 C-0.625 1.875 -0.625 1.875 0 0 Z " fill="#201D1E" transform="translate(101,136)"/>
<path d="M0 0 C1.98 0.495 1.98 0.495 4 1 C3.67 2.32 3.34 3.64 3 5 C1.68 4.67 0.36 4.34 -1 4 C-0.67 2.68 -0.34 1.36 0 0 Z " fill="#272728" transform="translate(97,116)"/>
</svg>
