<?xml version="1.0" encoding="UTF-8"?>
<svg version="1.1" xmlns="http://www.w3.org/2000/svg" width="512" height="512">
<path d="M0 0 C16.83677732 12.8874098 26.57917334 29.59834223 29.6015625 50.53515625 C29.92399609 53.10522893 30.23358585 55.67694092 30.53125 58.25 C30.69679327 59.60955377 30.86314321 60.96900954 31.03027344 62.32836914 C32.31944428 72.93156237 33.42502799 83.55172911 34.40625 94.1875 C39.81563257 94.39172867 45.21621918 94.50238956 50.62939453 94.52929688 C52.46678357 94.55126671 54.30405903 94.59809807 56.14013672 94.67089844 C66.11527392 95.4454646 66.11527392 95.4454646 74.97058105 91.85345459 C77.96231594 88.03194413 79.60524954 83.6555592 81.40625 79.1875 C84.49903614 74.44941119 88.56770727 70.33466928 92.40625 66.1875 C92.88078613 65.66913574 93.35532227 65.15077148 93.84423828 64.61669922 C114.62840476 42.1421905 144.32425429 27.21457045 175.09695435 25.87371826 C190.45077077 25.35210865 205.63141281 25.55483241 220.40625 30.1875 C221.08461914 30.39648926 221.76298828 30.60547852 222.46191406 30.82080078 C251.11728549 39.95085349 274.95401773 58.49775901 291.34375 83.5625 C291.73401367 84.15788574 292.12427734 84.75327148 292.52636719 85.36669922 C294.38882629 88.29164057 295.67959066 90.80860258 296.40625 94.1875 C297.38384277 94.17702637 298.36143555 94.16655273 299.36865234 94.15576172 C303.04016369 94.11921026 306.71165939 94.09647338 310.38330078 94.07763672 C311.96405758 94.06765841 313.54479631 94.05407093 315.12548828 94.03662109 C328.79956584 93.889588 340.05847104 94.45863209 351.59375 102.375 C357.53147486 108.31272486 360.48631703 115.09993897 360.77709961 123.44433594 C360.67467418 134.20600886 357.8220692 144.62922755 355.47265625 155.078125 C354.95493915 157.42728893 354.4384388 159.7767213 353.92308044 162.12640381 C352.56249955 168.31434644 351.18572399 174.49857389 349.80535889 180.68212891 C348.43686157 186.82504148 347.08312862 192.97120108 345.72851562 199.1171875 C344.1398241 206.32184856 342.54834185 213.52584307 340.94351196 220.72692871 C338.51473208 231.62737458 336.10674229 242.53051805 333.78857422 253.45507812 C333.19007458 256.25583649 332.59091136 259.05645224 331.99165154 261.85704803 C331.45487758 264.38417106 330.9303906 266.91362471 330.40638733 269.44342041 C327.57632175 282.82034055 324.14827376 294.95105122 313.40625 304.1875 C308.10663122 307.5160594 302.60215787 310.31383001 296.25770283 310.31054783 C295.40874795 310.31253888 294.55979308 310.31452993 293.6851123 310.31658131 C292.28580585 310.31221205 292.28580585 310.31221205 290.85823059 310.30775452 C289.86744765 310.30860894 288.8766647 310.30946337 287.85585803 310.31034368 C284.52083058 310.31199676 281.18585293 310.30647989 277.85083008 310.30102539 C275.46618145 310.30074346 273.08153273 310.30090138 270.69688416 310.3014679 C264.88395583 310.30172572 259.07104394 310.29738098 253.25811938 310.29103024 C246.49516363 310.28388814 239.73221023 310.28238563 232.96925124 310.28124207 C220.90828967 310.27905264 208.84733485 310.27239552 196.78637695 310.26293945 C185.0692549 310.25376251 173.35213468 310.24668305 161.63500977 310.24243164 C160.91294501 310.24216892 160.19088025 310.24190619 159.44693474 310.24163551 C155.82460141 310.24033049 152.20226807 310.23906677 148.57993472 310.23782361 C118.52203508 310.2274544 88.46414333 310.2097648 58.40625 310.1875 C59.17810935 311.80403917 59.95837909 313.41656441 60.7421875 315.02734375 C61.1757959 315.92573975 61.6094043 316.82413574 62.05615234 317.74975586 C64.33939099 321.87238477 67.01649507 323.72424836 71.40625 325.1875 C73.00246874 325.28019571 74.60229746 325.31586633 76.2012043 325.31778526 C77.19439489 325.32140961 78.18758549 325.32503396 79.21087277 325.32876813 C80.85193676 325.32716576 80.85193676 325.32716576 82.52615356 325.32553101 C83.68617917 325.32835229 84.84620477 325.33117357 86.04138267 325.33408034 C89.26668582 325.34098703 92.49195815 325.34345319 95.71726751 325.34413147 C99.19390861 325.34596982 102.67053723 325.35357606 106.14717102 325.36061096 C112.17450937 325.37214282 118.20184492 325.38038403 124.22919083 325.38673019 C133.75892227 325.39705382 143.28861882 325.41761751 152.81832886 325.43984985 C156.07860744 325.44732988 159.33888618 325.45474359 162.59916496 325.46213722 C163.41399876 325.46398779 164.22883255 325.46583835 165.06835828 325.467745 C174.34667556 325.48867782 183.6249967 325.50750249 192.90332031 325.52539062 C193.75158822 325.52702881 194.59985614 325.52866699 195.47382914 325.53035481 C209.21215459 325.55662485 222.95048273 325.57527613 236.68882264 325.59198253 C250.79493744 325.60941309 264.9009996 325.63826992 279.00707233 325.6768719 C287.70648726 325.70025269 296.40581633 325.71426474 305.10526292 325.71619953 C311.07077238 325.71831154 317.03619654 325.7312628 323.00166769 325.75267886 C326.44175598 325.76468707 329.88167496 325.77187319 333.32178307 325.76596642 C337.0561887 325.76207135 340.79009516 325.77652872 344.52444458 325.79550171 C345.60510291 325.78997201 346.68576124 325.78444232 347.7991668 325.77874506 C356.65680677 325.85635931 364.41658419 327.44044144 371.40625 333.1875 C376.9632116 339.18030173 379.8961555 345.51163371 380.78125 353.625 C379.98645509 361.17555161 378.01439495 368.77728957 372.40625 374.1875 C366.51626119 378.35290009 361.40719151 381.27373172 354.10864258 381.39282227 C353.02774857 381.41276749 351.94685455 381.43271271 350.83320618 381.45326233 C349.66750595 381.46997482 348.50180573 381.48668732 347.30078125 381.50390625 C345.50926888 381.5350779 345.50926888 381.5350779 343.68156433 381.56687927 C339.86068557 381.63234276 336.03973724 381.6912451 332.21875 381.75 C329.63085214 381.79318824 327.04296135 381.83680263 324.45507812 381.88085938 C318.10554261 381.98802092 311.75593766 382.0897934 305.40625 382.1875 C305.81762207 382.79513184 306.22899414 383.40276367 306.65283203 384.02880859 C307.19278809 384.83141113 307.73274414 385.63401367 308.2890625 386.4609375 C308.82418457 387.25419434 309.35930664 388.04745117 309.91064453 388.86474609 C315.42748322 397.43268656 315.86864709 407.09974876 313.8203125 417.02734375 C310.5524237 426.51621352 303.2682414 433.83373027 294.44921875 438.34765625 C286.47668628 441.62508356 275.17242658 441.60200454 267.03125 438.75 C257.6131069 434.22357372 251.02222299 426.92539935 247.40625 417.1875 C244.77624815 408.81931229 245.98550566 399.89021321 248.9453125 391.8203125 C250.40625 389.1875 250.40625 389.1875 256.40625 382.1875 C214.82625 382.1875 173.24625 382.1875 130.40625 382.1875 C133.37625 386.1475 133.37625 386.1475 136.40625 390.1875 C140.80258229 399.43495757 141.31035428 408.49552642 138.47265625 418.33203125 C134.92865099 427.82165706 128.01610241 434.73347922 118.90625 439.125 C111.14540063 441.62346257 99.95050131 441.72977102 92.34375 438.5625 C90.3203125 437.44140625 90.3203125 437.44140625 88.40625 436.1875 C87.71273437 435.76339844 87.01921875 435.33929688 86.3046875 434.90234375 C78.04093931 429.34675274 73.86716768 421.87174482 71.8125 412.234375 C70.68232745 403.7580809 72.2415571 395.67169812 76.40625 388.1875 C78.0049571 386.1170127 79.68587996 384.16136828 81.40625 382.1875 C80.42527344 382.16171875 79.44429687 382.1359375 78.43359375 382.109375 C58.63567295 381.37208677 41.3127526 375.58720811 26.40625 362.1875 C25.79523438 361.66929687 25.18421875 361.15109375 24.5546875 360.6171875 C12.62099408 349.77332909 6.33345176 334.41080869 3.95239258 318.78494263 C3.82595021 317.96704573 3.69950785 317.14914883 3.56923389 316.30646718 C1.92230061 305.34701115 0.75069888 294.33050876 -0.45703125 283.31591797 C-0.72806164 280.87450254 -0.99950716 278.43313316 -1.27133179 275.99180603 C-1.85149355 270.77477386 -2.4291608 265.55747201 -3.00473022 260.33993149 C-3.91553697 252.08525538 -4.83476772 243.83152705 -5.75512695 235.57791138 C-6.07114797 232.74288625 -6.38709946 229.90785338 -6.70301819 227.07281685 C-6.82136427 226.01078669 -6.82136427 226.01078669 -6.94210118 224.92730137 C-7.83573995 216.90646662 -8.72728142 208.88539911 -9.61816406 200.86425781 C-9.69941784 200.13270006 -9.78067162 199.4011423 -9.86438763 198.64741613 C-11.184565 186.75988485 -12.50032187 174.87186682 -13.81524956 162.9837539 C-15.16986216 150.73862324 -16.53206887 138.49435185 -17.90057278 126.25076592 C-18.74223206 118.7180174 -19.57759256 111.18462389 -20.40473342 103.65026708 C-21.03842807 97.883217 -21.68236364 92.11734622 -22.33006668 86.35185432 C-22.59350895 83.99199387 -22.85357935 81.63175415 -23.1099968 79.27112007 C-23.46095745 76.04463453 -23.82408337 72.81973764 -24.19018555 69.59494019 C-24.28834722 68.66526991 -24.38650888 67.73559963 -24.48764515 66.77775753 C-25.47287908 58.31145446 -26.75007637 50.83353074 -33.59375 45.1875 C-37.38362156 42.66091896 -40.75067076 42.70718443 -45.15625 42.375 C-56.48233749 41.27925329 -63.40227922 38.26953313 -71 29.56640625 C-75.71960549 22.52170099 -75.40574432 14.34973453 -74.59375 6.1875 C-72.55847679 -0.76332145 -68.66356102 -5.89565613 -62.59375 -9.8125 C-43.41581082 -20.22103964 -16.64701196 -11.63285173 0 0 Z M99.40625 81.1875 C97.6727371 83.13038924 96.20195069 85.00066101 94.71875 87.125 C94.05999878 88.06412231 94.05999878 88.06412231 93.38793945 89.0222168 C82.62569339 104.86463258 75.40625 123.97079863 75.40625 143.1875 C89.59625 143.1875 103.78625 143.1875 118.40625 143.1875 C118.798125 139.206875 119.19 135.22625 119.59375 131.125 C120.86811595 118.95748491 123.06305007 107.19443767 125.99487305 95.32446289 C126.53227309 92.89555286 126.53227309 92.89555286 126.40625 89.1875 C125.85686768 89.01621582 125.30748535 88.84493164 124.74145508 88.66845703 C122.23324195 87.88518583 119.72599297 87.09887088 117.21875 86.3125 C116.35443359 86.04308594 115.49011719 85.77367187 114.59960938 85.49609375 C111.17438626 84.41997001 107.80572283 83.35070252 104.48046875 81.9921875 C102.31090593 81.0066582 102.31090593 81.0066582 99.40625 81.1875 Z M263.7578125 82.68359375 C262.83484375 82.99490234 261.911875 83.30621094 260.9609375 83.62695312 C259.99414062 83.95630859 259.02734375 84.28566406 258.03125 84.625 C256.12806971 85.2709046 254.22443992 85.91548665 252.3203125 86.55859375 C251.4742041 86.84661865 250.6280957 87.13464355 249.75634766 87.43139648 C247.65209582 88.10840334 245.55716031 88.68156768 243.40625 89.1875 C244.36289607 94.04515032 245.33152276 98.89739475 246.40625 103.73046875 C248.666127 114.1103559 250.05983129 124.33580323 250.81054688 134.9362793 C250.87693359 135.86867432 250.94332031 136.80106934 251.01171875 137.76171875 C251.06481201 138.59276123 251.11790527 139.42380371 251.17260742 140.2800293 C251.20842891 142.19497609 251.20842891 142.19497609 252.40625 143.1875 C253.75719982 143.28018999 255.11292091 143.30497326 256.46704102 143.30102539 C257.75826622 143.30091209 257.75826622 143.30091209 259.07557678 143.30079651 C260.47869362 143.29305458 260.47869362 143.29305458 261.91015625 143.28515625 C263.33967873 143.28303383 263.33967873 143.28303383 264.79808044 143.28086853 C267.85500165 143.27525152 270.91185077 143.26269616 273.96875 143.25 C276.03580624 143.24498719 278.10286362 143.24042391 280.16992188 143.23632812 C285.24872588 143.22527656 290.3274757 143.20800055 295.40625 143.1875 C293.10246061 122.74795803 287.06303575 95.2887241 270.40625 81.1875 C267.92534883 81.1875 266.1103101 81.8837805 263.7578125 82.68359375 Z M141.40625 93.1875 C137.11881108 109.91577181 133.40625 125.83882871 133.40625 143.1875 C147.92625 143.1875 162.44625 143.1875 177.40625 143.1875 C177.40625 127.6775 177.40625 112.1675 177.40625 96.1875 C172.58 95.6925 167.75375 95.1975 162.78125 94.6875 C160.51386963 94.45256836 160.51386963 94.45256836 158.20068359 94.21289062 C156.99750488 94.09107422 155.79432617 93.96925781 154.5546875 93.84375 C152.71656494 93.65522461 152.71656494 93.65522461 150.84130859 93.46289062 C147.6768548 93.20919454 144.5788651 93.1365343 141.40625 93.1875 Z M216.13671875 93.84375 C214.26729614 94.02647461 214.26729614 94.02647461 212.36010742 94.21289062 C210.78720947 94.36951172 209.21431152 94.52613281 207.59375 94.6875 C202.581875 95.1825 197.57 95.6775 192.40625 96.1875 C192.40625 111.6975 192.40625 127.2075 192.40625 143.1875 C206.92625 143.1875 221.44625 143.1875 236.40625 143.1875 C236.47560993 131.31300641 236.47560993 131.31300641 235.15625 119.75 C234.95926514 118.56192749 234.95926514 118.56192749 234.75830078 117.34985352 C232.70089479 104.91835007 232.70089479 104.91835007 228.40625 93.1875 C224.2730116 93.10462805 220.24922198 93.43757684 216.13671875 93.84375 Z M36.40625 109.1875 C36.35260613 116.25035603 36.35260613 116.25035603 36.86523438 123.15649414 C36.96533813 124.0167067 37.06544189 124.87691925 37.1685791 125.76319885 C37.277948 126.65731979 37.38731689 127.55144073 37.5 128.47265625 C37.61098022 129.41435165 37.72196045 130.35604706 37.83630371 131.32627869 C38.1880612 134.30145776 38.54703084 137.27571359 38.90625 140.25 C39.14761479 142.28054203 39.3885048 144.31114056 39.62890625 146.34179688 C40.21498877 151.29116271 40.81083936 156.23921228 41.40625 161.1875 C47.67625 161.1875 53.94625 161.1875 60.40625 161.1875 C60.365 158.733125 60.32375 156.27875 60.28125 153.75 C60.22181396 140.44020298 61.85526211 127.93429812 65.6015625 115.1640625 C66.53673642 112.21872938 66.53673642 112.21872938 66.40625 109.1875 C56.50625 109.1875 46.60625 109.1875 36.40625 109.1875 Z M303.40625 109.1875 C303.55247803 109.78175781 303.69870605 110.37601562 303.84936523 110.98828125 C304.51881152 113.72023815 305.18131955 116.45383384 305.84375 119.1875 C306.07384766 120.12207031 306.30394531 121.05664062 306.54101562 122.01953125 C308.81588887 131.44871602 309.59929793 140.51959528 309.96875 150.1875 C310.113125 153.8175 310.2575 157.4475 310.40625 161.1875 C319.64625 161.1875 328.88625 161.1875 338.40625 161.1875 C339.41220033 156.79673211 340.4119236 152.4053963 341.39697266 148.01000977 C341.73303624 146.51866718 342.07248461 145.02808278 342.41552734 143.53833008 C346.17112504 130.00147704 346.17112504 130.00147704 343.65625 116.8125 C339.78801004 112.29955338 336.28188074 110.21030175 330.40625 109.1875 C325.75736529 108.94734972 321.12221028 108.99905482 316.46875 109.0625 C315.21255859 109.07152344 313.95636719 109.08054687 312.66210938 109.08984375 C309.57662478 109.11330751 306.49153795 109.14613799 303.40625 109.1875 Z M75.40625 158.1875 C75.40625 164.47439653 75.56382193 169.39420203 77.03125 175.3125 C77.20946289 176.04186768 77.38767578 176.77123535 77.57128906 177.52270508 C81.78511521 193.98407753 89.40625647 209.19375764 100.40625 222.1875 C103.93729689 221.53916751 107.29033563 220.65753094 110.70703125 219.55859375 C112.17172852 219.08969727 112.17172852 219.08969727 113.66601562 218.61132812 C114.67341797 218.28583984 115.68082031 217.96035156 116.71875 217.625 C117.74548828 217.29564453 118.77222656 216.96628906 119.83007812 216.62695312 C122.35625879 215.81622538 124.88160598 215.00299782 127.40625 214.1875 C127.02533203 212.65996094 127.02533203 212.65996094 126.63671875 211.1015625 C122.32939395 193.52767731 120.13389687 176.32779211 118.40625 158.1875 C104.21625 158.1875 90.02625 158.1875 75.40625 158.1875 Z M133.40625 158.1875 C133.40625 164.92675617 133.68334148 170.91184504 134.59375 177.5 C134.72322021 178.44262695 134.85269043 179.38525391 134.98608398 180.35644531 C135.97717315 187.13859345 137.32049021 193.78539871 138.96875 200.4375 C139.17846436 201.28868408 139.38817871 202.13986816 139.60424805 203.0168457 C140.70184428 207.52712818 140.70184428 207.52712818 143.40625 211.1875 C146.53249749 211.01562835 146.53249749 211.01562835 150.15625 210.375 C156.56039083 209.39842688 162.91025081 208.80323888 169.3828125 208.43359375 C172.75753047 208.21770623 172.75753047 208.21770623 177.40625 207.1875 C177.40625 191.0175 177.40625 174.8475 177.40625 158.1875 C162.88625 158.1875 148.36625 158.1875 133.40625 158.1875 Z M192.40625 158.1875 C192.40625 174.3575 192.40625 190.5275 192.40625 207.1875 C199.08875 207.93 199.08875 207.93 205.90625 208.6875 C207.29521484 208.84412109 208.68417969 209.00074219 210.11523438 209.16210938 C216.24874431 209.8310265 222.23594878 210.37447882 228.40625 210.1875 C231.02744756 200.84236088 233.53327708 191.51441655 235.15625 181.9375 C235.32894409 180.95064209 235.32894409 180.95064209 235.50512695 179.94384766 C236.66482791 172.68410215 236.91173503 165.60522449 237.40625 158.1875 C222.55625 158.1875 207.70625 158.1875 192.40625 158.1875 Z M251.40625 159.1875 C251.23807786 160.59924099 251.12985818 162.01820148 251.046875 163.4375 C249.88623094 180.62724936 247.42017812 197.66010729 242.40625 214.1875 C245.59351615 215.14661222 248.78110514 216.10464725 251.96875 217.0625 C252.86400391 217.33191406 253.75925781 217.60132813 254.68164062 217.87890625 C259.58039499 219.35032697 264.48401752 220.79658108 269.40625 222.1875 C284.70829238 205.73780444 295.56488927 180.8871214 295.40625 158.1875 C289.3007029 158.16285487 283.19518449 158.14466629 277.08959961 158.13256836 C275.01081844 158.12752712 272.93204084 158.12069426 270.85327148 158.11206055 C267.87222414 158.09998578 264.89122351 158.09426976 261.91015625 158.08984375 C260.97474503 158.08468246 260.0393338 158.07952118 259.07557678 158.07420349 C258.21475998 158.07412796 257.35394318 158.07405243 256.46704102 158.07397461 C255.70537125 158.071754 254.94370148 158.06953339 254.15895081 158.06724548 C252.37814395 157.99659045 252.37814395 157.99659045 251.40625 159.1875 Z M43.40625 176.1875 C44.47631878 188.45213446 45.63295192 200.69883432 46.96875 212.9375 C47.09548096 214.12126221 47.22221191 215.30502441 47.3527832 216.5246582 C47.47484131 217.62511475 47.59689941 218.72557129 47.72265625 219.859375 C47.83037354 220.8400293 47.93809082 221.82068359 48.04907227 222.83105469 C48.2844554 225.20067875 48.2844554 225.20067875 49.40625 227.1875 C61.28625 227.1875 73.16625 227.1875 85.40625 227.1875 C83.09625 223.5575 80.78625 219.9275 78.40625 216.1875 C70.80856451 203.46237826 66.45962743 190.37432102 62.40625 176.1875 C56.13625 176.1875 49.86625 176.1875 43.40625 176.1875 Z M308.40625 176.1875 C306.24005189 182.68039781 306.24005189 182.68039781 304.1171875 189.1875 C299.69587782 202.59576447 293.68774757 214.74768086 285.40625 226.1875 C285.40625 226.5175 285.40625 226.8475 285.40625 227.1875 C297.94625 227.1875 310.48625 227.1875 323.40625 227.1875 C325.96362863 216.95798548 328.45787714 206.76753528 330.69873047 196.47338867 C331.16613912 194.32964407 331.63956706 192.18728098 332.11328125 190.04492188 C332.41441843 188.66934871 332.71521346 187.29370057 333.015625 185.91796875 C333.28342773 184.69489014 333.55123047 183.47181152 333.82714844 182.21166992 C334.50028695 179.20960875 334.50028695 179.20960875 334.40625 176.1875 C325.82625 176.1875 317.24625 176.1875 308.40625 176.1875 Z M50.40625 242.1875 C52.38625 259.6775 54.36625 277.1675 56.40625 295.1875 C76.53625 295.1875 96.66625 295.1875 117.40625 295.1875 C117.07625 290.5675 116.74625 285.9475 116.40625 281.1875 C116.31988281 278.92648437 116.23351562 276.66546875 116.14453125 274.3359375 C116.00535828 272.07795356 115.86343692 269.82013732 115.71875 267.5625 C115.6868457 265.87640625 115.6868457 265.87640625 115.65429688 264.15625 C115.10864884 257.05051769 112.91660063 252.28780893 107.84765625 247.3984375 C98.18263205 239.18016623 85.94506404 240.90202994 74.03125 241.4375 C66.235 241.685 58.43875 241.9325 50.40625 242.1875 Z M260.40625 251.1875 C259.74625 251.8475 259.08625 252.5075 258.40625 253.1875 C257.95090358 255.65579938 257.60718938 258.04951324 257.3359375 260.5390625 C257.24998322 261.27192474 257.16402893 262.00478699 257.07546997 262.75985718 C256.89497745 264.31452836 256.71873142 265.86969748 256.54638672 267.42529297 C256.28447066 269.7835022 256.00864439 272.13975337 255.73046875 274.49609375 C255.55645584 276.01032085 255.38325372 277.52464138 255.2109375 279.0390625 C255.12971649 279.7352066 255.04849548 280.43135071 254.96481323 281.14859009 C254.45050764 285.85415911 254.33804698 290.45368086 254.40625 295.1875 C260.38357771 295.28681654 266.3604188 295.35917995 272.33837891 295.40722656 C274.36938857 295.42726836 276.40034106 295.45450947 278.43115234 295.48925781 C281.36049556 295.53810414 284.289072 295.56054343 287.21875 295.578125 C288.11803223 295.59877014 289.01731445 295.61941528 289.94384766 295.64068604 C296.88378848 295.64312327 302.21895138 294.16736244 307.36816406 289.35327148 C311.87817818 282.49619197 313.49290016 275.19917424 315.15625 267.25 C315.44750016 265.92995818 315.74046063 264.61029253 316.03515625 263.29101562 C317.58190602 256.27413939 319.00591226 249.23473582 320.40625 242.1875 C313.62998264 241.95774795 306.85473201 241.80105811 300.07543945 241.69311523 C297.77362543 241.6480829 295.47206554 241.5868344 293.17114258 241.50854492 C274.6081306 240.5092002 274.6081306 240.5092002 260.40625 251.1875 Z M234.15625 265.9375 C204.26922488 279.0707349 170.1207563 278.75718555 139.78125 267.4375 C138.20441877 266.82104978 136.62877618 266.20154495 135.0546875 265.578125 C131.74552125 264.06877942 131.74552125 264.06877942 129.40625 264.1875 C129.52456551 266.35454197 129.65144599 268.52111583 129.78125 270.6875 C129.85085937 271.8940625 129.92046875 273.100625 129.9921875 274.34375 C130.58791975 281.31269332 131.53870645 288.24715158 132.40625 295.1875 C167.71625 295.1875 203.02625 295.1875 239.40625 295.1875 C241.49780072 279.22026312 241.49780072 279.22026312 242.40625 263.1875 C239.31106283 263.1875 236.96240296 264.6665518 234.15625 265.9375 Z M89.828125 395.8828125 C86.94614471 400.55415419 86.04778935 405.14058448 86.6875 410.578125 C88.30919508 416.85152439 91.95814042 420.81214415 97.40625 424.1875 C102.10741578 426.2759825 106.08021436 426.58286828 111.03125 425.1875 C116.36973421 423.0409067 120.67175798 420.21560981 123.57421875 415.1484375 C125.94559571 409.28730494 125.77448874 404.03291466 123.40625 398.1875 C120.115452 392.85351423 116.28989559 389.37012724 110.2421875 387.5859375 C101.79691573 385.75313384 95.06704986 389.32214054 89.828125 395.8828125 Z M266.53125 393.12890625 C262.31955748 398.6263799 260.69442912 403.15988657 261.40625 410.1875 C263.72063493 417.37427426 267.74801791 421.74258862 274.40625 425.1875 C280.52677315 426.29021995 286.03670761 425.9501193 291.40625 422.6875 C296.22438681 418.95366258 298.77575389 414.97711346 299.77734375 408.95703125 C300.09988766 403.27830355 298.68329208 398.81986195 295.40625 394.1875 C291.25944029 389.5980533 286.6569426 387.62092568 280.59375 386.8125 C275.14083846 387.45401901 270.40447193 389.11850771 266.53125 393.12890625 Z " fill="#1F4571" transform="translate(83.59375,62.8125)"/>
<path d="M0 0 C14.60933938 6.34865828 25.86114434 17.05427245 32.0625 31.8125 C36.57986771 43.58772137 37.42788509 55.94929108 38.6423645 68.39831543 C39.13113396 73.40604404 39.64770823 78.41078816 40.16313171 83.41583252 C40.42397074 85.94918621 40.68350445 88.48267463 40.94172668 91.01629639 C42.05294855 101.8798979 43.30571423 112.72247357 44.625 123.5625 C45.03459532 126.95043149 45.44309382 130.33849501 45.8515625 133.7265625 C45.95176697 134.55648712 46.05197144 135.38641174 46.1552124 136.2414856 C47.30706225 145.80258232 48.41077285 155.3690866 49.5 164.9375 C49.60160431 165.82963196 49.70320862 166.72176392 49.80789185 167.64093018 C51.77198644 184.93030705 53.60795164 202.23294895 55.44445801 219.53625488 C57.29889041 236.98242673 59.2438457 254.41442122 61.37890625 271.82861328 C61.57952892 273.46645888 61.78005226 275.10431666 61.98046875 276.7421875 C62.07597015 277.5220401 62.17147156 278.3018927 62.26986694 279.1053772 C62.86319243 284.00562805 63.38585917 288.90738546 63.86328125 293.8203125 C63.98421143 295.01930176 64.1051416 296.21829102 64.22973633 297.45361328 C64.44019946 299.57800932 64.63595917 301.7039584 64.8112793 303.83154297 C65.66789287 312.30291074 68.85502855 320.77279805 75.0625 326.8125 C84.27106341 333.15829759 91.52592984 335.11119032 102.60804749 335.07078552 C103.77754218 335.07446123 104.94703688 335.07813693 106.1519708 335.08192402 C109.38965797 335.09016825 112.62720332 335.08953704 115.86489356 335.08519709 C119.35981684 335.0827174 122.85471183 335.09179349 126.34962463 335.09957886 C132.40311738 335.11161516 138.45658381 335.11673132 144.51008797 335.11746025 C153.26785819 335.11878648 162.02556458 335.13390286 170.78331225 335.15295542 C184.99982072 335.18378711 199.2163308 335.20795817 213.43286133 335.22583008 C214.70877822 335.2274391 214.70877822 335.2274391 216.01047122 335.22908062 C225.50370383 335.2409045 234.99693709 335.25110995 244.49017334 335.25952148 C247.9342855 335.26259552 251.37839764 335.26568429 254.82250977 335.26879883 C256.09732583 335.26994684 256.09732583 335.26994684 257.39789576 335.27111804 C271.56284216 335.28419406 285.72774225 335.30882416 299.89265436 335.34254223 C308.62990622 335.36284225 317.36705909 335.37312025 326.1043347 335.37055302 C332.08846922 335.36951888 338.0725254 335.37913981 344.05663259 335.39719205 C347.51042777 335.40724769 350.96404966 335.4123538 354.41785431 335.40442467 C358.16006028 335.39831663 361.90177321 335.41045522 365.64393616 335.42723083 C366.73809044 335.42101902 367.83224473 335.4148072 368.95955521 335.40840715 C375.7552368 335.46414931 379.34187703 336.23893773 384.375 341 C386.56981757 344.65802928 386.7085254 347.7021634 386.0625 351.8125 C384.54537715 356.45311108 382.55853727 358.6562814 378.26649201 360.98486233 C373.79981152 362.66217923 369.1323845 362.35913148 364.41929626 362.32043457 C362.66717239 362.32979451 362.66717239 362.32979451 360.87965208 362.33934355 C357.65003784 362.3525093 354.42102811 362.34780984 351.19142926 362.33539867 C347.70314883 362.32633259 344.2149489 362.34032607 340.72668457 362.35131836 C333.89621753 362.36909554 327.06592643 362.36526609 320.23545253 362.3536678 C314.67937458 362.3446254 309.12334585 362.34341298 303.56726265 362.34776306 C302.77572452 362.34837599 301.9841864 362.34898893 301.16866227 362.34962043 C299.56045423 362.35089939 297.95224621 362.35219624 296.3440382 362.3535108 C281.26466542 362.36491559 266.18538991 362.35180719 251.10603309 362.33030933 C238.1885598 362.31246266 225.27123042 362.31552254 212.35375977 362.33398438 C197.33831733 362.35543476 182.32296033 362.36379148 167.30750471 362.35153532 C165.70315239 362.3502612 164.09880006 362.34900372 162.49444771 362.34776306 C161.70518295 362.34714596 160.91591818 362.34652886 160.10273631 362.34589306 C154.56180116 362.34245082 149.02092052 362.34824462 143.47999382 362.35768127 C136.71465935 362.36895012 129.9495103 362.36576036 123.18419682 362.3445583 C119.7373316 362.33410929 116.29077445 362.32981912 112.84391212 362.34315491 C90.83790663 362.40775054 72.97000831 360.8986098 56.27734375 345.0234375 C55.54644531 344.29382813 54.81554687 343.56421875 54.0625 342.8125 C53.48628906 342.24789063 52.91007812 341.68328125 52.31640625 341.1015625 C37.33717867 325.14965781 37.08749636 300.31222332 35.0625 279.8125 C34.67630572 276.03161936 34.28591889 272.25118831 33.89498901 268.47079468 C33.63825517 265.98802238 33.38264788 263.50513331 33.12820435 261.02212524 C32.17232916 251.72909169 31.10314636 242.45626867 29.9375 233.1875 C28.40526337 220.92960698 27.07761778 208.659869 25.8109436 196.3722229 C24.6905805 185.52434698 23.47241235 174.69741603 22.125 163.875 C20.31900744 149.35539312 18.76699578 134.81377777 17.24304199 120.26211548 C15.74779143 106.00518528 14.15692581 91.76625666 12.37109375 77.54272461 C11.57010538 71.13522799 10.84689779 64.73737759 10.28125 58.30493164 C9.23811285 46.71749407 6.90353437 37.86447653 -1.9375 29.8125 C-9.97382092 23.70365257 -17.30548307 22.57459794 -27.28125 22.3515625 C-31.49187258 21.73076558 -33.64836968 20.46611989 -36.9375 17.8125 C-39.847872 13.446942 -40.5881249 10.01749921 -39.9375 4.8125 C-32.59560014 -9.87129972 -12.45456747 -4.80480776 0 0 Z " fill="#A2D2FD" transform="translate(62.9375,68.1875)"/>
<path d="M0 0 C1.27713867 0.0163147 1.27713867 0.0163147 2.58007812 0.03295898 C28.05557304 0.6622474 51.16673737 10.84442586 70.3125 27.375 C71.50552734 28.3340625 71.50552734 28.3340625 72.72265625 29.3125 C93.1805498 46.43099096 106.23257032 73.07294566 109.3125 99.375 C109.49175414 102.62619171 109.54237225 105.8693372 109.5625 109.125 C109.583125 109.97449219 109.60375 110.82398437 109.625 111.69921875 C109.63273437 112.92318359 109.63273437 112.92318359 109.640625 114.171875 C109.6499707 114.90760742 109.65931641 115.64333984 109.66894531 116.40136719 C109.21248805 118.9287648 108.30376409 119.80470785 106.3125 121.375 C104.375 121.7734375 104.375 121.7734375 102.3125 121.75 C101.2915625 121.76160156 101.2915625 121.76160156 100.25 121.7734375 C97.69571343 121.24816083 96.93448478 120.40261971 95.3125 118.375 C94.77587891 116.10107422 94.77587891 116.10107422 94.5390625 113.4296875 C94.39005493 111.95085083 94.39005493 111.95085083 94.23803711 110.44213867 C94.13885986 109.38873291 94.03968262 108.33532715 93.9375 107.25 C91.40581245 84.71278674 84.1135846 64.18110058 68.3125 47.375 C67.58289063 46.57835937 66.85328125 45.78171875 66.1015625 44.9609375 C48.15379203 26.13152216 24.55655509 17.83111663 -0.75415039 15.44970703 C-1.74020264 15.35028809 -2.72625488 15.25086914 -3.7421875 15.1484375 C-4.62374512 15.07028809 -5.50530273 14.99213867 -6.41357422 14.91162109 C-9.06097358 14.28686441 -10.03944089 13.50688691 -11.6875 11.375 C-12.0859375 9.4375 -12.0859375 9.4375 -12.0625 7.375 C-12.07023437 6.694375 -12.07796875 6.01375 -12.0859375 5.3125 C-10.82391995 -0.82436966 -5.10712749 -0.08789804 0 0 Z " fill="#1E4470" transform="translate(393.6875,8.625)"/>
<path d="M0 0 C21.79678193 7.93801073 37.92172002 22.87120177 47.73828125 43.82421875 C51.41272427 52.09707613 53.88675428 60.88821937 54.5 69.93359375 C54.56316406 70.69414063 54.62632812 71.4546875 54.69140625 72.23828125 C54.89114284 76.16858187 54.75487939 78.43403015 52.9375 81.99609375 C50.5 83.93359375 50.5 83.93359375 47 84.49609375 C42.82405856 83.8249603 41.97258914 83.30952965 39.5 79.93359375 C38.69341948 76.82418395 38.39479579 73.68631068 38.0625 70.49609375 C35.71257963 52.19863957 28.10989083 36.67230765 13.5 24.93359375 C2.22154874 16.80006325 -10.31879471 12.74436913 -24.12060547 11.79150391 C-27.39444463 11.50478625 -29.28573529 11.09618691 -31.9296875 9.08984375 C-33.5 6.93359375 -33.5 6.93359375 -34.0625 3.43359375 C-33.5 -0.06640625 -33.5 -0.06640625 -31.5625 -2.50390625 C-22.60230247 -7.0754356 -9.24764093 -2.8176406 0 0 Z " fill="#1E4470" transform="translate(415.5,46.06640625)"/>
<path d="M0 0 C12.66834716 3.4590877 22.88325563 11.06054505 29.9921875 22.08984375 C33.47311562 28.22113 36.32758215 35.16032332 35.6171875 42.33984375 C34.28794457 46.89724808 34.28794457 46.89724808 31.7421875 48.33984375 C28.3046875 48.77734375 28.3046875 48.77734375 24.7421875 48.33984375 C20.97120015 45.40685359 20.03608256 42.71417955 18.9296875 38.15234375 C16.50331223 29.77288498 12.82254158 23.84137516 5.1796875 19.40234375 C-0.74677084 16.48900059 -6.49267429 15.02772276 -12.98828125 14 C-15.59375114 13.24212666 -16.64595529 12.50609771 -18.2578125 10.33984375 C-18.7362046 6.58104872 -18.75515948 4.26348815 -16.9453125 0.90234375 C-11.61957827 -2.19401336 -5.84626815 -1.18467544 0 0 Z " fill="#1E4570" transform="translate(400.2578125,76.66015625)"/>
<path d="M0 0 C0 12.21 0 24.42 0 37 C-11.25 37 -11.25 37 -15.5703125 36.34375 C-16.48554688 36.20839844 -17.40078125 36.07304687 -18.34375 35.93359375 C-19.2615625 35.79050781 -20.179375 35.64742187 -21.125 35.5 C-22.08148438 35.35691406 -23.03796875 35.21382812 -24.0234375 35.06640625 C-26.35002216 34.71741855 -28.67539156 34.36187667 -31 34 C-26.87169656 20.62745727 -18.17902024 8.8301831 -5.9375 1.8125 C-2.39575972 0 -2.39575972 0 0 0 Z " fill="#9FCFFA" transform="translate(262,108)"/>
<path d="M0 0 C13.9336644 6.19273973 20.5053315 14.30964106 28 27 C28.57878906 27.92296875 29.15757812 28.8459375 29.75390625 29.796875 C31 32 31 32 31 34 C20.58568269 36.32815078 10.6215932 36.15173705 0 36 C0 24.12 0 12.24 0 0 Z " fill="#A2D2FD" transform="translate(276,108)"/>
<path d="M0 0 C0 11.55 0 23.1 0 35 C-6.00441238 32.99852921 -9.28341732 30.95347086 -14 27 C-14.58910156 26.50757813 -15.17820313 26.01515625 -15.78515625 25.5078125 C-22.16820128 19.66274621 -28.86458225 10.72649638 -30 2 C-27.62623857 1.65472561 -25.25170443 1.32389711 -22.875 1 C-22.22917969 0.90460938 -21.58335937 0.80921875 -20.91796875 0.7109375 C-13.80087353 -0.23800853 -7.39816804 0 0 0 Z " fill="#A0D0FB" transform="translate(262,285)"/>
<path d="M0 0 C7.48608632 0 14.41037974 0.07630629 21.75 1 C22.9565625 1.14308594 22.9565625 1.14308594 24.1875 1.2890625 C26.12575242 1.51980684 28.06300208 1.75895137 30 2 C26.05882253 15.06710784 16.92832785 26.20949297 5.19921875 33.00390625 C3 34 3 34 0 34 C0 22.78 0 11.56 0 0 Z " fill="#A2D2FD" transform="translate(276,285)"/>
<path d="M0 0 C-0.61875 0.64001953 -0.61875 0.64001953 -1.25 1.29296875 C-9.07029507 9.7591364 -14.56927207 19.89571295 -20 30 C-22.56364399 29.37942343 -25.12584926 28.75370801 -27.6875 28.125 C-28.7693457 27.86396484 -28.7693457 27.86396484 -29.87304688 27.59765625 C-33.72028845 26.64902134 -37.35715569 25.59509159 -41 24 C-37.6357128 15.14872058 -23.39343835 7.91907183 -15.13916016 4.15039062 C-13.10279761 3.26104646 -11.05680259 2.40344185 -9 1.5625 C-8.3402417 1.29091064 -7.6804834 1.01932129 -7.00073242 0.73950195 C-2.24839351 -1.12419675 -2.24839351 -1.12419675 0 0 Z " fill="#9FCFFA" transform="translate(236,109)"/>
<path d="M0 0 C5.06067732 0.55620447 9.14547913 2.26093064 13.625 4.5625 C14.32286621 4.91675049 15.02073242 5.27100098 15.73974609 5.63598633 C24.45894233 10.15310023 32.64762572 15.4645562 40 22 C37.25393412 25.65784557 33.18791197 26.45422699 29 27.6875 C28.27554687 27.91244141 27.55109375 28.13738281 26.8046875 28.36914062 C23.77637134 29.28825134 21.1814173 30 18 30 C17.18208984 28.36804688 17.18208984 28.36804688 16.34765625 26.703125 C12.04440162 18.26786083 7.54921863 10.5439742 1.65234375 3.125 C0 1 0 1 0 0 Z " fill="#A0D0FB" transform="translate(303,109)"/>
<path d="M0 0 C0.47308594 0.94359375 0.94617188 1.8871875 1.43359375 2.859375 C5.9151093 11.62068059 10.899271 19.25384617 17 27 C17.66 27.99 18.32 28.98 19 30 C4.99029679 27.00529686 -9.46169422 18.64719904 -20 9 C-20.33 8.01 -20.66 7.02 -21 6 C-18.58394775 5.18563413 -16.16720002 4.37344603 -13.75 3.5625 C-13.06808594 3.33240234 -12.38617188 3.10230469 -11.68359375 2.86523438 C-3.12941576 0 -3.12941576 0 0 0 Z " fill="#9FCEF9" transform="translate(217,290)"/>
<path d="M0 0 C7.85131668 0.34740339 14.64925625 2.28451906 22 5 C22 5.66 22 6.32 22 7 C19.87336675 8.81497148 17.75447738 10.48080311 15.5 12.125 C14.830896 12.61347412 14.16179199 13.10194824 13.47241211 13.60522461 C8.69366083 16.99926511 3.79922711 19.93291489 -1.4375 22.5625 C-2.07429688 22.88428223 -2.71109375 23.20606445 -3.3671875 23.53759766 C-7.81754703 25.67835012 -12.18073483 26.9272732 -17 28 C-15.48459228 24.66917998 -13.53306114 21.96362605 -11.3125 19.0625 C-6.84336098 13.0164984 -3.40220221 6.68745371 0 0 Z " fill="#A0D0FB" transform="translate(320,291)"/>
</svg>
