<svg xmlns="http://www.w3.org/2000/svg" xmlns:xlink="http://www.w3.org/1999/xlink" width="500" zoomAndPan="magnify" viewBox="0 0 375 374.999991" height="500" preserveAspectRatio="xMidYMid meet" version="1.2"><defs><clipPath id="4727044684"><path d="M 213.183594 119.257812 L 375 119.257812 L 375 241.722656 L 213.183594 241.722656 Z M 213.183594 119.257812 "/></clipPath><clipPath id="8162a674bc"><path d="M 153.59375 199 L 266.898438 199 L 266.898438 375 L 153.59375 375 Z M 153.59375 199 "/></clipPath></defs><g id="147fc3a38e"><path style=" stroke:none;fill-rule:nonzero;fill:#7b3299;fill-opacity:1;" d="M 175.300781 239.535156 C 124.578125 272.085938 130.1875 184.195312 64.390625 192.75 C 22.605469 198.179688 27.925781 234.296875 27.925781 234.296875 C 36.488281 195.898438 106.960938 197.527344 99.265625 243.46875 C 95.917969 237.300781 88.140625 232.675781 78.785156 232.078125 C 65.898438 231.253906 54.953125 238.386719 54.339844 248.007812 C 53.726562 257.628906 63.675781 266.09375 76.566406 266.914062 C 81.898438 267.25 86.878906 266.214844 90.953125 264.222656 C 65.5625 300.054688 0 272.238281 0 272.238281 C 123.316406 347.679688 175.300781 239.535156 175.300781 239.535156 "/><path style=" stroke:none;fill-rule:nonzero;fill:#f04428;fill-opacity:1;" d="M 119.265625 196.226562 C 72.621094 158.074219 157.988281 136.242188 129.519531 76.347656 C 111.4375 38.3125 78.710938 54.53125 78.710938 54.53125 C 117.898438 50.800781 138.125 118.292969 92.027344 125.171875 C 96.863281 120.085938 98.863281 111.261719 96.539062 102.1875 C 93.339844 89.683594 83.167969 81.484375 73.824219 83.871094 C 64.480469 86.261719 59.5 98.335938 62.703125 110.839844 C 64.027344 116.011719 66.554688 120.429688 69.710938 123.679688 C 27.765625 110.625 33.976562 39.710938 33.976562 39.710938 C 0.292969 180.234375 119.265625 196.226562 119.265625 196.226562 "/><path style=" stroke:none;fill-rule:nonzero;fill:#51ace4;fill-opacity:1;" d="M 143.167969 129.582031 C 165.058594 73.453125 212.210938 147.855469 260.410156 102.28125 C 291.019531 73.34375 265.476562 47.25 265.476562 47.25 C 281.128906 83.347656 223.15625 123.421875 202.363281 81.738281 C 208.699219 84.757812 217.714844 83.933594 225.632812 78.921875 C 236.542969 72.015625 241.199219 59.8125 236.039062 51.671875 C 230.878906 43.53125 217.851562 42.527344 206.941406 49.433594 C 202.429688 52.292969 199.007812 56.054688 196.886719 60.0625 C 196.351562 16.160156 265.753906 0.152344 265.753906 0.152344 C 121.617188 11.558594 143.167969 129.582031 143.167969 129.582031 "/><g clip-rule="nonzero" clip-path="url(#4727044684)"><path style=" stroke:none;fill-rule:nonzero;fill:#ef9c13;fill-opacity:1;" d="M 213.96875 131.707031 C 274.148438 135.167969 217.917969 202.976562 276.179688 234.707031 C 313.175781 254.859375 330.113281 222.515625 330.113281 222.515625 C 300.605469 248.550781 244.546875 205.832031 277.792969 173.191406 C 276.875 180.144531 280.449219 188.457031 287.660156 194.433594 C 297.609375 202.671875 310.65625 203.328125 316.808594 195.90625 C 322.964844 188.484375 319.890625 175.792969 309.949219 167.554688 C 305.832031 164.152344 301.191406 162.058594 296.726562 161.285156 C 338.335938 147.207031 375.019531 208.226562 375.019531 208.226562 C 319.625 74.753906 213.96875 131.707031 213.96875 131.707031 "/></g><g clip-rule="nonzero" clip-path="url(#8162a674bc)"><path style=" stroke:none;fill-rule:nonzero;fill:#7fcb2d;fill-opacity:1;" d="M 233.828125 199.660156 C 249.128906 257.929688 167.222656 225.4375 155.03125 290.621094 C 147.289062 332.011719 183.300781 338.117188 183.300781 338.117188 C 149.40625 318.113281 172.738281 251.632812 214.074219 273.144531 C 207.171875 274.417969 200.363281 280.382812 196.90625 289.089844 C 192.144531 301.085938 195.546875 313.695312 204.515625 317.25 C 213.476562 320.804688 224.609375 313.960938 229.371094 301.96875 C 231.34375 297.003906 231.894531 291.945312 231.253906 287.457031 C 257.507812 322.660156 210.78125 376.386719 210.78125 376.386719 C 320.675781 282.484375 233.828125 199.660156 233.828125 199.660156 "/></g></g></svg>