<?xml version="1.0" encoding="UTF-8"?>
<svg version="1.1" xmlns="http://www.w3.org/2000/svg" width="512" height="512">
<path d="M0 0 C0.99868909 -0.00297112 1.99737819 -0.00594224 3.02633059 -0.0090034 C6.35908455 -0.01764635 9.69180239 -0.01919493 13.02456665 -0.02069092 C15.42015662 -0.02532233 17.81574585 -0.03034742 20.21133423 -0.03573608 C26.71186048 -0.04883371 33.21237985 -0.05533771 39.71291685 -0.05974674 C43.78023756 -0.06251761 47.84755591 -0.06675656 51.91487503 -0.07125092 C63.19913521 -0.08343966 74.48339352 -0.09373856 85.76766014 -0.09712601 C86.48888342 -0.09734557 87.2101067 -0.09756514 87.95318524 -0.09779136 C88.67603937 -0.09800964 89.39889351 -0.09822791 90.14365232 -0.09845281 C91.60818887 -0.09889626 93.07272542 -0.09934282 94.53726196 -0.09979248 C95.2637076 -0.10001391 95.99015323 -0.10023534 96.73861237 -0.10046348 C108.48858398 -0.10440477 120.23849332 -0.12184006 131.98844092 -0.145152 C144.08217627 -0.16895013 156.17588049 -0.18133175 168.26963961 -0.18249393 C175.04751456 -0.18340615 181.82530843 -0.18904286 188.60316086 -0.20731354 C194.98736375 -0.22388814 201.37141365 -0.2259044 207.75563049 -0.21717453 C210.08628883 -0.21640908 212.41695571 -0.22068117 214.74759293 -0.23063278 C258.07962913 -0.40465983 296.27158717 14.14096113 327.37026978 44.66778564 C335.82133285 53.25263113 342.72223089 62.77794547 348.81997681 73.14044189 C349.16657349 73.72519287 349.51317017 74.30994385 349.87026978 74.91241455 C362.01010239 95.68527045 368.98307225 119.22610484 368.9604187 143.32046509 C368.96487538 144.81849873 368.96487538 144.81849873 368.9694221 146.34679568 C368.97806505 149.67954963 368.97961363 153.01226748 368.98110962 156.34503174 C368.98574103 158.7406217 368.99076612 161.13621093 368.99615479 163.53179932 C369.00925242 170.03232557 369.01575642 176.53284494 369.02016544 183.03338194 C369.02293631 187.10070264 369.02717527 191.168021 369.03166962 195.23534012 C369.04385836 206.5196003 369.05415726 217.80385861 369.05754471 229.08812523 C369.05776427 229.80934851 369.05798384 230.53057179 369.05821006 231.27365033 C369.05842834 231.99650446 369.05864662 232.7193586 369.05887151 233.46411741 C369.05931496 234.92865396 369.05976152 236.3931905 369.06021118 237.85772705 C369.06043261 238.58417268 369.06065404 239.31061832 369.06088218 240.05907746 C369.06482347 251.80904907 369.08225876 263.55895841 369.1055707 275.308906 C369.12936883 287.40264135 369.14175045 299.49634558 369.14291263 311.5901047 C369.14382485 318.36797965 369.14946156 325.14577352 369.16773224 331.92362595 C369.18430684 338.30782883 369.1863231 344.69187874 369.17759323 351.07609558 C369.17682778 353.40675392 369.18109987 355.7374208 369.19105148 358.06805801 C369.36507853 401.40009422 354.81945758 439.59205226 324.29263306 470.69073486 C315.70778757 479.14179794 306.18247323 486.04269597 295.81997681 492.14044189 C295.23522583 492.48703857 294.65047485 492.83363525 294.04800415 493.19073486 C273.27514825 505.33056748 249.73431386 512.30353734 225.63995361 512.28088379 C224.64126452 512.28385491 223.64257542 512.28682603 222.61362302 512.28988719 C219.28086907 512.29853014 215.94815122 512.30007872 212.61538696 512.30157471 C210.219797 512.30620611 207.82420777 512.31123121 205.42861938 512.31661987 C198.92809313 512.3297175 192.42757376 512.3362215 185.92703676 512.34063053 C181.85971606 512.3434014 177.7923977 512.34764035 173.72507858 512.3521347 C162.4408184 512.36432345 151.15656009 512.37462235 139.87229347 512.3780098 C138.79045855 512.37833915 138.79045855 512.37833915 137.68676838 512.37867515 C136.96391424 512.37889343 136.2410601 512.3791117 135.49630129 512.3793366 C134.03176474 512.37978005 132.5672282 512.38022661 131.10269165 512.38067627 C130.37624602 512.3808977 129.64980038 512.38111913 128.90134124 512.38134727 C117.15136963 512.38528855 105.40146029 512.40272385 93.6515127 512.42603579 C81.55777735 512.44983392 69.46407312 512.46221554 57.370314 512.46337771 C50.59243905 512.46428994 43.81464518 512.46992664 37.03679276 512.48819733 C30.65258987 512.50477193 24.26853996 512.50678819 17.88432312 512.49805832 C15.55366478 512.49729287 13.2229979 512.50156496 10.89236069 512.51151657 C-32.43967552 512.68554362 -70.63163355 498.13992266 -101.73031616 467.61309814 C-110.18137924 459.02825266 -117.08227727 449.50293832 -123.18002319 439.14044189 C-123.52661987 438.55569092 -123.87321655 437.97093994 -124.23031616 437.36846924 C-139.15366328 411.83265263 -143.96888288 384.22270078 -143.82699585 354.93341064 C-143.83379502 352.5269607 -143.84271086 350.12051597 -143.85354614 347.71408081 C-143.87607264 341.2594098 -143.86761464 334.80514453 -143.85165071 328.35046768 C-143.84267249 324.30057544 -143.84447118 320.25073325 -143.84910202 316.20083618 C-143.84986819 315.52315191 -143.85063435 314.84546765 -143.85142373 314.14724749 C-143.85302277 312.7694531 -143.85464384 311.39165874 -143.85628669 310.0138644 C-143.87045789 297.17115175 -143.8542884 284.32861914 -143.82728486 271.48593605 C-143.80495393 260.5272569 -143.80883651 249.56884283 -143.83187866 238.61016846 C-143.85879081 225.80542442 -143.86908541 213.00083715 -143.85381734 200.19606876 C-143.85222502 198.82406174 -143.85065316 197.45205468 -143.84910202 196.08004761 C-143.84833064 195.40544076 -143.84755927 194.73083391 -143.84676451 194.03578442 C-143.84249339 189.33985864 -143.8498857 184.64406472 -143.86149979 179.94815063 C-143.87611257 173.59803788 -143.86562045 167.2484178 -143.8370285 160.89835739 C-143.83050645 158.58998806 -143.83215941 156.2815761 -143.84334183 153.97322464 C-144.02984188 111.50758545 -129.37532516 73.193066 -99.75082397 42.66778564 C-73.70742027 16.77431011 -36.88675524 -0.03468097 0 0 Z " fill="#3C8EE7" transform="translate(143.18002319335938,-0.14044189453125)"/>
<path d="M0 0 C17.07253637 14.97993849 30.05929942 37.49020967 32.27490234 60.40576172 C32.98492619 72.48412247 33.32826433 85.74141133 26.23828125 96.1484375 C24.72519919 98.44044816 24.72519919 98.44044816 25.53125 100.625 C30.63581032 107.35867532 38.69272965 112.92777724 47 114.5625 C57.58657414 115.53795033 69.01593605 115.57408791 79 111.5625 C80.19012695 111.19125 81.38025391 110.82 82.60644531 110.4375 C84.57550343 109.41850064 84.57550343 109.41850064 86 107.5625 C87.103618 102.57978684 86.95493405 97.59045174 86.90234375 92.515625 C86.91172939 91.01916331 86.92418754 89.522718 86.93959045 88.02630615 C86.97182808 84.09356032 86.9623709 80.16198005 86.94421387 76.22918701 C86.93305877 72.2138593 86.9613564 68.19883056 86.98632812 64.18359375 C87.02948631 56.30965279 87.02859681 48.43650575 87 40.5625 C85.94087402 40.58868408 84.88174805 40.61486816 83.79052734 40.6418457 C79.84347845 40.73266552 75.896521 40.78986342 71.94873047 40.8371582 C70.24349411 40.86223045 68.53836446 40.89629764 66.83349609 40.93969727 C64.37570826 41.00067566 61.91934639 41.02878112 59.4609375 41.05078125 C58.32620499 41.08949089 58.32620499 41.08949089 57.16854858 41.12898254 C53.04896683 41.13114247 51.28382394 40.74602431 47.71289062 38.43701172 C43.49091639 33.96351238 40.91458861 28.76983042 38.13867188 23.34448242 C37.12981571 21.38435653 36.08629346 19.44569495 35.0390625 17.50585938 C31.48373162 10.7482911 28.31493854 4.39910972 30 -3.4375 C32.12741698 -7.08450054 34.1352938 -8.86773707 38 -10.4375 C40.50568962 -10.69476891 40.50568962 -10.69476891 43.37594604 -10.70492554 C44.46661377 -10.71345551 45.55728149 -10.72198547 46.68099976 -10.73077393 C48.46868271 -10.72941437 48.46868271 -10.72941437 50.29248047 -10.72802734 C52.18084625 -10.73810318 52.18084625 -10.73810318 54.10736084 -10.74838257 C57.55784949 -10.76603899 61.00823891 -10.77073779 64.45876837 -10.77201414 C66.61570229 -10.77343652 68.77261106 -10.77770776 70.92953873 -10.78300858 C78.45776214 -10.80150776 85.98591476 -10.80967934 93.51416016 -10.80810547 C100.5261044 -10.80690413 107.53774081 -10.82800498 114.54960716 -10.8595928 C120.57437487 -10.8857644 126.59904209 -10.8964724 132.6238662 -10.89519465 C136.22015783 -10.89468526 139.81617585 -10.90035503 143.41241074 -10.92155075 C147.42473059 -10.94455353 151.43636284 -10.93540697 155.44873047 -10.92333984 C156.63647064 -10.93457886 157.82421082 -10.94581787 159.04794312 -10.95739746 C165.31620803 -10.90943251 169.29363354 -10.75903183 174 -6.4375 C176.67354131 -2.63682159 178.7478498 1.46404449 180.86132812 5.59521484 C181.86597899 7.54499246 182.91107903 9.46880494 183.9609375 11.39453125 C187.96636058 18.9740859 190.55108557 25.82203094 189 34.5625 C186.90784488 38.24180728 185.98851981 39.2329934 182 40.5625 C180.66471193 40.64794291 179.32556112 40.68024625 177.98754883 40.67602539 C177.18694534 40.67594986 176.38634186 40.67587433 175.56147766 40.67579651 C174.70201035 40.67063522 173.84254303 40.66547394 172.95703125 40.66015625 C172.0734343 40.6587413 171.18983734 40.65732635 170.27946472 40.65586853 C167.45710872 40.65027069 164.63483203 40.63771861 161.8125 40.625 C159.89908969 40.61998472 157.98567813 40.61542186 156.07226562 40.61132812 C151.38147986 40.60030197 146.69075337 40.58303883 142 40.5625 C142.00460896 41.69171214 142.00921793 42.82092428 142.01396656 43.98435497 C142.12489127 71.44177189 142.20709398 98.89915981 142.25906086 126.35675335 C142.28485868 139.63497053 142.32003961 152.91303983 142.37719727 166.19116211 C142.42698361 177.76237819 142.45927952 189.33348718 142.47044247 200.90480739 C142.47696924 207.03358863 142.49234225 213.1620635 142.52865028 219.29074669 C142.56253408 225.05682684 142.5730682 230.82247378 142.56553841 236.58864403 C142.56691635 238.70708061 142.57689382 240.82553136 142.59602737 242.94388199 C142.62084602 245.83284897 142.6149458 248.72017292 142.60127258 251.60917664 C142.61583679 252.45062105 142.630401 253.29206547 142.64540654 254.1590082 C142.58992858 258.48513771 142.39834397 260.067648 139.58742046 263.55958271 C135.70198683 266.56728954 133.29024962 266.96101558 128.46972656 266.89746094 C124.12979788 266.3088506 120.95704428 264.08907975 117.375 261.6875 C116.60446289 261.1929834 115.83392578 260.6984668 115.04003906 260.18896484 C112.67985887 258.66644006 110.33965614 257.116325 108 255.5625 C106.57113377 254.63415139 105.14148044 253.70701279 103.7109375 252.78125 C87.55702756 242.23358269 87.55702756 242.23358269 86 237.5625 C85.91001937 235.24728845 85.88243106 232.92950474 85.88647461 230.61254883 C85.88632858 229.90985367 85.88618256 229.20715851 85.8860321 228.48316956 C85.88672843 226.16192532 85.89450774 223.84076146 85.90234375 221.51953125 C85.90420892 219.9095616 85.90563236 218.29959139 85.90663147 216.68962097 C85.91044882 212.45307853 85.92027245 208.2165704 85.93133545 203.9800415 C85.94156636 199.65662093 85.94613269 195.33319481 85.95117188 191.00976562 C85.96189541 182.52732801 85.97896247 174.04491827 86 165.5625 C84.77444901 165.57269669 84.77444901 165.57269669 83.5241394 165.58309937 C82.44866852 165.58838654 81.37319763 165.59367371 80.26513672 165.59912109 C79.20060272 165.60591888 78.13606873 165.61271667 77.03927612 165.61972046 C73.21717265 165.54776171 69.86083682 164.99893982 66.125 164.1875 C64.91070312 163.93226563 63.69640625 163.67703125 62.4453125 163.4140625 C59.2249404 162.61809751 56.12801925 161.66256793 53 160.5625 C53.03480469 161.19414062 53.06960938 161.82578125 53.10546875 162.4765625 C53.62643576 179.69328183 47.82432417 195.03329746 36.81640625 208.16796875 C27.1374778 218.4190506 15.44514183 225.41615241 2 229.5625 C1.07525879 229.85447266 1.07525879 229.85447266 0.13183594 230.15234375 C-22.76469344 237.16218666 -49.38363687 235.05065019 -70.625 223.78491211 C-80.77569157 218.04056765 -89.54078598 210.53090638 -98 202.5625 C-98.65226562 201.9746875 -99.30453125 201.386875 -99.9765625 200.78125 C-114.92022316 186.76003753 -125.49969019 167.57552108 -135.875 150.125 C-136.4105249 149.22571777 -136.9460498 148.32643555 -137.49780273 147.39990234 C-147.48516883 130.42592183 -147.48516883 130.42592183 -147.76171875 122.66796875 C-145.69152569 116.94574279 -138.04257831 113.59829846 -133 110.75 C-132.31421875 110.34330078 -131.6284375 109.93660156 -130.921875 109.51757812 C-126.86801991 107.21600964 -123.76356172 105.6110821 -119 106.5625 C-112.36297568 110.49686422 -109.43598176 117.22388211 -105.8125 123.8125 C-104.49011201 126.16676313 -103.15751157 128.51518048 -101.82421875 130.86328125 C-101.17501465 132.00877441 -100.52581055 133.15426758 -99.85693359 134.33447266 C-88.36542142 154.31090889 -75.42719668 173.91935754 -52.67578125 181.69921875 C-40.27731952 184.61107852 -26.58067388 183.23007968 -15.37890625 177.13671875 C-6.81501279 171.69463867 0.30330578 164.51030536 3 154.5625 C3.96343283 144.72713853 3.96343283 144.72713853 1.4375 135.375 C-3.29815568 129.91078191 -8.61964497 127.84213146 -15.73046875 127.25390625 C-29.64290958 126.70282496 -40.23594454 130.51335265 -52.75878906 136.13354492 C-63.37923602 140.86732021 -63.37923602 140.86732021 -69 139.5625 C-74.82834098 134.60220981 -78.05644096 127.3625647 -81.67578125 120.71484375 C-83.14708419 118.03574556 -84.68505539 115.43853424 -86.35546875 112.87890625 C-86.72687988 112.30672363 -87.09829102 111.73454102 -87.48095703 111.14501953 C-88.49795073 109.598179 -89.53163804 108.06235078 -90.56640625 106.52734375 C-92.33941159 102.86055614 -92.54422268 100.59157715 -92 96.5625 C-89.31547874 91.87987937 -85.43041777 89.85890459 -80.6875 87.625 C-79.98761963 87.28581543 -79.28773926 86.94663086 -78.56665039 86.59716797 C-66.98128391 81.06769989 -55.27498064 75.69718647 -42.32226562 75.08398438 C-32.36096812 74.82114061 -32.36096812 74.82114061 -24 70.0625 C-22.3373273 67.9122437 -22.3373273 67.9122437 -21 65.5625 C-20.484375 64.81742187 -19.96875 64.07234375 -19.4375 63.3046875 C-15.3194612 56.52335187 -14.74521784 49.32646461 -16 41.5625 C-17.67825863 38.45278547 -19.85200632 37.13649684 -23 35.5625 C-35.11090103 34.80788819 -45.4355942 35.74306322 -57 39.5625 C-58.0003125 39.85125 -59.000625 40.14 -60.03125 40.4375 C-69.61572564 43.32314858 -78.30129638 48.0615661 -87.13623047 52.67895508 C-87.83635254 53.03884521 -88.53647461 53.39873535 -89.2578125 53.76953125 C-89.8883252 54.09671143 -90.51883789 54.4238916 -91.16845703 54.76098633 C-94.40942063 56.17928591 -96.55279341 56.26470875 -100 55.5625 C-105.69380284 49.89381688 -109.65483561 43.01430326 -113.71582031 36.13867188 C-114.87515248 34.18724334 -116.06193689 32.25434593 -117.25 30.3203125 C-124.58914842 18.1147387 -124.58914842 18.1147387 -123 10.5625 C-119.55038885 5.67612928 -114.28376572 3.23961933 -109.0625 0.5625 C-108.2178418 0.12534668 -107.37318359 -0.31180664 -106.50292969 -0.76220703 C-94.84544754 -6.67929583 -82.70809262 -10.40710868 -70 -13.4375 C-69.07445312 -13.66566406 -68.14890625 -13.89382812 -67.1953125 -14.12890625 C-43.42401585 -19.05542135 -19.17922196 -15.16805504 0 0 Z " fill="#3F90E8" transform="translate(235,130.4375)"/>
<path d="M0 0 C17.07253637 14.97993849 30.05929942 37.49020967 32.27490234 60.40576172 C32.98492619 72.48412247 33.32826433 85.74141133 26.23828125 96.1484375 C24.72519919 98.44044816 24.72519919 98.44044816 25.53125 100.625 C30.63581032 107.35867532 38.69272965 112.92777724 47 114.5625 C57.58657414 115.53795033 69.01593605 115.57408791 79 111.5625 C80.19012695 111.19125 81.38025391 110.82 82.60644531 110.4375 C84.57550343 109.41850064 84.57550343 109.41850064 86 107.5625 C87.103618 102.57978684 86.95493405 97.59045174 86.90234375 92.515625 C86.91172939 91.01916331 86.92418754 89.522718 86.93959045 88.02630615 C86.97182808 84.09356032 86.9623709 80.16198005 86.94421387 76.22918701 C86.93305877 72.2138593 86.9613564 68.19883056 86.98632812 64.18359375 C87.02948631 56.30965279 87.02859681 48.43650575 87 40.5625 C85.94087402 40.58868408 84.88174805 40.61486816 83.79052734 40.6418457 C79.84347845 40.73266552 75.896521 40.78986342 71.94873047 40.8371582 C70.24349411 40.86223045 68.53836446 40.89629764 66.83349609 40.93969727 C64.37570826 41.00067566 61.91934639 41.02878112 59.4609375 41.05078125 C58.32620499 41.08949089 58.32620499 41.08949089 57.16854858 41.12898254 C53.04896683 41.13114247 51.28382394 40.74602431 47.71289062 38.43701172 C43.49091639 33.96351238 40.91458861 28.76983042 38.13867188 23.34448242 C37.12981571 21.38435653 36.08629346 19.44569495 35.0390625 17.50585938 C31.48373162 10.7482911 28.31493854 4.39910972 30 -3.4375 C32.12741698 -7.08450054 34.1352938 -8.86773707 38 -10.4375 C40.50568962 -10.69476891 40.50568962 -10.69476891 43.37594604 -10.70492554 C44.46661377 -10.71345551 45.55728149 -10.72198547 46.68099976 -10.73077393 C48.46868271 -10.72941437 48.46868271 -10.72941437 50.29248047 -10.72802734 C52.18084625 -10.73810318 52.18084625 -10.73810318 54.10736084 -10.74838257 C57.55784949 -10.76603899 61.00823891 -10.77073779 64.45876837 -10.77201414 C66.61570229 -10.77343652 68.77261106 -10.77770776 70.92953873 -10.78300858 C78.45776214 -10.80150776 85.98591476 -10.80967934 93.51416016 -10.80810547 C100.5261044 -10.80690413 107.53774081 -10.82800498 114.54960716 -10.8595928 C120.57437487 -10.8857644 126.59904209 -10.8964724 132.6238662 -10.89519465 C136.22015783 -10.89468526 139.81617585 -10.90035503 143.41241074 -10.92155075 C147.42473059 -10.94455353 151.43636284 -10.93540697 155.44873047 -10.92333984 C156.63647064 -10.93457886 157.82421082 -10.94581787 159.04794312 -10.95739746 C165.31620803 -10.90943251 169.29363354 -10.75903183 174 -6.4375 C176.67354131 -2.63682159 178.7478498 1.46404449 180.86132812 5.59521484 C181.86597899 7.54499246 182.91107903 9.46880494 183.9609375 11.39453125 C187.96636058 18.9740859 190.55108557 25.82203094 189 34.5625 C186.90784488 38.24180728 185.98851981 39.2329934 182 40.5625 C180.66471193 40.64794291 179.32556112 40.68024625 177.98754883 40.67602539 C177.18694534 40.67594986 176.38634186 40.67587433 175.56147766 40.67579651 C174.70201035 40.67063522 173.84254303 40.66547394 172.95703125 40.66015625 C172.0734343 40.6587413 171.18983734 40.65732635 170.27946472 40.65586853 C167.45710872 40.65027069 164.63483203 40.63771861 161.8125 40.625 C159.89908969 40.61998472 157.98567813 40.61542186 156.07226562 40.61132812 C151.38147986 40.60030197 146.69075337 40.58303883 142 40.5625 C142.00460896 41.69171214 142.00921793 42.82092428 142.01396656 43.98435497 C142.12489127 71.44177189 142.20709398 98.89915981 142.25906086 126.35675335 C142.28485868 139.63497053 142.32003961 152.91303983 142.37719727 166.19116211 C142.42698361 177.76237819 142.45927952 189.33348718 142.47044247 200.90480739 C142.47696924 207.03358863 142.49234225 213.1620635 142.52865028 219.29074669 C142.56253408 225.05682684 142.5730682 230.82247378 142.56553841 236.58864403 C142.56691635 238.70708061 142.57689382 240.82553136 142.59602737 242.94388199 C142.62084602 245.83284897 142.6149458 248.72017292 142.60127258 251.60917664 C142.61583679 252.45062105 142.630401 253.29206547 142.64540654 254.1590082 C142.58992858 258.48513771 142.39834397 260.067648 139.58742046 263.55958271 C135.70198683 266.56728954 133.29024962 266.96101558 128.46972656 266.89746094 C124.12979788 266.3088506 120.95704428 264.08907975 117.375 261.6875 C116.60446289 261.1929834 115.83392578 260.6984668 115.04003906 260.18896484 C112.67985887 258.66644006 110.33965614 257.116325 108 255.5625 C106.57113377 254.63415139 105.14148044 253.70701279 103.7109375 252.78125 C87.55702756 242.23358269 87.55702756 242.23358269 86 237.5625 C85.91001937 235.24728845 85.88243106 232.92950474 85.88647461 230.61254883 C85.88632858 229.90985367 85.88618256 229.20715851 85.8860321 228.48316956 C85.88672843 226.16192532 85.89450774 223.84076146 85.90234375 221.51953125 C85.90420892 219.9095616 85.90563236 218.29959139 85.90663147 216.68962097 C85.91044882 212.45307853 85.92027245 208.2165704 85.93133545 203.9800415 C85.94156636 199.65662093 85.94613269 195.33319481 85.95117188 191.00976562 C85.96189541 182.52732801 85.97896247 174.04491827 86 165.5625 C84.77444901 165.57269669 84.77444901 165.57269669 83.5241394 165.58309937 C82.44866852 165.58838654 81.37319763 165.59367371 80.26513672 165.59912109 C79.20060272 165.60591888 78.13606873 165.61271667 77.03927612 165.61972046 C73.21717265 165.54776171 69.86083682 164.99893982 66.125 164.1875 C64.91070312 163.93226563 63.69640625 163.67703125 62.4453125 163.4140625 C59.2249404 162.61809751 56.12801925 161.66256793 53 160.5625 C53.03480469 161.19414062 53.06960938 161.82578125 53.10546875 162.4765625 C53.62643576 179.69328183 47.82432417 195.03329746 36.81640625 208.16796875 C27.1374778 218.4190506 15.44514183 225.41615241 2 229.5625 C1.07525879 229.85447266 1.07525879 229.85447266 0.13183594 230.15234375 C-22.76469344 237.16218666 -49.38363687 235.05065019 -70.625 223.78491211 C-80.77569157 218.04056765 -89.54078598 210.53090638 -98 202.5625 C-98.65226562 201.9746875 -99.30453125 201.386875 -99.9765625 200.78125 C-114.92022316 186.76003753 -125.49969019 167.57552108 -135.875 150.125 C-136.4105249 149.22571777 -136.9460498 148.32643555 -137.49780273 147.39990234 C-147.48516883 130.42592183 -147.48516883 130.42592183 -147.76171875 122.66796875 C-145.69152569 116.94574279 -138.04257831 113.59829846 -133 110.75 C-132.31421875 110.34330078 -131.6284375 109.93660156 -130.921875 109.51757812 C-126.86801991 107.21600964 -123.76356172 105.6110821 -119 106.5625 C-112.36297568 110.49686422 -109.43598176 117.22388211 -105.8125 123.8125 C-104.49011201 126.16676313 -103.15751157 128.51518048 -101.82421875 130.86328125 C-101.17501465 132.00877441 -100.52581055 133.15426758 -99.85693359 134.33447266 C-88.36542142 154.31090889 -75.42719668 173.91935754 -52.67578125 181.69921875 C-40.27731952 184.61107852 -26.58067388 183.23007968 -15.37890625 177.13671875 C-6.81501279 171.69463867 0.30330578 164.51030536 3 154.5625 C3.96343283 144.72713853 3.96343283 144.72713853 1.4375 135.375 C-3.29815568 129.91078191 -8.61964497 127.84213146 -15.73046875 127.25390625 C-29.64290958 126.70282496 -40.23594454 130.51335265 -52.75878906 136.13354492 C-63.37923602 140.86732021 -63.37923602 140.86732021 -69 139.5625 C-74.82834098 134.60220981 -78.05644096 127.3625647 -81.67578125 120.71484375 C-83.14708419 118.03574556 -84.68505539 115.43853424 -86.35546875 112.87890625 C-86.72687988 112.30672363 -87.09829102 111.73454102 -87.48095703 111.14501953 C-88.49795073 109.598179 -89.53163804 108.06235078 -90.56640625 106.52734375 C-92.33941159 102.86055614 -92.54422268 100.59157715 -92 96.5625 C-89.31547874 91.87987937 -85.43041777 89.85890459 -80.6875 87.625 C-79.98761963 87.28581543 -79.28773926 86.94663086 -78.56665039 86.59716797 C-66.98128391 81.06769989 -55.27498064 75.69718647 -42.32226562 75.08398438 C-32.36096812 74.82114061 -32.36096812 74.82114061 -24 70.0625 C-22.3373273 67.9122437 -22.3373273 67.9122437 -21 65.5625 C-20.484375 64.81742187 -19.96875 64.07234375 -19.4375 63.3046875 C-15.3194612 56.52335187 -14.74521784 49.32646461 -16 41.5625 C-17.67825863 38.45278547 -19.85200632 37.13649684 -23 35.5625 C-35.11090103 34.80788819 -45.4355942 35.74306322 -57 39.5625 C-58.0003125 39.85125 -59.000625 40.14 -60.03125 40.4375 C-69.61572564 43.32314858 -78.30129638 48.0615661 -87.13623047 52.67895508 C-87.83635254 53.03884521 -88.53647461 53.39873535 -89.2578125 53.76953125 C-89.8883252 54.09671143 -90.51883789 54.4238916 -91.16845703 54.76098633 C-94.40942063 56.17928591 -96.55279341 56.26470875 -100 55.5625 C-105.69380284 49.89381688 -109.65483561 43.01430326 -113.71582031 36.13867188 C-114.87515248 34.18724334 -116.06193689 32.25434593 -117.25 30.3203125 C-124.58914842 18.1147387 -124.58914842 18.1147387 -123 10.5625 C-119.55038885 5.67612928 -114.28376572 3.23961933 -109.0625 0.5625 C-108.2178418 0.12534668 -107.37318359 -0.31180664 -106.50292969 -0.76220703 C-94.84544754 -6.67929583 -82.70809262 -10.40710868 -70 -13.4375 C-69.07445312 -13.66566406 -68.14890625 -13.89382812 -67.1953125 -14.12890625 C-43.42401585 -19.05542135 -19.17922196 -15.16805504 0 0 Z M-113 14.5625 C-110.70286413 20.67797996 -107.37880084 26.16639345 -104.125 31.8125 C-103.49980469 32.92625 -102.87460938 34.04 -102.23046875 35.1875 C-101.62074219 36.24453125 -101.01101562 37.3015625 -100.3828125 38.390625 C-99.82996582 39.3590332 -99.27711914 40.32744141 -98.70751953 41.32519531 C-97.20287728 43.66308788 -97.20287728 43.66308788 -94.97802734 44.47802734 C-91.6565817 44.61987136 -89.21535442 42.64822912 -86.5 40.9375 C-76.2488415 34.79562483 -65.53651594 30.68896408 -54 27.5625 C-53.34894287 27.38299805 -52.69788574 27.20349609 -52.02709961 27.01855469 C-45.66000199 25.41512747 -39.48287796 25.19566641 -32.9375 25.1875 C-31.90044922 25.16300781 -30.86339844 25.13851562 -29.79492188 25.11328125 C-22.67563139 25.08619454 -16.79489542 25.94628116 -11.48071289 31.01025391 C-5.56240256 37.78652207 -5.25183584 44.13924688 -5.5 52.80078125 C-6.26471398 63.39844243 -12.27045604 71.71782595 -19.88671875 78.79296875 C-20.58410156 79.37691406 -21.28148437 79.96085937 -22 80.5625 C-22.59941406 81.12710938 -23.19882813 81.69171875 -23.81640625 82.2734375 C-26.9637322 84.13142956 -29.61684919 83.93848251 -33.25 84 C-49.94637837 84.70044086 -67.03416502 90.25194335 -81 99.5625 C-80.31769325 103.38987751 -78.56792694 106.30319667 -76.62109375 109.640625 C-76.28956802 110.21206238 -75.9580423 110.78349976 -75.61647034 111.37225342 C-74.56140744 113.18838883 -73.49957418 115.00045766 -72.4375 116.8125 C-71.71894998 118.04661249 -71.00084595 119.28098476 -70.28320312 120.515625 C-68.52729156 123.53427648 -66.76528784 126.54931989 -65 129.5625 C-61.85535758 128.86434668 -59.01154242 127.81143616 -56.04296875 126.56640625 C-55.09486328 126.17259766 -54.14675781 125.77878906 -53.16992188 125.37304688 C-51.19300392 124.54577079 -49.21643693 123.71765545 -47.24023438 122.88867188 C-34.13905335 117.45128259 -18.55061299 114.00554647 -4.59375 118.84765625 C3.36180092 122.26710262 8.35157508 127.17304789 12.1171875 134.8359375 C15.35343393 144.83107029 13.24711461 157.22606675 9 166.5625 C1.74206459 179.54139627 -10.10966779 187.02656101 -24 191.5625 C-41.73497056 194.48859172 -58.81886232 192.96996549 -74 182.5625 C-78.22811628 179.09824187 -82.130877 175.42070869 -86 171.5625 C-86.69738281 170.88832031 -87.39476562 170.21414063 -88.11328125 169.51953125 C-98.62028173 158.62096554 -105.87289615 144.06588402 -113.2590332 130.96923828 C-115.92144817 126.27785299 -118.7920263 121.90101184 -122 117.5625 C-125.40045734 118.7691139 -128.56683354 120.31449559 -131.75 122 C-132.52859375 122.41121094 -133.3071875 122.82242188 -134.109375 123.24609375 C-136.31110778 124.49940155 -136.31110778 124.49940155 -137 127.5625 C-136.15246611 129.77141987 -136.15246611 129.77141987 -134.74609375 132.11328125 C-134.22829346 133.02867676 -133.71049316 133.94407227 -133.17700195 134.88720703 C-132.60296631 135.87317871 -132.02893066 136.85915039 -131.4375 137.875 C-130.85121826 138.8944873 -130.26493652 139.91397461 -129.66088867 140.96435547 C-110.32320639 174.29421932 -87.50712295 210.81077671 -48 221.75 C-26.93576381 226.45406856 -2.63210694 224.35890125 15.8984375 212.74609375 C30.38024408 202.60882915 39.78127072 190.27503388 43 172.5625 C44.09904429 161.84398557 42.21857107 152.69237771 39 142.5625 C39.49177734 142.81418945 39.98355469 143.06587891 40.49023438 143.32519531 C58.73013169 152.56369483 75.33514306 158.16877707 96 154.5625 C95.96669083 155.55506805 95.93338165 156.54763611 95.89906311 157.57028198 C95.59410048 166.95512603 95.3697325 176.3389579 95.22281742 185.72764397 C95.14473637 190.55426375 95.0390033 195.37686552 94.8684082 200.20117188 C94.70458549 204.86350523 94.61558278 209.52199474 94.57684135 214.18698502 C94.54926494 215.96004926 94.49539878 217.73291795 94.41404915 219.50432968 C93.74412518 228.96493024 93.74412518 228.96493024 97.46317291 237.27634048 C101.04160225 240.3532091 104.99304665 242.57546789 109.21235085 244.65258789 C111.62443908 245.88033903 113.80266623 247.38183693 116.0078125 248.9453125 C117.37980782 249.85997605 118.75218343 250.77406952 120.125 251.6875 C120.82625 252.16703125 121.5275 252.6465625 122.25 253.140625 C122.93320312 253.59179688 123.61640625 254.04296875 124.3203125 254.5078125 C124.91086426 254.90500488 125.50141602 255.30219727 126.10986328 255.71142578 C128.49362074 256.78476322 130.41148532 256.62030703 133 256.5625 C133.03671924 231.15587465 132.93675904 205.75092581 132.79807091 180.34472036 C132.76938883 175.05445285 132.74175124 169.76417987 132.71398926 164.47390747 C132.66158132 154.51606587 132.60827305 144.55822932 132.5546174 134.60039437 C132.49344073 123.23827805 132.43330414 111.87615629 132.37324238 100.51403403 C132.24996185 77.19684988 132.12527875 53.87967351 132 30.5625 C147.51 30.5625 163.02 30.5625 179 30.5625 C179.46135274 20.75338253 179.46135274 20.75338253 166 -0.4375 C124.42 -0.4375 82.84 -0.4375 40 -0.4375 C40.80121898 5.17103285 41.20777124 7.59432319 43.6875 12.2421875 C44.22117187 13.2528125 44.75484375 14.2634375 45.3046875 15.3046875 C45.86414063 16.33851563 46.42359375 17.37234375 47 18.4375 C47.83917969 20.02304688 47.83917969 20.02304688 48.6953125 21.640625 C50.9390664 26.38483954 50.9390664 26.38483954 54 30.5625 C55.38160115 30.6552833 56.76788038 30.67997043 58.15258789 30.67602539 C59.47384422 30.67591209 59.47384422 30.67591209 60.8217926 30.67579651 C62.25772011 30.66805458 62.25772011 30.66805458 63.72265625 30.66015625 C64.69786728 30.6587413 65.67307831 30.65732635 66.67784119 30.65586853 C69.80609143 30.65025133 72.93427123 30.63769593 76.0625 30.625 C78.17773334 30.61998722 80.29296781 30.61542393 82.40820312 30.61132812 C87.60549296 30.60027631 92.80274145 30.58352146 98 30.5625 C97.99342331 41.13408757 97.92786897 51.70352317 97.78763103 62.27423191 C97.72434462 67.18327405 97.68115632 72.09075942 97.68432617 77.00024414 C97.68664052 81.74134224 97.63560354 86.47917519 97.54801369 91.21943474 C97.52393936 93.02491052 97.51888112 94.8307462 97.53342247 96.63632393 C97.62896904 110.78167662 97.62896904 110.78167662 93.57371521 115.21496582 C90.76280378 117.04064874 88.1266004 118.37236292 85 119.5625 C83.84886719 120.06523437 82.69773437 120.56796875 81.51171875 121.0859375 C80.57972656 121.36695313 79.64773438 121.64796875 78.6875 121.9375 C77.74261719 122.23398438 76.79773438 122.53046875 75.82421875 122.8359375 C62.76921247 126.19448683 45.11636099 126.58780651 33.0234375 119.875 C24.81690615 114.55184453 18.30437785 107.99374732 12 100.5625 C13.45588246 97.50374695 15.16693078 94.72083996 17 91.875 C24.00684384 80.08299451 23.58615482 65.29895503 20.3125 52.25 C14.82838544 32.12205485 3.95558665 13.47385929 -14.25 2.5 C-46.55322352 -14.76190414 -83.17829665 -1.85573286 -113 14.5625 Z " fill="#F9FBFE" transform="translate(235,130.4375)"/>
</svg>
