<?xml version="1.0" encoding="UTF-8"?>
<svg version="1.1" xmlns="http://www.w3.org/2000/svg" width="1563" height="1563">
<path d="M0 0 C515.79 0 1031.58 0 1563 0 C1563 515.79 1563 1031.58 1563 1563 C1047.21 1563 531.42 1563 0 1563 C0 1047.21 0 531.42 0 0 Z " fill="#FEFEFE" transform="translate(0,0)"/>
<path d="M0 0 C1.09119644 0.17185318 2.18239288 0.34370636 3.30665588 0.52076721 C21.93617225 3.48933996 40.52696372 6.70259782 59.12225342 9.87677002 C63.3146161 10.5915886 67.50748656 11.30340369 71.70034599 12.0153017 C108.53167377 18.2714051 108.53167377 18.2714051 126.86216736 21.72827148 C140.10348183 24.21044976 153.40024354 26.36904529 166.69210434 28.56023788 C172.55619067 29.52806417 178.41913448 30.50281018 184.28229332 31.47623634 C186.42976701 31.83270859 188.57728555 32.18890979 190.72480774 32.54508972 C200.82950459 34.22178583 210.9297272 35.92247264 221.0234375 37.6640625 C221.67628723 37.77663391 222.32913696 37.88920532 223.00177002 38.00518799 C225.64640773 38.46129513 228.29101543 38.91757523 230.93554688 39.3742981 C243.3707675 41.52022375 255.81282892 43.62647525 268.25333977 45.74146271 C276.60737192 47.16171963 284.96125957 48.58280821 293.3146162 50.00703335 C317.63160295 54.15235706 341.95452338 58.25969311 366.2890625 62.30078125 C367.49236332 62.50068476 368.69566414 62.70058826 369.93542862 62.90654945 C380.97381844 64.74024355 392.01246128 66.57240672 403.05175781 68.40063477 C451.02312022 76.34723176 451.02312022 76.34723176 468.5276413 79.47843361 C470.49146748 79.82937792 472.4561914 80.17528763 474.42095947 80.5209198 C505.15796861 86.1162362 533.14636174 101.04085872 551.46313477 126.99047852 C569.36241755 153.68706091 578.15004051 185.652342 572.30761719 217.75097656 C570.0399902 228.15013554 565.85929398 237.88051915 561.3359375 247.4765625 C560.8409375 248.52714844 560.3459375 249.57773437 559.8359375 250.66015625 C555.94474344 258.27672644 550.69037246 264.85622948 545.3359375 271.4765625 C544.62566406 272.35828125 543.91539062 273.24 543.18359375 274.1484375 C540.91520993 276.93639527 538.62647437 279.70677484 536.3359375 282.4765625 C535.23913146 283.81212904 534.14281209 285.14809533 533.046875 286.484375 C527.62839881 293.08587894 522.19465841 299.66935743 516.6484375 306.1640625 C512.96909638 310.47445341 509.43218682 314.87220895 505.9609375 319.3515625 C501.50524347 325.09670373 496.82451286 330.60750616 492.03613281 336.07714844 C488.11652106 340.55770641 484.31605629 345.1185964 480.5703125 349.74609375 C478.07435027 352.79622941 475.5205016 355.79237949 472.9609375 358.7890625 C469.15982647 363.24720475 465.49005047 367.78576182 461.8984375 372.4140625 C457.64403136 377.89294468 453.21726271 383.19036338 448.67822266 388.43505859 C444.90869307 392.7926201 441.24550733 397.22626041 437.61328125 401.69921875 C435.05389478 404.82052883 432.44989628 407.90097248 429.8359375 410.9765625 C425.7857511 415.74562219 421.79241508 420.5556884 417.83984375 425.40625 C410.02801802 434.98518139 402.17620913 444.52886202 394.16845703 453.94482422 C390.60683555 458.13845246 387.12474233 462.39264672 383.65234375 466.66015625 C381.05806484 469.81441442 378.41987485 472.9285923 375.7734375 476.0390625 C372.56854559 479.80745189 369.40906056 483.59902278 366.3359375 487.4765625 C362.80710347 491.92909951 359.15364421 496.26342229 355.47265625 500.58984375 C352.55589237 504.02227859 349.67900324 507.48249065 346.8359375 510.9765625 C343.52969676 515.0398673 340.16777321 519.04955559 336.7734375 523.0390625 C333.56854559 526.80745189 330.40906056 530.59902278 327.3359375 534.4765625 C324.26280942 538.35410857 321.10320364 542.14556111 317.8984375 545.9140625 C313.82625264 550.70323508 309.81112143 555.53273213 305.83984375 560.40625 C298.0069705 570.01099005 290.13144996 579.57722611 282.09814453 589.01513672 C278.79182783 592.90989688 275.59869177 596.88327132 272.42578125 600.88671875 C269.50502583 604.50627172 266.48997445 608.04259874 263.47705078 611.58544922 C258.25582201 617.73200479 253.1596631 623.97888149 248.09375 630.25390625 C243.02509063 636.50642204 237.81805342 642.58232947 232.3359375 648.4765625 C231.63984375 649.23839844 230.94375 650.00023437 230.2265625 650.78515625 C209.93198846 672.15371322 180.02796882 683.09081141 150.9609375 683.8515625 C122.45770725 683.08699087 96.53329413 674.44265297 74.3359375 656.4765625 C73.65917969 655.94160156 72.98242188 655.40664062 72.28515625 654.85546875 C67.77872744 651.16839063 64.00607266 646.98602171 60.3359375 642.4765625 C59.62308594 641.60128906 58.91023437 640.72601562 58.17578125 639.82421875 C48.65854421 627.66239783 42.54593107 614.33551269 37.2734375 599.9140625 C36.6947841 598.35658535 36.11515134 596.79947181 35.53466797 595.24267578 C34.21689547 591.70198887 32.90623338 588.15876536 31.60009766 584.61376953 C29.27771886 578.31268461 26.93918738 572.01763071 24.59926605 565.72304535 C20.63693579 555.0637101 16.68192814 544.40168608 12.73334503 533.73725128 C9.02906511 523.73278597 5.31691794 513.73137419 1.58203125 503.73828125 C-9.94118966 472.89803336 -9.94118966 472.89803336 -14.6015625 459.22119141 C-18.35615334 448.30038632 -22.49039289 437.51851684 -26.56079102 426.71264648 C-31.30765176 414.10895287 -36.00318517 401.48729505 -40.6640625 388.8515625 C-42.08311018 385.00642803 -43.50245276 381.16140246 -44.921875 377.31640625 C-45.47563057 375.81628494 -45.47563057 375.81628494 -46.04057312 374.28585815 C-50.6975004 361.67321612 -55.36673852 349.06513982 -60.04003906 336.45855713 C-61.01942517 333.81646534 -61.99826878 331.17417371 -62.9765625 328.53167725 C-68.48242205 313.66055766 -74.03919176 298.81017655 -79.67498779 283.98776245 C-84.09581165 272.35650979 -88.45112886 260.70143869 -92.7890625 249.0390625 C-93.60342563 246.85155929 -94.41779758 244.66405937 -95.23217773 242.4765625 C-101.46319213 225.7328422 -107.66939421 208.97995106 -113.85058594 192.21777344 C-116.83048333 184.13760442 -119.81345559 176.05898333 -122.83984375 167.99609375 C-123.30924236 166.74221705 -123.77856529 165.48831202 -124.24780273 164.234375 C-125.06481387 162.05444284 -125.88547709 159.87587293 -126.71118164 157.69921875 C-138.63402425 125.83968586 -136.94033038 94.74375208 -123.07421875 63.9453125 C-108.88156422 35.90701211 -83.83766333 13.40902766 -53.91308594 3.57226562 C-36.00642726 -1.67590593 -18.44089905 -2.96884368 0 0 Z " fill="#F1B733" transform="translate(572.6640625,512.5234375)"/>
<path d="M0 0 C9.81318123 0.06066882 19.45711313 1.77766726 29.08691406 3.48583984 C34.21060763 4.39017262 39.33966914 5.26330303 44.46795654 6.1411438 C46.62801976 6.51122544 48.78789942 6.88236433 50.94775391 7.25366211 C61.19164289 9.01323284 71.43876269 10.75327108 81.6875 12.484375 C82.34076452 12.59472391 82.99402905 12.70507282 83.66708946 12.81876564 C87.06836148 13.3932957 90.4696485 13.96773695 93.87094116 14.54214478 C94.90597086 14.71694052 94.90597086 14.71694052 95.96191025 14.89526749 C97.36384685 15.13201647 98.76578625 15.36874892 100.16772842 15.60546494 C116.04704367 18.28682122 131.92446099 20.97796152 147.79296875 23.72265625 C149.0510585 23.94021576 150.30914825 24.15777527 151.60536194 24.38192749 C157.73360117 25.44241275 163.86131707 26.50584105 169.98852539 27.57226562 C180.38191489 29.37660586 190.7749811 31.15321241 201.203125 32.74609375 C232.28281589 37.50030273 232.28281589 37.50030273 245 43 C245.61198242 43.25861816 246.22396484 43.51723633 246.85449219 43.78369141 C261.2619646 49.97943507 275.78216202 60.38920584 284 74 C283.49591176 78.5230961 280.41673359 81.30110594 277.5 84.5625 C276.39612865 85.82203503 275.29327259 87.08246057 274.19140625 88.34375 C273.37373779 89.27574219 273.37373779 89.27574219 272.53955078 90.2265625 C270.45305677 92.63003419 268.44115422 95.08975068 266.4375 97.5625 C263.17221357 101.58358509 259.85428891 105.55333581 256.5 109.5 C252.4498136 114.26905969 248.45647758 119.0791259 244.50390625 123.9296875 C236.69208052 133.50861889 228.84027163 143.05229952 220.83251953 152.46826172 C217.27089805 156.66188996 213.78880483 160.91608422 210.31640625 165.18359375 C207.72212734 168.33785192 205.08393735 171.4520298 202.4375 174.5625 C199.23260809 178.33088939 196.07312306 182.12246028 193 186 C189.47116597 190.45253701 185.81770671 194.78685979 182.13671875 199.11328125 C179.21995487 202.54571609 176.34306574 206.00592815 173.5 209.5 C170.19375926 213.5633048 166.83183571 217.57299309 163.4375 221.5625 C160.23260809 225.33088939 157.07312306 229.12246028 154 233 C150.92687192 236.87754607 147.76726614 240.66899861 144.5625 244.4375 C140.49031514 249.22667258 136.47518393 254.05616963 132.50390625 258.9296875 C124.671033 268.53442755 116.79551246 278.10066361 108.76220703 287.53857422 C105.45589033 291.43333438 102.26275427 295.40670882 99.08984375 299.41015625 C96.16908833 303.02970922 93.15403695 306.56603624 90.14111328 310.10888672 C84.91988451 316.25544229 79.8237256 322.50231899 74.7578125 328.77734375 C69.68915313 335.02985954 64.48211592 341.10576697 59 347 C58.30390625 347.76183594 57.6078125 348.52367187 56.890625 349.30859375 C36.59605096 370.67715072 6.69203132 381.61424891 -22.375 382.375 C-50.87823025 381.61042837 -76.80264337 372.96609047 -99 355 C-99.67675781 354.46503906 -100.35351562 353.93007812 -101.05078125 353.37890625 C-105.55721006 349.69182813 -109.32986484 345.50945921 -113 341 C-113.71285156 340.12472656 -114.42570313 339.24945312 -115.16015625 338.34765625 C-124.67739329 326.18583533 -130.79000643 312.85895019 -136.0625 298.4375 C-136.6411534 296.88002285 -137.22078616 295.32290931 -137.80126953 293.76611328 C-139.11904203 290.22542637 -140.42970412 286.68220286 -141.73583984 283.13720703 C-144.05817417 276.83624277 -146.39665867 270.54130856 -148.73653412 264.24684334 C-151.94760379 255.6085654 -155.15629533 246.96941506 -158.35595703 238.3269043 C-158.72309059 237.33526575 -158.72309059 237.33526575 -159.09764099 236.32359409 C-159.58981909 234.99416728 -160.08199389 233.66473925 -160.57416534 232.33530998 C-164.37877126 222.05877746 -168.19496273 211.78674198 -172.03515625 201.5234375 C-172.79314337 199.4956099 -173.55111904 197.46777802 -174.30908203 195.43994141 C-175.36329482 192.61993861 -176.4185772 189.80036271 -177.47747803 186.9821167 C-178.42395914 184.46306515 -179.36666449 181.94263132 -180.30859375 179.421875 C-180.58550552 178.68858978 -180.8624173 177.95530457 -181.14772034 177.19979858 C-183 172.22743492 -183 172.22743492 -183 170 C-181.87722656 169.87882813 -180.75445313 169.75765625 -179.59765625 169.6328125 C-158.15537381 167.26311563 -140.89954392 161.01185486 -124 147 C-123.40832031 146.54238281 -122.81664062 146.08476563 -122.20703125 145.61328125 C-117.67008141 141.9899506 -114.1993898 137.72421301 -110.58984375 133.1953125 C-107.64342153 129.51838197 -104.53941922 125.98325009 -101.4375 122.4375 C-97.17635516 117.55341288 -93.03115308 112.6121796 -89.01953125 107.51953125 C-86.12964963 103.91416637 -83.13030275 100.40511104 -80.13623047 96.88623047 C-76.46861558 92.5699735 -72.87859201 88.19503039 -69.3046875 83.80078125 C-66.77966925 80.73224213 -64.20515231 77.70960188 -61.625 74.6875 C-57.84207508 70.25148397 -54.19467263 65.73399357 -50.625 61.125 C-46.16948329 55.37972845 -41.48856595 49.86904559 -36.70019531 44.39941406 C-32.78058356 39.91885609 -28.98011879 35.3579661 -25.234375 30.73046875 C-22.73841342 27.68033389 -20.18459087 24.68415986 -17.625 21.6875 C-12.62212779 15.82065659 -7.8482153 9.79024106 -3.1171875 3.703125 C-1 1 -1 1 0 0 Z " fill="#4CC4BF" transform="translate(746,814)"/>
<path d="M0 0 C1.09119644 0.17185318 2.18239288 0.34370636 3.30665588 0.52076721 C21.93617225 3.48933996 40.52696372 6.70259782 59.12225342 9.87677002 C63.3146161 10.5915886 67.50748656 11.30340369 71.70034599 12.0153017 C108.53167377 18.2714051 108.53167377 18.2714051 126.86216736 21.72827148 C140.10348183 24.21044976 153.40024354 26.36904529 166.69210434 28.56023788 C172.55619067 29.52806417 178.41913448 30.50281018 184.28229332 31.47623634 C186.42976701 31.83270859 188.57728555 32.18890979 190.72480774 32.54508972 C200.82950459 34.22178583 210.9297272 35.92247264 221.0234375 37.6640625 C221.67628723 37.77663391 222.32913696 37.88920532 223.00177002 38.00518799 C225.64640773 38.46129513 228.29101543 38.91757523 230.93554688 39.3742981 C243.3707675 41.52022375 255.81282892 43.62647525 268.25333977 45.74146271 C276.60737192 47.16171963 284.96125957 48.58280821 293.3146162 50.00703335 C317.63160295 54.15235706 341.95452338 58.25969311 366.2890625 62.30078125 C367.49236332 62.50068476 368.69566414 62.70058826 369.93542862 62.90654945 C380.97381844 64.74024355 392.01246128 66.57240672 403.05175781 68.40063477 C451.02312022 76.34723176 451.02312022 76.34723176 468.5276413 79.47843361 C470.49146748 79.82937792 472.4561914 80.17528763 474.42095947 80.5209198 C505.15796861 86.1162362 533.14636174 101.04085872 551.46313477 126.99047852 C569.36241755 153.68706091 578.15004051 185.652342 572.30761719 217.75097656 C570.0399902 228.15013554 565.85929398 237.88051915 561.3359375 247.4765625 C560.8409375 248.52714844 560.3459375 249.57773437 559.8359375 250.66015625 C555.94474344 258.27672644 550.69037246 264.85622948 545.3359375 271.4765625 C544.62566406 272.35828125 543.91539062 273.24 543.18359375 274.1484375 C540.91520993 276.93639527 538.62647437 279.70677484 536.3359375 282.4765625 C535.23913146 283.81212904 534.14281209 285.14809533 533.046875 286.484375 C527.62839677 293.08588142 522.19456157 299.66927254 516.6484375 306.1640625 C512.33701297 311.21637693 508.21244992 316.39729567 504.1328125 321.63793945 C500.9751583 325.68830035 497.73034411 329.62345229 494.3359375 333.4765625 C492.99568498 329.45580495 494.19692226 327.33596164 495.546875 323.4375 C502.16955007 298.58607573 495.74824115 272.89505465 483.42578125 251.09765625 C470.64895525 230.97481119 451.31150379 215.33802813 427.85016632 209.90044022 C424.98740447 209.29405137 422.12035702 208.71725991 419.24902344 208.15283203 C418.16283092 207.93779085 417.07663841 207.72274967 415.95753098 207.50119209 C403.00551342 204.97286025 389.99439894 202.79522896 376.9784174 200.62594748 C373.44198415 200.03544842 369.90642437 199.43976478 366.37078857 198.84451294 C356.68521862 197.21477597 346.99837947 195.59263855 337.31149292 193.9707489 C328.37931822 192.47514983 319.44743651 190.97785502 310.51661372 189.47420132 C306.34185927 188.77153943 302.1665015 188.07262534 297.99060678 187.3767736 C294.77608693 186.84010176 291.56243499 186.29827451 288.34863281 185.75732422 C287.21905151 185.57024902 286.08947021 185.38317383 284.92565918 185.19042969 C279.61779159 184.29223405 274.37811995 183.28196133 269.14199829 182.02919006 C260.96619857 180.09687858 252.70803917 178.74090333 244.42626953 177.35375977 C242.65868039 177.05472803 240.89114966 176.75535079 239.12367249 176.45565796 C234.35709964 175.64841883 229.58973775 174.8459326 224.82221842 174.04430509 C219.79968385 173.19891117 214.77791993 172.34896379 209.756073 171.49949646 C200.23627826 169.88986236 190.71583629 168.28409169 181.19513786 166.67981237 C167.29021958 164.33658673 153.38632122 161.98732336 139.48237419 159.63834286 C137.41255628 159.28867185 135.34273779 158.93900428 133.2729187 158.58934021 C132.260271 158.41826388 131.24762331 158.24718755 130.20428932 158.07092708 C123.30626319 156.90572659 116.40796017 155.74217515 109.509552 154.57923889 C78.74980919 149.39258503 78.74980919 149.39258503 65.77294922 147.14135742 C64.90932329 146.99181138 64.04569736 146.84226534 63.15590096 146.6881876 C57.93288682 145.77629628 52.72654346 144.79233161 47.5234375 143.7734375 C16.17404849 137.73169562 -13.98627276 135.13109305 -42.6640625 151.4765625 C-44.17806641 152.32927734 -44.17806641 152.32927734 -45.72265625 153.19921875 C-66.40416842 165.60812605 -81.86322103 187.79924574 -88.33203125 210.95654297 C-91.78183729 225.84968541 -90.27053199 242.39826273 -88.6640625 257.4765625 C-91.00245336 253.96897621 -92.32071336 250.32402414 -93.76171875 246.39453125 C-94.06795166 245.56907806 -94.37418457 244.74362488 -94.68969727 243.89315796 C-95.7057485 241.15150247 -96.71620456 238.40782068 -97.7265625 235.6640625 C-98.437097 233.7426382 -99.14795849 231.82133479 -99.85913086 229.90014648 C-101.35869096 225.84728305 -102.85590814 221.79356416 -104.3515625 217.73925781 C-106.26740403 212.54765129 -108.19006286 207.35860525 -110.11573792 202.17063904 C-111.62372891 198.10792629 -113.13000231 194.044578 -114.63595581 189.98110962 C-115.35111114 188.05188921 -116.06669275 186.12282676 -116.78274536 184.19393921 C-120.43219257 174.35872484 -124.04345436 164.51078571 -127.54296875 154.62109375 C-127.83059586 153.8162001 -128.11822296 153.01130646 -128.41456604 152.18202209 C-130.80029864 145.3855524 -132.43916557 138.58096468 -133.6640625 131.4765625 C-133.93863281 130.13851562 -133.93863281 130.13851562 -134.21875 128.7734375 C-138.33272525 98.31558568 -128.93634835 68.73290856 -110.55541992 44.50073242 C-91.42354243 20.10648739 -65.36230116 3.54777134 -34.34936523 -0.85180664 C-22.70431041 -2.23585511 -11.54933549 -1.85935467 0 0 Z " fill="#D63948" transform="translate(572.6640625,512.5234375)"/>
<path d="M0 0 C9.81318123 0.06066882 19.45711313 1.77766726 29.08691406 3.48583984 C34.21426839 4.39081874 39.34699332 5.26458692 44.47894287 6.14306641 C46.60603366 6.50745774 48.732961 6.87279131 50.85986328 7.23828125 C66.69604139 9.95757417 82.53886372 12.63771144 98.38160324 15.31845093 C100.54031319 15.68374557 102.69900668 16.04913739 104.85769653 16.41455078 C107.64331696 16.88608647 110.42899342 17.35728916 113.21470642 17.82827759 C115.87545169 18.27819836 118.53593244 18.72960004 121.19630432 19.18173218 C126.75815743 20.12514965 132.32003997 21.05915962 137.89404297 21.92822266 C138.74643051 22.06291458 139.59881805 22.19760651 140.47703552 22.33638 C141.99226996 22.57407324 143.50854405 22.80528291 145.02601624 23.02824402 C149.77760476 23.77760476 149.77760476 23.77760476 152 26 C147.61736012 31.56306438 143.15031145 37.0431372 138.5625 42.4375 C134.49029321 47.2266544 130.47518372 52.05616989 126.50390625 56.9296875 C118.69208052 66.50861889 110.84027163 76.05229952 102.83251953 85.46826172 C99.26667979 89.66685675 95.78025391 93.92587998 92.3046875 98.19921875 C89.7796684 101.26775891 87.20511449 104.29036484 84.625 107.3125 C80.8239919 111.77075056 77.1543014 116.30932903 73.5625 120.9375 C68.40841884 127.5702261 62.98144248 133.93707624 57.48193359 140.28417969 C49.11817843 149.96794761 40.98480055 159.83752334 32.9375 169.78515625 C27.31858298 176.72548177 21.66401447 183.62554255 15.87670898 190.42626953 C13.11417463 193.67494961 10.38465126 196.94685895 7.6875 200.25 C6.96433594 201.13429688 6.24117187 202.01859375 5.49609375 202.9296875 C3.58349134 205.28227826 1.68220057 207.64273827 -0.21484375 210.0078125 C-19.97581811 234.51574368 -40.67065814 251.47248322 -73 256 C-86.6986782 257.10203955 -99.92487185 256.289352 -113 252 C-113.6384082 251.79101074 -114.27681641 251.58202148 -114.93457031 251.36669922 C-138.3848749 243.39263996 -157.32061656 227.97847611 -169 206 C-169 205.34 -169 204.68 -169 204 C-169.66 204 -170.32 204 -171 204 C-172.71317185 199.48090174 -174.42205713 194.96021524 -176.12695312 190.43798828 C-176.70780153 188.89912983 -177.2898283 187.36071564 -177.87304688 185.82275391 C-178.71012029 183.61475923 -179.54297244 181.40521269 -180.375 179.1953125 C-180.63748535 178.50567413 -180.8999707 177.81603577 -181.17041016 177.10549927 C-183 172.22774341 -183 172.22774341 -183 170 C-181.87722656 169.87882813 -180.75445313 169.75765625 -179.59765625 169.6328125 C-158.15537381 167.26311563 -140.89954392 161.01185486 -124 147 C-123.40832031 146.54238281 -122.81664062 146.08476563 -122.20703125 145.61328125 C-117.67008141 141.9899506 -114.1993898 137.72421301 -110.58984375 133.1953125 C-107.64342153 129.51838197 -104.53941922 125.98325009 -101.4375 122.4375 C-97.17635516 117.55341288 -93.03115308 112.6121796 -89.01953125 107.51953125 C-86.12964963 103.91416637 -83.13030275 100.40511104 -80.13623047 96.88623047 C-76.46861558 92.5699735 -72.87859201 88.19503039 -69.3046875 83.80078125 C-66.77966925 80.73224213 -64.20515231 77.70960188 -61.625 74.6875 C-57.84207508 70.25148397 -54.19467263 65.73399357 -50.625 61.125 C-46.16948329 55.37972845 -41.48856595 49.86904559 -36.70019531 44.39941406 C-32.78058356 39.91885609 -28.98011879 35.3579661 -25.234375 30.73046875 C-22.73841342 27.68033389 -20.18459087 24.68415986 -17.625 21.6875 C-12.62212779 15.82065659 -7.8482153 9.79024106 -3.1171875 3.703125 C-1 1 -1 1 0 0 Z " fill="#8965AC" transform="translate(746,814)"/>
<path d="M0 0 C4.80205286 0.87316696 9.60356987 1.51460421 14.4526062 2.0664978 C18.09323695 2.48920296 21.72377885 2.97763043 25.3553009 3.47190857 C27.1325628 3.69762815 28.91373969 3.89459047 30.69752502 4.06108093 C36.23199448 4.5876059 41.80179221 5.1247317 46.60734558 8.12599182 C49.96961793 12.79873935 51.25155157 17.60314378 52.73176575 23.11625671 C54.2706977 28.40621128 56.30522758 33.51477943 58.26823997 38.65919304 C59.51969473 41.95666637 60.7380308 45.26632158 61.95890808 48.57521057 C62.46175187 49.93510562 62.96468194 51.29496876 63.46769714 52.65480042 C63.71771484 53.33099426 63.96773254 54.00718811 64.22532654 54.70387268 C65.72506309 58.75943698 67.22594317 62.81457846 68.72798538 66.8692894 C69.9513796 70.17185371 71.17313915 73.47499924 72.39097595 76.77961731 C74.67081326 82.95810333 76.98181245 89.12161231 79.37394714 95.25782776 C79.80083832 96.36226227 80.22772949 97.46669678 80.66755676 98.604599 C81.46332816 100.65729671 82.26916066 102.70613399 83.08692932 104.75016785 C83.43607391 105.65455597 83.78521851 106.55894409 84.14494324 107.49073792 C84.45324066 108.27032867 84.76153809 109.04991943 85.07917786 109.85313416 C85.72669694 112.63959505 85.43340946 114.40055575 84.60734558 117.12599182 C83.03915148 119.22945512 81.48325134 121.12683884 79.73234558 123.06349182 C78.71967914 124.21907624 77.70932988 125.37669464 76.70109558 126.53614807 C76.18418152 127.12927795 75.66726746 127.72240784 75.13468933 128.33351135 C72.73660862 131.14788293 70.48812124 134.07229557 68.23234558 137.00099182 C63.78037167 142.74516322 59.1051361 148.2581326 54.30973816 153.7177887 C51.07606361 157.40459269 47.96271966 161.15312459 44.91984558 165.00099182 C33.19485248 179.35986018 18.75473261 187.89243634 1.60734558 194.12599182 C0.31377136 194.66546448 0.31377136 194.66546448 -1.00593567 195.21583557 C-8.85650486 198.20958781 -17.10029239 198.35975954 -25.39265442 198.12599182 C-31.18670064 183.44611842 -36.68492149 168.66002356 -42.15921402 153.85850525 C-43.41230528 150.47135851 -44.667064 147.08482959 -45.92170715 143.69825745 C-47.49132245 139.46123585 -49.06080054 135.22416369 -50.62957764 130.98683167 C-54.25561582 121.1929584 -57.88680435 111.40100771 -61.52156067 101.61036682 C-62.02260638 100.26066702 -62.52364908 98.9109661 -63.02468872 97.56126404 C-63.27121909 96.89716082 -63.51774946 96.23305759 -63.77175045 95.54883003 C-64.01717366 94.88770651 -64.26259687 94.22658298 -64.51545715 93.54542542 C-64.75960893 92.887731 -65.0037607 92.23003658 -65.25531101 91.55241203 C-74.3361562 67.08983408 -83.3935085 42.61875884 -92.39265442 18.12599182 C-67.87055362 -7.056698 -31.75832814 -5.963758 0 0 Z " fill="#FE8B3B" transform="translate(588.3926544189453,785.8740081787109)"/>
<path d="M0 0 C10.23885361 1.50592155 20.42653666 3.2674937 30.61883545 5.05688477 C49.86034086 8.43357433 69.1141904 11.7353589 88.375 15 C89.56230713 15.20126495 90.74961426 15.40252991 91.97290039 15.6098938 C98.64838492 16.74120311 105.32406876 17.87132977 112 19 C111.04565128 20.27681142 110.09070072 21.55317301 109.13549805 22.8293457 C108.60377487 23.540168 108.0720517 24.2509903 107.5242157 24.98335266 C102.0114701 32.27711283 96.0054342 39.19733673 90.0871582 46.1628418 C86.44197354 50.45911125 82.8724885 54.81323864 79.31640625 59.18359375 C76.72212734 62.33785192 74.08393735 65.4520298 71.4375 68.5625 C67.56994473 73.11006498 63.80402883 77.72181164 60.09765625 82.40234375 C57.59562302 85.50076479 55.02108855 88.532063 52.4375 91.5625 C48.14461649 96.59933542 43.99579293 101.72228033 40 107 C38.10945809 104.16418714 37.0710264 101.78199519 35.8996582 98.6027832 C35.48725891 97.48952164 35.07485962 96.37626007 34.64996338 95.22926331 C34.20473328 94.01536423 33.75950317 92.80146515 33.30078125 91.55078125 C32.82871484 90.27260543 32.35627461 88.99456762 31.88348389 87.71665955 C30.61722762 84.29141581 29.35553163 80.86450905 28.0946846 77.43727112 C26.01175409 71.77907921 23.92019404 66.12406522 21.83036613 60.46841812 C21.04611516 58.34559952 20.26236834 56.22259524 19.47865295 54.09957886 C16.39231827 45.74258717 13.28305089 37.39469751 10.140625 29.05859375 C9.78393234 28.11192337 9.42723969 27.16525299 9.05973816 26.18989563 C7.74204238 22.69516758 6.42329601 19.20085934 5.09829712 15.70889282 C4.22047892 13.39544524 3.34629588 11.08065298 2.47265625 8.765625 C2.09001617 7.76389503 2.09001617 7.76389503 1.699646 6.7419281 C0 2.22667302 0 2.22667302 0 0 Z " fill="#FEFEFE" transform="translate(635,794)"/>
<path d="M0 0 C2.52349243 3.12432397 4.27256146 6.38060496 6 10 C5.01 10.33 4.02 10.66 3 11 C2.49384702 9.73160474 1.99530901 8.46016898 1.5 7.1875 C1.2215625 6.47980469 0.943125 5.77210938 0.65625 5.04296875 C0 3 0 3 0 0 Z " fill="#60B8BC" transform="translate(576,1018)"/>
</svg>
