<?xml version="1.0" encoding="UTF-8"?>
<svg version="1.1" xmlns="http://www.w3.org/2000/svg" width="512" height="512">
<path d="M0 0 C5.68577373 5.322852 10.03290617 11.52586562 11.25 19.3125 C11.78625 19.38726562 12.3225 19.46203125 12.875 19.5390625 C43.27100257 24.63839188 70.59008351 45.60309347 93.25 65.3125 C97.41911483 63.93263368 99.82323776 62.06411309 102.9375 59 C128.85347791 34.86291155 163.97895264 14.9633444 200.10302734 16.17626953 C204.764862 16.47207391 208.92525439 17.60336054 213.25 19.3125 C214.50490234 19.80556641 214.50490234 19.80556641 215.78515625 20.30859375 C228.11477801 25.81595185 236.94804296 35.81043011 242.04345703 48.24951172 C246.98946543 61.56368441 248.62796805 75.03388505 248.5625 89.1875 C248.55831055 90.44473877 248.55412109 91.70197754 248.54980469 92.99731445 C248.3374991 110.84340556 245.5032755 128.01872499 241.25 145.3125 C242.4978125 145.54839844 243.745625 145.78429687 245.03125 146.02734375 C250.87811085 147.33260976 256.2474835 149.54065265 261.75 151.875 C262.80300293 152.31972656 263.85600586 152.76445312 264.94091797 153.22265625 C280.73260748 159.99224031 297.84005434 167.68045248 309.25 180.9375 C313.27718871 184.75233224 316.83397385 184.65565684 322.11474609 184.59765625 C324.08014157 184.53254459 326.0453323 184.46092765 328.01025391 184.3828125 C339.29378223 184.0018053 347.91517088 187.70813905 356.25 195.3125 C364.03481322 202.81994458 368.276539 212.07392095 368.59350586 222.81103516 C368.76238867 236.22478186 365.73258912 246.39619579 356.25 256.3125 C349.8627437 262.1511576 341.07433728 267.53600277 332.14038086 267.2434082 C330.95134155 267.16932739 330.95134155 267.16932739 329.73828125 267.09375 C320.17574588 266.27174157 320.17574588 266.27174157 311.2421875 268.9609375 C308.89341461 271.17615511 308.89341461 271.17615511 306.7109375 273.67578125 C292.35365708 289.0585817 268.93052508 296.72885226 249.94458008 304.20263672 C247.64957002 305.14792219 245.44938141 306.16548084 243.25 307.3125 C243.39099121 307.97556152 243.53198242 308.63862305 243.67724609 309.32177734 C250.62946343 342.28360056 257.25128902 380.96210228 239.09375 411.71875 C231.28680421 422.70140255 220.64624968 430.72725883 207.25 433.3125 C175.64000728 437.93725746 144.29874786 421.89338209 119.625 403.5625 C117.82301475 402.15898191 116.03069258 400.74293623 114.25 399.3125 C113.37085938 398.61253906 112.49171875 397.91257812 111.5859375 397.19140625 C109.9159891 395.85696108 108.24909201 394.51868432 106.5859375 393.17578125 C103.19978654 390.47478793 99.73577874 387.8830184 96.25 385.3125 C95.33734375 386.18648438 95.33734375 386.18648438 94.40625 387.078125 C70.42641694 409.5063218 39.75532438 430.42395072 6.5625 434.6875 C1.40790991 435.37506879 -2.40092936 435.95769078 -5.875 440.125 C-6.35582031 440.82753906 -6.83664063 441.53007812 -7.33203125 442.25390625 C-12.24066829 449.38021953 -21.1804211 453.1920414 -29.41015625 454.84765625 C-42.32093571 456.46382577 -53.9589681 453.06411473 -64.40625 445.3515625 C-73.11556902 437.77445495 -77.90574987 427.3030233 -78.97265625 415.94140625 C-79.39889124 404.35893357 -75.93871334 394.36600828 -68.75 385.3125 C-65.35581961 381.84981322 -61.77884271 378.99839514 -57.75 376.3125 C-57.3029983 373.34236772 -57.3029983 373.34236772 -57.37890625 369.8125 C-57.36458985 368.44872518 -57.34975641 367.08495572 -57.33447266 365.72119141 C-57.33003143 364.64239716 -57.33003143 364.64239716 -57.32550049 363.54180908 C-57.2575387 351.88779753 -56.71815806 340.46598841 -54.875 328.9375 C-54.63245483 327.40996094 -54.63245483 327.40996094 -54.38500977 325.8515625 C-53.25038827 319.21482654 -51.6314084 312.77500357 -49.75 306.3125 C-51.62171875 305.95865234 -51.62171875 305.95865234 -53.53125 305.59765625 C-59.37811085 304.29239024 -64.7474835 302.08434735 -70.25 299.75 C-71.30300293 299.30527344 -72.35600586 298.86054688 -73.44091797 298.40234375 C-92.18301875 290.3679769 -109.10903224 280.68050056 -123.75 266.3125 C-124.53117187 265.55582031 -125.31234375 264.79914063 -126.1171875 264.01953125 C-137.08521164 252.70067805 -142.17294865 239.23643314 -142.11572266 223.58813477 C-141.77451119 207.3461557 -133.64305236 195.70950141 -122.75 184.3125 C-122.23179688 183.71953125 -121.71359375 183.1265625 -121.1796875 182.515625 C-104.59020331 164.27587798 -76.67252223 152.69716508 -53.75 145.3125 C-53.09 145.3125 -52.43 145.3125 -51.75 145.3125 C-51.89099121 144.63896484 -52.03198242 143.96542969 -52.17724609 143.27148438 C-57.27972869 118.74947958 -62.41431695 93.05870367 -57.3125 68.0625 C-56.50461453 63.84335613 -56.50461453 63.84335613 -58.03515625 59.9921875 C-59.83754229 57.91329107 -59.83754229 57.91329107 -61.86328125 56.10546875 C-67.28354005 50.95453958 -69.44740132 42.73256878 -70.0859375 35.515625 C-70.21791636 22.15936403 -67.30811419 11.39186345 -57.9375 1.375 C-41.3864838 -14.1082087 -17.33295398 -14.27589388 0 0 Z M105.25 75.3125 C106.7475971 78.83411926 108.76864172 81.03855162 111.50390625 83.69140625 C112.35436523 84.52502686 113.20482422 85.35864746 114.08105469 86.2175293 C114.98243164 87.09449463 115.88380859 87.97145996 116.8125 88.875 C123.04698544 95.01760765 129.06735803 101.07770521 134.4375 107.99609375 C136.91159753 111.15803305 139.60898346 114.09532819 142.328125 117.046875 C144.25 119.3125 144.25 119.3125 145.29907227 121.07763672 C147.62282695 124.88833964 148.62130224 126.12034417 153.05859375 127.4765625 C154.59838789 127.65930171 156.14209269 127.81070938 157.6875 127.9375 C159.48480467 128.14871918 161.28165636 128.36381569 163.078125 128.58203125 C164.55249023 128.74952881 164.55249023 128.74952881 166.05664062 128.92041016 C172.04270555 129.65539642 177.98788604 130.64238348 183.9375 131.625 C185.84088135 131.9358252 185.84088135 131.9358252 187.78271484 132.25292969 C197.46034487 133.88530102 206.96192197 135.99879546 216.44604492 138.52075195 C217.88234253 138.8933313 217.88234253 138.8933313 219.34765625 139.2734375 C220.59301147 139.61060791 220.59301147 139.61060791 221.86352539 139.95458984 C224.57864192 140.36178788 226.60717048 139.99313523 229.25 139.3125 C235.48362798 110.05076089 242.73687773 72.77343647 225.65234375 45.7890625 C219.27184491 37.03949462 211.05049963 31.07900927 200.25 29.3125 C163.87515275 26.63916785 130.90080526 52.45461909 105.25 75.3125 Z M13.25 33.3125 C13.01216797 34.54613281 13.01216797 34.54613281 12.76953125 35.8046875 C10.01028031 49.00640745 5.56238983 58.99897428 -5.8515625 66.6640625 C-18.14273375 73.65445909 -31.33991934 73.70285899 -44.75 70.3125 C-49.09224371 93.84023833 -44.55662409 118.45325443 -38.75 141.3125 C-37.21484741 140.94137085 -37.21484741 140.94137085 -35.64868164 140.56274414 C-25.20372425 138.05860773 -14.72959135 135.80459987 -4.1875 133.75 C-3.41428406 133.59742737 -2.64106812 133.44485474 -1.84442139 133.28765869 C9.06014803 131.14341202 19.92270298 129.32504879 31.01782227 128.46264648 C37.71234648 127.82960471 41.09673313 125.97524666 45.59179688 120.75390625 C46.95822272 119.07338252 48.26443537 117.35876865 49.5625 115.625 C53.57214494 110.39437295 57.73031111 105.40507991 62.1953125 100.55078125 C64.13102603 98.44210473 66.00819976 96.29463672 67.875 94.125 C72.04059688 89.34227765 76.50940267 84.90496139 81.1875 80.625 C83.69374323 78.33140951 83.69374323 78.33140951 83.25 74.3125 C79.69162917 70.52388164 75.37847639 67.46258121 71.25 64.3125 C70.57517578 63.79413574 69.90035156 63.27577148 69.20507812 62.74169922 C52.80724658 50.2475755 33.81339009 37.42517802 13.25 33.3125 Z M88.21850586 91.15429688 C87.40389893 91.96962891 86.58929199 92.78496094 85.75 93.625 C84.9257251 94.44935547 84.1014502 95.27371094 83.25219727 96.12304688 C78.26007566 101.16210084 73.58258585 106.24260821 69.21875 111.8359375 C66.28862142 115.52185321 63.09420778 118.95484575 59.90234375 122.4140625 C58.14057925 124.01875004 58.14057925 124.01875004 58.25 125.3125 C82.34 125.3125 106.43 125.3125 131.25 125.3125 C129.32545658 121.46341317 127.46988495 119.17914543 124.5625 116.0625 C123.73363281 115.17046875 122.90476562 114.2784375 122.05078125 113.359375 C121.60444336 112.87919922 121.15810547 112.39902344 120.69824219 111.90429688 C119.08928029 110.13584921 117.53235412 108.32764014 115.97265625 106.515625 C111.96645299 101.91871812 107.69636795 97.61151605 103.375 93.3125 C102.60414063 92.53777344 101.83328125 91.76304688 101.0390625 90.96484375 C100.306875 90.23394531 99.5746875 89.50304687 98.8203125 88.75 C98.15789551 88.08871094 97.49547852 87.42742187 96.81298828 86.74609375 C93.34073761 83.56129901 90.86809854 88.52959744 88.21850586 91.15429688 Z M56.66015625 137.63330078 C54.99351929 137.71851486 54.99351929 137.71851486 53.29321289 137.80545044 C49.26617151 138.47642209 46.48555083 139.95213597 43.73950195 142.97558594 C43.32659912 143.57661133 42.91369629 144.17763672 42.48828125 144.796875 C42.01455078 145.47661377 41.54082031 146.15635254 41.05273438 146.85668945 C40.31506836 147.94856567 40.31506836 147.94856567 39.5625 149.0625 C38.77649414 150.20368286 38.77649414 150.20368286 37.97460938 151.36791992 C36.38982293 153.6761854 34.81950734 155.9938293 33.25 158.3125 C32.389853 159.56416652 31.5292134 160.81549474 30.66796875 162.06640625 C19.02921558 179.10561557 8.88848833 197.08280567 -0.75 215.3125 C-1.24258301 216.21323242 -1.73516602 217.11396484 -2.24267578 218.04199219 C-2.71044434 218.92274414 -3.17821289 219.80349609 -3.66015625 220.7109375 C-4.08562744 221.49903809 -4.51109863 222.28713867 -4.94946289 223.09912109 C-6.18143032 226.50534759 -5.18533878 228.34921286 -3.74121094 231.54467773 C3.61862707 245.899793 11.48697416 259.76745732 20.25 273.3125 C20.76594727 274.11059082 21.28189453 274.90868164 21.81347656 275.73095703 C28.60318092 286.1784799 35.67305837 296.41829459 43.25 306.3125 C43.66266113 306.87904297 44.07532227 307.44558594 44.50048828 308.02929688 C47.26587955 311.65328449 48.80852325 312.71073101 53.25 313.3125 C66.01223702 314.71663376 78.90723701 314.49866425 91.7265625 314.49780273 C95.34647502 314.49998282 98.96607884 314.51817912 102.5859375 314.53710938 C113.41058381 314.56818332 124.24939432 314.48480892 135.0546875 313.79296875 C135.89033234 313.76446335 136.72597717 313.73595795 137.58694458 313.70658875 C142.43087387 313.30907773 144.82650239 312.21247969 148.13623047 308.58984375 C150.41635664 305.69594516 152.49222651 302.75388215 154.265625 299.51953125 C156.77382 295.10021157 159.48341843 290.87967379 162.3112793 286.65917969 C171.61168095 272.70252663 179.99335802 258.23550031 188.02587891 243.52148438 C189.23183502 241.34527957 190.47537699 239.19504158 191.73046875 237.046875 C192.48717548 235.71886184 193.24369541 234.39074222 194 233.0625 C194.359729 232.46695313 194.71945801 231.87140625 195.09008789 231.2578125 C196.6477118 228.47245186 197.32195572 226.76562659 196.81640625 223.58203125 C194.49055802 218.72733058 192.01720895 213.9745806 189.4375 209.25 C188.86 208.19014893 188.2825 207.13029785 187.6875 206.03833008 C176.41306118 185.54838264 163.5426822 166.07960572 149.6875 147.25 C149.19886475 146.57670654 148.71022949 145.90341309 148.20678711 145.2097168 C145.80025208 141.99133863 144.01857283 139.74345326 140.25 138.3125 C130.86827626 137.00856482 121.26693984 137.16425362 111.8125 137.1796875 C110.47599266 137.17901061 109.13948544 137.17803742 107.80297852 137.17678833 C105.02651781 137.17532942 102.25008967 137.17740682 99.47363281 137.18212891 C95.95768133 137.18782506 92.44180625 137.18453623 88.92585754 137.17855644 C86.17337493 137.17490144 83.42090972 137.17611179 80.66842651 137.17868423 C78.75559437 137.17965301 76.84276148 137.17667606 74.92993164 137.17355347 C68.83294167 137.1896355 62.74941581 137.31741401 56.66015625 137.63330078 Z M161.25 141.3125 C164.56781485 146.31079766 167.91073924 151.29097198 171.28125 156.25390625 C180.68902169 170.16337599 189.5076401 184.23329248 197.81494141 198.83740234 C199.87277741 202.38662681 202.04909875 205.85045386 204.25 209.3125 C214.83838858 193.42991713 219.41282217 172.3486692 225.25 154.3125 C220.28179424 151.00036283 214.39152728 150.26183669 208.625 148.9375 C207.96048828 148.78320526 207.29597656 148.62891052 206.61132812 148.46994019 C184.15583982 142.8876487 184.15583982 142.8876487 161.25 141.3125 Z M10.5 143.4375 C9.51172211 143.60106995 9.51172211 143.60106995 8.503479 143.76794434 C-4.74150628 145.97617609 -17.74642467 148.96593002 -30.75 152.3125 C-32.08304989 152.64696507 -33.41628441 152.98069945 -34.75 153.3125 C-33.49046752 160.85001471 -31.37752618 167.83345214 -28.75 175 C-28.16810913 176.60476196 -28.16810913 176.60476196 -27.57446289 178.24194336 C-23.43647914 189.4684374 -18.67735618 200.41334332 -13.75 211.3125 C-11.64776855 208.62257249 -9.91616806 205.93587143 -8.32421875 202.91796875 C-7.8645874 202.0563916 -7.40495605 201.19481445 -6.93139648 200.30712891 C-6.43841064 199.38077637 -5.9454248 198.45442383 -5.4375 197.5 C3.49670857 180.93882622 13.18503171 164.86599608 24.04296875 149.4921875 C25.89954921 146.81739725 27.61892407 144.12836399 29.25 141.3125 C22.89102733 141.1465499 16.75303888 142.39571733 10.5 143.4375 Z M237.25 157.3125 C236.95456299 158.24594238 236.65912598 159.17938477 236.35473633 160.14111328 C234.94326514 164.5795411 233.50788187 169.0100079 232.0625 173.4375 C231.79966217 174.24317413 231.53682434 175.04884827 231.26602173 175.87893677 C226.9712032 188.95420827 221.99728213 201.56011925 216.17700195 214.02978516 C215.6480835 215.18397949 215.11916504 216.33817383 214.57421875 217.52734375 C214.10072998 218.52886475 213.62724121 219.53038574 213.1394043 220.56225586 C211.56867098 225.41932716 213.38954454 228.96079099 215.4375 233.42578125 C215.88464355 234.41457275 216.33178711 235.40336426 216.79248047 236.42211914 C217.27346191 237.47906982 217.75444336 238.53602051 218.25 239.625 C226.06955855 257.10965569 232.86901169 274.92520325 238.25 293.3125 C242.25964247 292.74696716 245.74642534 291.8840841 249.48828125 290.34375 C250.46506836 289.94212646 251.44185547 289.54050293 252.44824219 289.12670898 C253.9897998 288.47617554 253.9897998 288.47617554 255.5625 287.8125 C257.16013184 287.13973022 257.16013184 287.13973022 258.79003906 286.45336914 C274.89544986 279.56991753 289.89628742 272.0217151 302.25 259.3125 C301.65832031 258.77882813 301.06664062 258.24515625 300.45703125 257.6953125 C292.17318714 249.88444481 287.00899115 241.31720903 285.9140625 229.76953125 C285.75244258 214.69039254 289.91463791 203.87939992 300.5 193 C301.0775 192.443125 301.655 191.88625 302.25 191.3125 C291.16249447 181.5619494 279.17322936 174.57214401 265.9375 168.125 C264.74954834 167.53730835 264.74954834 167.53730835 263.53759766 166.93774414 C255.06825327 162.92131075 246.15870941 160.17215359 237.25 157.3125 Z M-55.390625 159.90234375 C-56.28845703 160.27037109 -57.18628906 160.63839844 -58.11132812 161.01757812 C-59.06458984 161.42427734 -60.01785156 161.83097656 -61 162.25 C-61.98419922 162.66314453 -62.96839844 163.07628906 -63.98242188 163.50195312 C-82.95591025 171.56290817 -100.07727074 180.63977074 -114.75 195.3125 C-115.52472656 196.08722656 -116.29945312 196.86195313 -117.09765625 197.66015625 C-126.0005945 207.0956067 -129.37530135 216.5044275 -129.08984375 229.3515625 C-128.23903217 239.26791816 -123.27949964 247.06462712 -116.75 254.3125 C-115.68845703 255.51326172 -115.68845703 255.51326172 -114.60546875 256.73828125 C-98.30281594 274.1223704 -72.53186072 287.08692419 -49.75 293.3125 C-48.43 293.3125 -47.11 293.3125 -45.75 293.3125 C-45.45456299 292.37905762 -45.15912598 291.44561523 -44.85473633 290.48388672 C-43.44330809 286.04544573 -42.0072862 281.61518447 -40.5625 277.1875 C-40.29999451 276.38149353 -40.03748901 275.57548706 -39.76702881 274.74505615 C-35.48290314 261.67677089 -30.50623095 249.09781968 -24.58911133 236.68310547 C-24.05697021 235.53213379 -23.5248291 234.38116211 -22.9765625 233.1953125 C-22.49783691 232.19902832 -22.01911133 231.20274414 -21.52587891 230.17626953 C-20.53252326 226.50979323 -21.25571656 224.75305771 -22.75 221.3125 C-23.0399585 220.63372803 -23.32991699 219.95495605 -23.62866211 219.25561523 C-23.92522705 218.63372314 -24.22179199 218.01183105 -24.52734375 217.37109375 C-29.28827651 207.1911223 -33.5786525 196.87984375 -37.5625 186.375 C-38.01810303 185.1799585 -38.47370605 183.98491699 -38.94311523 182.75366211 C-41.54546533 175.8260366 -43.801723 168.92400629 -45.66674805 161.75952148 C-46.49380941 159.20414668 -46.49380941 159.20414668 -48.58032227 158.35791016 C-51.23805647 158.30228525 -52.93416574 158.88344329 -55.390625 159.90234375 Z M203.25 241.3125 C202.99009277 241.82820557 202.73018555 242.34391113 202.46240234 242.87524414 C192.34667747 262.83264412 180.84787872 281.83099661 168.25 300.3125 C167.03942371 302.12350269 165.83074374 303.93577628 164.625 305.75 C163.83333333 306.9375 163.04166667 308.125 162.25 309.3125 C165.83957422 310.52885565 168.61584271 310.1352788 172.32421875 309.52734375 C173.53795166 309.32923096 174.75168457 309.13111816 176.00219727 308.92700195 C177.30084717 308.70359131 178.59949707 308.48018066 179.9375 308.25 C180.59918182 308.13812347 181.26086365 308.02624695 181.94259644 307.91098022 C204.54811258 304.25720314 204.54811258 304.25720314 226.25 297.3125 C224.24486486 289.5208168 221.85686536 281.94122208 219.125 274.375 C218.73900635 273.30193604 218.3530127 272.22887207 217.95532227 271.12329102 C214.22955129 260.94643749 209.87876991 251.10623303 205.25 241.3125 C204.59 241.3125 203.93 241.3125 203.25 241.3125 Z M-13.75 242.3125 C-18.6268365 253.37392805 -23.03939629 264.55884682 -27.125 275.9375 C-27.55345215 277.12182617 -27.9819043 278.30615234 -28.42333984 279.52636719 C-30.63303607 285.74944951 -32.49180466 291.8279548 -33.75 298.3125 C-21.08021408 301.67821146 -8.390002 304.72113766 4.5 307.125 C5.59223877 307.3314917 6.68447754 307.5379834 7.80981445 307.75073242 C14.94021997 309.04366484 22.01953444 309.84133575 29.25 310.3125 C27.58342742 305.86296789 25.2516366 302.43084132 22.375 298.6875 C11.77216237 284.51242412 2.92491724 269.25311289 -5.76269531 253.85620117 C-6.36823242 252.78990479 -6.97376953 251.7236084 -7.59765625 250.625 C-8.13398682 249.67238281 -8.67031738 248.71976562 -9.22290039 247.73828125 C-10.57462226 245.59108565 -11.8708086 243.99697661 -13.75 242.3125 Z M-36.75 310.3125 C-38.17509935 313.64368367 -39.14898339 316.76762713 -39.78515625 320.33203125 C-39.95466797 321.27240234 -40.12417969 322.21277344 -40.29882812 323.18164062 C-40.46833984 324.15294922 -40.63785156 325.12425781 -40.8125 326.125 C-40.98587891 327.08470703 -41.15925781 328.04441406 -41.33789062 329.03320312 C-43.16447668 339.28587966 -43.88402593 348.89172231 -43.8125 359.3125 C-43.80798828 360.56417969 -43.80347656 361.81585938 -43.79882812 363.10546875 C-43.78711415 366.17452941 -43.77071073 369.24348907 -43.75 372.3125 C-42.77820801 372.2813208 -41.80641602 372.2501416 -40.80517578 372.21801758 C-27.79295986 371.86515962 -17.4483878 374.51742565 -7.51953125 383.28125 C1.09142814 392.19916666 4.43710317 402.97638891 4.3125 415.1875 C4.30347656 416.33992188 4.29445312 417.49234375 4.28515625 418.6796875 C4.27355469 419.54851562 4.26195312 420.41734375 4.25 421.3125 C35.66344102 420.3152479 63.65018942 395.76831074 86.25 376.3125 C84.72643227 372.69073531 82.58154894 370.43892084 79.77734375 367.71484375 C78.87693359 366.82990234 77.97652344 365.94496094 77.04882812 365.03320312 C75.1689929 363.20469446 73.28879566 361.3765579 71.40820312 359.54882812 C66.009917 354.2423626 61.03408635 348.80571088 56.31079102 342.88989258 C53.38897934 339.23563764 50.32630906 335.71167267 47.25 332.1875 C46.67894531 331.53007812 46.10789062 330.87265625 45.51953125 330.1953125 C40.99882892 324.85912886 40.99882892 324.85912886 34.42578125 323.55078125 C33.1838501 323.40447266 31.94191895 323.25816406 30.66235352 323.10742188 C29.99487091 323.02935303 29.32738831 322.95128418 28.63967896 322.87084961 C6.55685724 320.25718309 -15.27765862 316.14364702 -36.75 310.3125 Z M222.69140625 311.44921875 C211.60951179 314.37446206 200.53427352 316.97536035 189.25 319 C188.08428467 319.21221191 186.91856934 319.42442383 185.7175293 319.64306641 C179.97686944 320.64500593 174.30578874 321.4442875 168.4921875 321.8671875 C157.46236306 322.18040998 157.46236306 322.18040998 147.85546875 326.77734375 C145.30316924 329.82363671 143.28177354 332.90158321 141.25 336.3125 C139.82498588 338.15131133 138.36661071 339.96478577 136.875 341.75 C136.14539063 342.64460938 135.41578125 343.53921875 134.6640625 344.4609375 C130.50278469 349.37636275 126.0868178 354.05254165 121.69140625 358.7578125 C118.81281603 361.86263339 116.00291048 365.02940168 113.1875 368.19140625 C111.26568447 370.2953293 109.28048322 372.31374308 107.25 374.3125 C108.56911121 377.30569785 109.88763594 379.13275713 112.41796875 381.1953125 C113.05605469 381.71770508 113.69414062 382.24009766 114.3515625 382.77832031 C115.03992188 383.32584961 115.72828125 383.87337891 116.4375 384.4375 C117.15292969 385.01081055 117.86835938 385.58412109 118.60546875 386.17480469 C140.48896789 403.48318847 170.15959991 423.21989217 199.2421875 421.09375 C209.18063336 419.77873935 217.48071851 416.21307237 224.3671875 408.796875 C239.83044588 388.39307348 238.72341968 361.28281695 235.60522461 337.20117188 C234.33573072 328.11550632 232.46338177 319.21096885 230.25 310.3125 C227.39832839 310.3125 225.42105176 310.71078094 222.69140625 311.44921875 Z M59.25 326.3125 C63.83928814 332.53932891 63.83928814 332.53932891 68.80859375 338.28515625 C69.43507812 338.95039307 70.0615625 339.61562988 70.70703125 340.30102539 C71.36058594 340.98543701 72.01414063 341.66984863 72.6875 342.375 C73.37328125 343.09872803 74.0590625 343.82245605 74.765625 344.56811523 C81.79322116 351.9498213 88.99687735 359.15316773 96.25 366.3125 C103.15984201 360.4544682 109.4558608 354.3530654 115.36328125 347.4765625 C118.14820587 344.28225972 121.04751776 341.19332045 123.94140625 338.09765625 C127.00874731 334.39712465 129.58382929 330.31175606 132.25 326.3125 C108.16 326.3125 84.07 326.3125 59.25 326.3125 Z " fill="#1A3E6B" transform="translate(142.75,33.6875)"/>
<path d="M0 0 C10.72381312 7.79561099 17.19465185 17.21942844 20.25 30.25 C20.53394498 33.02767812 20.58426341 35.77173632 20.5625 38.5625 C20.55512817 39.68398437 20.55512817 39.68398437 20.54760742 40.828125 C20.30117103 52.49530828 15.90957865 62.89645179 8.03125 71.55859375 C-2.13737476 81.21432735 -13.82417927 85.36688339 -27.75 85.25 C-41.36124056 84.4360963 -52.65080997 78.30614584 -61.75 68.25 C-69.98419709 57.17822548 -73.00965005 44.72732091 -71.0625 31.0625 C-69.53184741 23.20378034 -66.45453043 16.71872934 -61.75 10.25 C-60.945625 9.0434375 -60.945625 9.0434375 -60.125 7.8125 C-44.68642726 -8.84490743 -19.09648944 -11.88659037 0 0 Z " fill="#FBB6EA" transform="translate(263.75,212.75)"/>
<path d="M0 0 C10.72381312 7.79561099 17.19465185 17.21942844 20.25 30.25 C20.53394498 33.02767812 20.58426341 35.77173632 20.5625 38.5625 C20.55512817 39.68398437 20.55512817 39.68398437 20.54760742 40.828125 C20.30117103 52.49530828 15.90957865 62.89645179 8.03125 71.55859375 C-2.13737476 81.21432735 -13.82417927 85.36688339 -27.75 85.25 C-41.36124056 84.4360963 -52.65080997 78.30614584 -61.75 68.25 C-69.98419709 57.17822548 -73.00965005 44.72732091 -71.0625 31.0625 C-69.53184741 23.20378034 -66.45453043 16.71872934 -61.75 10.25 C-60.945625 9.0434375 -60.945625 9.0434375 -60.125 7.8125 C-44.68642726 -8.84490743 -19.09648944 -11.88659037 0 0 Z M-50.50390625 16.1015625 C-52.07933509 18.08368099 -53.43650178 20.08612148 -54.75 22.25 C-55.37068359 23.26707031 -55.37068359 23.26707031 -56.00390625 24.3046875 C-59.8217509 31.56790415 -59.88849048 39.34425733 -58.0546875 47.24609375 C-54.54964408 57.86431353 -48.47978785 64.76216234 -38.75 70.25 C-29.75804528 73.851584 -20.19426795 73.26092036 -11.3203125 69.57421875 C-1.89870704 64.72023053 3.70673944 58.30246 7.0625 48.3125 C9.31794716 39.87068349 8.70381224 32.3045508 5.25 24.25 C-0.08431294 15.04374028 -7.94423807 8.50956266 -18.125 5.5625 C-30.3710113 4.10464151 -41.79082174 6.90333965 -50.50390625 16.1015625 Z " fill="#1B3F6C" transform="translate(263.75,212.75)"/>
<path d="M0 0 C6.49461003 5.0968832 10.24882498 10.91287314 11.33203125 19.15234375 C11.65186712 27.5017432 10.51258956 33.57540978 5.85546875 40.52734375 C5.25734375 41.45546875 4.65921875 42.38359375 4.04296875 43.33984375 C-2.1483977 49.5312102 -9.6286987 52.78132263 -18.39453125 52.96484375 C-25.04667214 52.86612476 -29.61135881 51.10885312 -35.14453125 47.52734375 C-36.07265625 46.92921875 -37.00078125 46.33109375 -37.95703125 45.71484375 C-44.33372362 39.33815138 -47.40894418 31.77787158 -47.58203125 22.77734375 C-47.42873631 14.6867777 -45.52507613 9.22382741 -40.0546875 3.2421875 C-28.4415494 -7.69599898 -13.35916138 -9.17377748 0 0 Z " fill="#8AEBDC" transform="translate(124.14453125,423.47265625)"/>
<path d="M0 0 C6.73569972 5.42195994 10.73888135 11.73628464 11.98828125 20.359375 C12.35956973 29.39792889 9.97267584 36.68013695 4.30078125 43.71484375 C-0.57045993 48.91153424 -6.82734194 52.09408793 -13.9609375 52.578125 C-28.14339536 52.95228746 -28.14339536 52.95228746 -34.44921875 48.33984375 C-35.31546875 47.80359375 -36.18171875 47.26734375 -37.07421875 46.71484375 C-44.37586306 39.41319944 -46.74024055 31.84915232 -46.76831055 21.87182617 C-46.6746967 16.1589656 -45.97171668 11.97838062 -42.44921875 7.33984375 C-41.74796875 6.30859375 -41.04671875 5.27734375 -40.32421875 4.21484375 C-29.62454665 -7.95145007 -12.94860186 -8.77696298 0 0 Z " fill="#FCFDFD" transform="translate(487.44921875,235.66015625)"/>
<path d="M0 0 C8.62744125 4.3923903 13.50427832 11.17763063 16.5703125 20.30859375 C17.84147415 28.131127 16.60381508 34.54394208 12.5703125 41.30859375 C12.16941406 42.00855469 11.76851562 42.70851562 11.35546875 43.4296875 C7.44860095 49.42021812 2.33707033 53.04197805 -4.4296875 55.30859375 C-13.18045065 56.51112991 -21.81091869 56.07872237 -29.4296875 51.30859375 C-36.55163484 45.8215978 -40.57468987 39.06830478 -42.4296875 30.30859375 C-43.47272361 21.51973213 -40.83575315 13.99792008 -35.4296875 7.05859375 C-25.50066042 -3.37961421 -13.00418088 -5.35357304 0 0 Z " fill="#8AEBDC" transform="translate(127.4296875,38.69140625)"/>
</svg>
